<ttFont>
          <CharString index="0">
            -97 callgsubr
            rrcurveto
            -20 4 18 -12 22 hhcurveto
            22 18 12 24 -4 hvcurveto
            -64 callsubr
            -4 -111 rmoveto
            25 52 -213 -9 -7 hvcurveto
            -64 callgsubr
            return
          </CharString>
          <CharString index="1">
            rmoveto
            -107 callsubr
            return
          </CharString>
          <CharString index="2">
            rmoveto
            36 3 25 17 15 -10 8 -19 2 hvcurveto
            -173 -3 rlineto
            -103 callsubr
            return
          </CharString>
          <CharString index="3">
            -106 callgsubr
            endchar
          </CharString>
          <CharString index="4">
            2 38 -3 86 35 vvcurveto
            90 -2 43 0 17 2 rrcurveto
            14 2 17 18 16 vvcurveto
            15 -10 10 -21 3 vhcurveto
            -63 -51 0 1 -39 hvcurveto
            -1 11 0 16 74 vvcurveto
            45 -4 85 2 29 3 rrcurveto
            32 3 20 5 29 vvcurveto
            16 -9 11 -23 3 vhcurveto
            -1 hlineto
            -80 -56 5 -2 -67 hvcurveto
            -31 -1 -14 -12 -25 vvcurveto
            -43 1 -47 2 -52 vhcurveto
            -7 -7 -4 -8 -9 vvcurveto
            -10 4 -7 9 -5 vhcurveto
            1 -50 -2 -47 1 -50 rrcurveto
            -49 -2 -40 39 vhcurveto
            return
          </CharString>
          <CharString index="5">
            -99 callsubr
            -86 44 79 -68 68 hhcurveto
            67 71 44 76 41 hvcurveto
            -60 callsubr
            return
          </CharString>
          <CharString index="6">
            -102 callgsubr
            endchar
          </CharString>
          <CharString index="7">
            -99 callgsubr
            endchar
          </CharString>
          <CharString index="8">
            rmoveto
            -1 -7 0 -10 -1 -11 -1 -49 -7 -37 -13 -23 rrcurveto
            -65 -30 -36 -33 -42 hhcurveto
            -52 -57 59 72 -35 hvcurveto
            -36 71 -7 55 69 vvcurveto
            35 5 73 9 111 vhcurveto
            20 -3 -9 10 -15 hhcurveto
            -20 -22 -20 -21 -9 hvcurveto
            -9 -113 -5 -75 -35 vvcurveto
            -72 8 -77 44 -86 vhcurveto
            return
          </CharString>
          <CharString index="9">
            -16 59 -21 59 -27 58 rrcurveto
            59 -27 -14 30 -23 hhcurveto
            -42 -46 -91 -102 -32 hvcurveto
            -33 -103 -25 -103 -34 vvcurveto
            -17 11 -9 21 21 11 8 17 3 vhcurveto
            3 32 25 98 6 22 rrcurveto
            -9 34 47 -5 60 hhcurveto
            return
          </CharString>
          <CharString index="10">
            14 -14 13 3 10 11 rrcurveto
            9 6 5 13 12 hhcurveto
            25 -2 -13 -29 -21 -25 -5 -6 -25 -37 24 -13 23 -10 15 20 11 18 10 17 16 23 7 19 13 35 -35 43 -47 -2 return
          </CharString>
          <CharString index="11">
            -79 callsubr
            -78 callgsubr
            rrcurveto
            return
          </CharString>
          <CharString index="12">
            rmoveto
            -20 -16 -18 -21 -64 67 -37 62 62 63 43 57 21 -13 15 -21 -11 -10 -8 -17 -10 hvcurveto
            -27 -15 -12 -19 -33 hhcurveto
            -36 -12 26 23 -10 hvcurveto
            15 -8 -8 11 -19 hhcurveto
            return
          </CharString>
          <CharString index="13">
            -92 -71 -33 -56 -40 hvcurveto
            -41 -56 -20 -69 -86 vvcurveto
            -86 23 -123 72 -88 vhcurveto
            -43 35 53 -26 63 -55 callsubr
            111 117 vvcurveto
            return
          </CharString>
          <CharString index="14">
            -87 callsubr
            -213 -17 27 -212 175 hhcurveto
            return
          </CharString>
          <CharString index="15">
            rmoveto
            -77 callgsubr
            130 -68 80 -97 vhcurveto
            -10 -69 rmoveto
            -33 callgsubr
            -34 callsubr
            hvcurveto
            return
          </CharString>
          <CharString index="16">
            rmoveto
            -5 -29 -4 -19 -1 -10 -13 -64 rcurveline
            -7 -33 -4 -20 -1 -7 -30 49 -36 84 -42 119 rrcurveto
            12 -8 -10 6 -11 hhcurveto
            -17 -17 -16 -31 -18 hvcurveto
            -18 -31 -19 -40 -20 -49 -21 -49 -14 -33 -9 -15 -18 103 -18 160 -18 217 rrcurveto
            19 -5 -10 10 -15 hhcurveto
            -24 -24 -26 -27 hvcurveto
            11 -113 8 -87 7 -59 7 -60 3 -32 1 -3 rrcurveto
            -163 16 23 -82 31 hhcurveto
            15 13 8 15 12 hvcurveto
            15 28 21 43 25 58 25 58 20 44 17 29 7 -15 16 -38 27 -62 27 -62 29 -52 31 -42 rrcurveto
            -8 8 9 -4 10 hhcurveto
            37 2 18 100 21 hvcurveto
            10 50 6 31 3 11 4 22 23 109 5 39 3 19 4 32 7 45 7 44 5 54 4 63 rrcurveto
            20 -5 -9 10 -15 hhcurveto
            -20 -23 -19 -23 -5 hvcurveto
            -4 -63 -10 -81 -16 -99 rrcurveto
            endchar
          </CharString>
          <CharString index="17">
            -100 callgsubr
            -175 -655 -105 callgsubr
          </CharString>
          <CharString index="18">
            23 20 45 14 32 2 -46 54 hhcurveto
            35 56 21 53 16 -15 21 -17 hvcurveto
            -30 -2 -48 -28 -24 2 52 -66 hhcurveto
            return
          </CharString>
          <CharString index="19">
            -91 callgsubr
            endchar
          </CharString>
          <CharString index="20">
            -21 -27 -14 -28 6 hvcurveto
            8 -38 4 -24 -106 vvcurveto
            -89 -15 -97 -94 -105 -30 193 168 20 vhcurveto
            19 2 -14 10 -14 hhcurveto
            -16 -26 -12 -20 -2 hvcurveto
            return
          </CharString>
          <CharString index="21">
            -90 callgsubr
            endchar
          </CharString>
          <CharString index="22">
            29 -1 97 72 1 20 rrcurveto
            21 -12 18 -22 1 vhcurveto
            -22 1 -62 -60 -4 -4 -24 29 -51 38 -13 1 rrcurveto
            return
          </CharString>
          <CharString index="23">
            -83 callsubr
            endchar
          </CharString>
          <CharString index="24">
            -102 callsubr
            -1 38 rlineto
            44 6 callgsubr
            -4 callsubr
            -20 -12 -20 -7 -3 30 -4 29 -5 26 rrcurveto
            -63 callgsubr
            return
          </CharString>
          <CharString index="25">
            -95 callsubr
            187 -610 -104 callsubr
          </CharString>
          <CharString index="26">
            rmoveto
            -30 6 -31 -66 -72 -108 rrcurveto
            54 -38 -53 111 -21 hhcurveto
            -13 -12 -7 -14 -9 hvcurveto
            -9 -13 2 -6 4 -8 48 -87 34 -56 30 -39 rrcurveto
            2 -18 1 -18 -17 vvcurveto
            -169 -2 3 -9 22 hhcurveto
            50 -7 35 194 hvcurveto
            18 29 12 15 13 20 35 56 40 49 4 38 2 15 -3 9 -20 4 rrcurveto
            return
          </CharString>
          <CharString index="27">
            rmoveto
            -11 -10 -6 -11 -6 hvcurveto
            -37 -66 -48 -17 -35 vvcurveto
            -18 13 -16 25 13 17 11 21 21 vhcurveto
            21 21 23 24 13 41 rrcurveto
            28 9 -20 23 16 callsubr
          </CharString>
          <CharString index="28">
            -17 4 -23 -10 -4 -20 -2 -10 3 -15 11 -20 20 -40 46 -40 26 -15 return
          </CharString>
          <CharString index="29">
            -80 callgsubr
            endchar
          </CharString>
          <CharString index="30">
            rmoveto
            23 18 22 24 14 9 -8 -19 4 vhcurveto
            12 -81 11 -121 17 -111 29 54 5 17 26 53 rrcurveto
            32 17 18 16 18 hhcurveto
            21 16 -39 -12 5 hvcurveto
            8 -17 40 -90 13 -18 31 142 16 108 8 71 rrcurveto
            17 2 22 16 17 hhcurveto
            14 14 -9 -17 -1 hvcurveto
            -7 -100 -56 -260 -11 -54 rrcurveto
            -17 -4 -18 -9 -13 hhcurveto
            -14 -12 4 13 -8 hvcurveto
            -35 59 -26 63 -28 50 rrcurveto
            -112 -48 -36 -79 -45 hhcurveto
            -26 -18 56 50 -6 hvcurveto
            -4 34 -22 178 -11 95 rrcurveto
            endchar
          </CharString>
          <CharString index="31">
            -81 callsubr
            endchar
          </CharString>
          <CharString index="32">
            677 -98 callgsubr
            return
          </CharString>
          <CharString index="33">
            -75 callgsubr
            endchar
          </CharString>
          <CharString index="34">
            rmoveto
            -49 -45 -36 -45 -45 36 -44 50 47 38 34 44 2 hvcurveto
            57 3 -32 35 -50 hhcurveto
            -2 -50 rmoveto
            16 9 -11 -18 -21 -10 -9 -22 -18 -8 10 18 17 16 14 17 hvcurveto
            return
          </CharString>
          <CharString index="35">
            rmoveto
            -24 -2 -23 -25 -14 vvcurveto
            -19 7 -12 27 139 109 -9 -17 78 vhcurveto
            -34 -64 -63 -76 -20 -27 -49 4 -39 12 -50 14 rrcurveto
            -26 7 -24 -27 -27 vvcurveto
            -34 65 -16 59 -10 vhcurveto
            -12 -15 -19 -22 -26 -30 -53 -60 -41 -50 -21 -113 rrcurveto
            -24 9 -10 24 1 vhcurveto
            58 1 58 4 58 -1 82 -1 153 -14 -12 60 -11 57 -56 -26 -108 -4 -50 -2 -54 5 -52 1 18 55 32 46 20 26 23 29 45 51 26 29 rrcurveto
            0 145 -22 -14 70 vhcurveto
            36 -7 -31 -8 -33 hhcurveto
            52 68 78 96 -10 42 -13 54 -301 22 -89 -9 rrcurveto
            endchar
          </CharString>
          <CharString index="36">
            rmoveto
            -50 callsubr
            rrcurveto
            -17 31 60 -26 58 hhcurveto
            54 41 7 27 34 hvcurveto
            -46 callsubr
            hvcurveto
            return
          </CharString>
          <CharString index="37">
            855 -94 callgsubr
            return
          </CharString>
          <CharString index="38">
            rmoveto
            -23 -12 12 23 7 3 9 7 10 hvcurveto
            32 23 13 28 11 45 rrcurveto
            15 9 10 8 11 hhcurveto
            23 14 -15 -23 hvcurveto
            -10 -45 -18 -38 -25 -31 rrcurveto
            -19 -15 -15 -9 -15 hhcurveto
            158 155 rmoveto
            14 6 11 7 15 hhcurveto
            21 12 -12 -25 3 hvcurveto
            -19 -61 -21 -42 -25 -23 rrcurveto
            -10 -11 -12 -5 -11 hhcurveto
            -24 -12 15 18 9 4 9 7 10 hvcurveto
            32 21 13 30 11 45 rrcurveto
            return
          </CharString>
          <CharString index="39">
            rmoveto
            -77 -73 -35 -60 -52 hvcurveto
            -52 -61 -33 -96 -94 vvcurveto
            -174 89 -145 119 38 55 22 28 32 vhcurveto
            -41 3 7 -8 32 hhcurveto
            39 -2 44 56 173 4 95 -172 hvcurveto
            -23 -4 -14 -24 -23 vvcurveto
            -23 37 -13 25 54 6 -43 -42 -55 -39 -61 -75 -72 -60 105 118 161 88 112 113 vhcurveto
            45 32 -36 31 hhcurveto
            29 9 20 26 42 -83 36 -60 hvcurveto
            return
          </CharString>
          <CharString index="40">
            rmoveto
            -74 callsubr
          </CharString>
          <CharString index="41">
            -12 callgsubr
            -195 -89 callgsubr
          </CharString>
          <CharString index="42">
            5 61 3 79 99 vvcurveto
            -3 231 -1 116 0 vvcurveto
            15 -3 -9 8 -13 hhcurveto
            -27 -23 -15 -19 -5 hvcurveto
            return
          </CharString>
          <CharString index="43">
            -13 75 -38 249 -72 187 rrcurveto
            95 -37 -17 18 -32 hhcurveto
            return
          </CharString>
          <CharString index="44">
            652 -100 callgsubr
            return
          </CharString>
          <CharString index="45">
            20 -44 17 -46 13 -47 rrcurveto
            -40 -35 4 8 -29 hvcurveto
            return
          </CharString>
          <CharString index="46">
            852 -100 callgsubr
            return
          </CharString>
          <CharString index="47">
            37 57 4 51 7 36 rrcurveto
            3 17 2 38 59 vvcurveto
            76 vlineto
            return
          </CharString>
          <CharString index="48">
            15 10 8 12 14 vvcurveto
            14 -9 11 -18 vhcurveto
            -17 -99 -46 -44 hhcurveto
            -17 -18 8 17 -16 hvcurveto
            -33 32 -16 43 55 vvcurveto
            109 57 53 105 vhcurveto
            22 37 -10 22 hhcurveto
            18 25 18 19 10 -6 8 -12 7 hvcurveto
            endchar
          </CharString>
          <CharString index="49">
            551 -86 callgsubr
            return
          </CharString>
          <CharString index="50">
            -12 -22 -13 -20 -1 hvcurveto
            -1 -33 90 -69 29 -1 return
          </CharString>
          <CharString index="51">
            rmoveto
            -45 callgsubr
            96 19 194 4 88 vhcurveto
            -2 callsubr
            return
          </CharString>
          <CharString index="52">
            hhcurveto
            48 3 42 19 37 36 rrcurveto
            72 72 34 return
          </CharString>
          <CharString index="53">
            -31 49 -47 75 -91 140 -51 -43 rrcurveto
            -10 -8 -3 -29 -45 vvcurveto
            3 -108 -16 -271 -2 -105 rrcurveto
            -18 17 -11 20 23 12 8 16 2 vhcurveto
            12 84 6 142 225 vvcurveto
            return
          </CharString>
          <CharString index="54">
            659 -96 callgsubr
            return
          </CharString>
          <CharString index="55">
            105 33 -93 -137 -40 -5 -44 -11 -49 hvcurveto
            return
          </CharString>
          <CharString index="56">
            870 -95 callgsubr
            return
          </CharString>
          <CharString index="57">
            -135 -97 -63 -95 -116 72 -37 107 -19 hvcurveto
            61 -11 86 -18 -90 vvcurveto
            -76 -61 -50 -45 -63 -35 26 29 -64 vhcurveto
            -16 7 -23 -16 -11 -15 -22 -30 27 -25 38 -20 return
          </CharString>
          <CharString index="58">
            -42 -48 -41 -31 -23 17 -19 17 hvcurveto
            return
          </CharString>
          <CharString index="59">
            -70 vlineto
            -39 -1 -30 -3 -21 vhcurveto
            -27 10 -10 31 vhcurveto
            return
          </CharString>
          <CharString index="60">
            830 -93 callgsubr
            return
          </CharString>
          <CharString index="61">
            29 23 48 55 111 vvcurveto
            120 -72 43 -104 21 vhcurveto
            -61 11 -84 19 69 vvcurveto
            51 72 35 61 vhcurveto
            55 52 -45 33 hhcurveto
            22 8 20 17 46 -71 32 -85 return
          </CharString>
          <CharString index="62">
            rmoveto
            -8 -30 3 5 -53 hvcurveto
            -98 1 -65 3 -33 vhcurveto
            21 24 -1 -1 29 hvcurveto
            -1 28 28 -1 29 hhcurveto
            24 -4 12 -10 -17 vvcurveto
            -17 -18 -20 -21 -5 vhcurveto
            -15 -14 1 1 -13 hvcurveto
            1 -14 -29 1 -44 hhcurveto
            -26 hlineto
            6 -197 rlineto
            -26 vlineto
            188 3 rlineto
            22 -3 11 -10 -16 vvcurveto
            -13 -8 -13 -15 -12 vhcurveto
            -7 -5 -7 -4 -8 -2 rrcurveto
            -203 hlineto
            -40 -1 -20 10 21 vvcurveto
            3 258 -90 -2 rlineto
            -32 -27 3 6 -22 hvcurveto
            -11 -46 -10 -55 -8 -64 -15 -106 rcurveline
            -16 -2 -12 -8 -23 hhcurveto
            -23 -12 9 19 80 12 189 76 129 hvcurveto
            169 97 58 47 93 hhcurveto
            229 hlineto
            25 -8 12 -11 -16 vvcurveto
            -32 -39 -16 -77 vhcurveto
            -205 -188 rmoveto
            1 13 0 16 21 vvcurveto
            41 -4 75 -1 25 vhcurveto
            -37 -25 -60 -64 -44 -101 rrcurveto
            -3 17 18 -2 19 hhcurveto
            endchar
          </CharString>
          <CharString index="63">
            637 -95 callsubr
            return
          </CharString>
          <CharString index="64">
            -29 callgsubr
            -7 callgsubr
            return
          </CharString>
          <CharString index="65">
            3 36 3 318 -3 50 rrcurveto
            16 -1 -18 9 -17 hhcurveto
            return
          </CharString>
          <CharString index="66">
            rrcurveto
            3 63 47 1 49 hhcurveto
            35 6 31 19 13 -10 10 -19 6 hvcurveto
            -104 -202 -6 -99 hhcurveto
            -24 -3 -19 -22 -20 vvcurveto
            -18 11 -16 23 vhcurveto
            54 -1 52 -2 58 3 return
          </CharString>
          <CharString index="67">
            rmoveto
            -97 callsubr
            -49 -1 -29 -55 20 -17 rrcurveto
            return
          </CharString>
          <CharString index="68">
            rmoveto
            -24 -24 -16 -14 -1 hvcurveto
            1 -18 5 -33 7 -46 13 -85 6 -116 -22 -52 rrcurveto
            -17 -7 -10 -8 -21 hhcurveto
            -21 -30 24 42 -7 hvcurveto
            36 -8 -3 2 -14 hhcurveto
            -21 -22 -15 -16 hvcurveto
            -72 10 25 -63 89 hhcurveto
            85 25 58 72 7 hvcurveto
            1 14 1 28 42 vvcurveto
            42 -5 79 -12 118 vhcurveto
            8 -1 -11 6 -11 hhcurveto
            return
          </CharString>
          <CharString index="69">
            -73 callsubr
            -150 vmoveto
            -20 callsubr
          </CharString>
          <CharString index="70">
            -73 callsubr
            92 -583 -104 callsubr
          </CharString>
          <CharString index="71">
            -45 0 -44 6 -42 28 callsubr
            11 -4 15 -18 callgsubr
            return
          </CharString>
          <CharString index="72">
            -102 callgsubr
            -10 -623 -83 callgsubr
          </CharString>
          <CharString index="73">
            -86 -42 97 86 78 42 53 81 return
          </CharString>
          <CharString index="74">
            -42 callgsubr
            rrcurveto
            7 callsubr
            return
          </CharString>
          <CharString index="75">
            rmoveto
            63 31 13 28 13 -8 9 -19 4 hvcurveto
            -97 -136 -10 -79 hhcurveto
            -20 -1 -17 -21 -15 vvcurveto
            -15 11 -11 20 45 41 2 3 36 vhcurveto
            return
          </CharString>
          <CharString index="76">
            -32 callsubr
            -7 -71 0 -169 4 -130 rrcurveto
            return
          </CharString>
          <CharString index="77">
            598 -71 callgsubr
            return
          </CharString>
          <CharString index="78">
            -98 28 217 -56 callsubr
            return
          </CharString>
          <CharString index="79">
            -31 callsubr
            9 callgsubr
            13 callgsubr
            return
          </CharString>
          <CharString index="80">
            rmoveto
            -46 -1 -19 -18 hvcurveto
            -1 -109 1 -86 2 -59 -47 -4 -107 4 -72 12 1 80 2 80 1 80 rrcurveto
            21 callgsubr
            -81 -3 -82 -2 -81 vhcurveto
            19 callsubr
            rrcurveto
            -21 callgsubr
            117 1 123 117 vvcurveto
            24 -15 9 -15 vhcurveto
            endchar
          </CharString>
          <CharString index="81">
            rmoveto
            -37 callgsubr
            hvcurveto
            -48 callgsubr
            -87 callgsubr
            vhcurveto
            return
          </CharString>
          <CharString index="82">
            28 2 13 14 -2 40 -1 15 -16 11 -19 -1 return
          </CharString>
          <CharString index="83">
            rmoveto
            -26 -15 -21 -23 -8 hvcurveto
            -104 -36 -44 -121 -134 hhcurveto
            -60 -52 63 156 -5 hvcurveto
            26 -1 -26 8 -13 hhcurveto
            -25 -16 -28 -21 hvcurveto
            -1 -179 1 -211 -1 -179 rrcurveto
            -22 9 -11 18 23 31 12 36 vhcurveto
            -1 79 -2 126 4 115 rrcurveto
            -40 33 34 -17 55 hhcurveto
            87 79 59 74 43 hvcurveto
            -43 4 -46 -97 vvcurveto
            -55 1 -101 -1 -69 vhcurveto
            -22 9 -11 17 40 10 17 35 3 vhcurveto
            4 48 -5 464 -2 68 rrcurveto
            21 -4 -11 14 -16 hhcurveto
            endchar
          </CharString>
          <CharString index="84">
            rmoveto
            -78 callgsubr
            -79 callsubr
            rrcurveto
            return
          </CharString>
          <CharString index="85">
            rmoveto
            -89 callsubr
            -49 callsubr
            return
          </CharString>
          <CharString index="86">
            -39 -38 6 -38 hhcurveto
            -130 -98 -85 -145 -52 13 -50 26 -46 hvcurveto
            -47 25 48 -32 46 return
          </CharString>
          <CharString index="87">
            -107 callsubr
            endchar
          </CharString>
          <CharString index="88">
            rmoveto
            52 3 8 -14 -20 vvcurveto
            -28 -13 -13 -55 -1 vhcurveto
            -15 -16 -1 -15 hhcurveto
            -27 -8 -257 -31 vvcurveto
            -33 -27 -11 -20 -19 -9 25 50 104 3 95 6 87 vhcurveto
            -102 -6 rlineto
            -17 -1 -15 21 17 vvcurveto
            16 9 19 33 vhcurveto
            33 32 1 33 hhcurveto
            -1 -13 10 118 1 16 -42 16 -162 22 -34 7 rrcurveto
            -21 4 -5 17 18 vvcurveto
            15 15 19 18 19 260 -36 -20 22 vhcurveto
            16 -14 -20 -102 -4 -65 rrcurveto
            endchar
          </CharString>
          <CharString index="89">
            64 31 rmoveto
            -21 -1 10 -10 20 hhcurveto
            10 34 1 32 40 -2 52 -1 39 hvcurveto
            14 10 20 15 25 22 19 -16 20 -19 18 -23 rrcurveto
            -55 44 43 -97 31 hhcurveto
            18 17 12 24 22 -70 125 -82 74 hvcurveto
            47 48 82 90 42 vvcurveto
            14 -13 11 -19 -17 -13 -7 -14 -9 vhcurveto
            -54 -80 -43 -44 -80 -66 rrcurveto
            52 -4 103 -17 37 vhcurveto
            12 -6 -7 6 -14 hhcurveto
            -15 -29 -8 -38 5 hvcurveto
            10 -74 9 -195 -63 vvcurveto
            return
          </CharString>
          <CharString index="90">
            rmoveto
            -15 -6 -7 -25 -129 vvcurveto
            -32 2 -93 19 -18 vhcurveto
            -18 20 46 22 68 hhcurveto
            67 54 -28 -107 -60 -43 -66 -60 -83 -27 85 -24 -45 hvcurveto
            -23 -12 -2 -11 -23 vvcurveto
            -53 87 -54 94 100 89 97 131 197 -165 49 -118 -43 vhcurveto
            -1 35 -2 51 58 vvcurveto
            80 5 92 -11 47 -10 rrcurveto
            18 -4 21 20 31 vvcurveto
            15 -7 12 -13 8 vhcurveto
            -96 30 -178 -11 -19 -8 rrcurveto
            endchar
          </CharString>
          <CharString index="91">
            -74 299 457 rmoveto
            3 6 7 2 9 hhcurveto
            17 17 -17 -19 -10 -3 -8 -5 -7 hvcurveto
            -59 -44 -136 -98 -33 -24 23 -17 37 -25 52 -35 52 -35 39 -28 27 -22 rrcurveto
            5 -8 3 -8 -8 vvcurveto
            -16 -22 -19 -17 -9 -6 1 2 -3 vhcurveto
            -28 22 -43 31 -58 40 -58 40 -43 32 -29 23 rrcurveto
            -10 9 -5 10 12 vvcurveto
            12 6 10 11 7 vhcurveto
            95 79 86 64 75 49 rrcurveto
            return
          </CharString>
          <CharString index="92">
            rmoveto
            -98 -88 -56 -121 -80 47 -97 77 36 47 5 29 22 hvcurveto
            -109 5 -153 2 -42 vhcurveto
            -22 1 14 -19 11 hhcurveto
            22 28 16 27 -1 hvcurveto
            -2 60 1 218 -1 99 -1 63 7 93 -13 26 rrcurveto
            50 -25 -38 13 -53 hhcurveto
            45 -241 rmoveto
            -22 -17 -40 -10 -19 -5 rrcurveto
            -40 -10 -35 41 65 vvcurveto
            86 116 34 27 -20 vhcurveto
            19 -14 -6 -30 -48 vvcurveto
            endchar
          </CharString>
          <CharString index="93">
            -21 2 -18 3 -18 -1 rrcurveto
            -15 -3 -14 -22 -10 vvcurveto
            -23 11 -13 15 -2 vhcurveto
            2 -66 -3 -266 4 -20 rrcurveto
            -2 callgsubr
            return
          </CharString>
          <CharString index="94">
            vvcurveto
            -52 callgsubr
            return
          </CharString>
          <CharString index="95">
            233 427 rmoveto
            17 9 -11 -22 -20 -30 -36 -60 -52 hvcurveto
            -23 -20 -14 -13 -5 -6 7 -7 23 -20 13 -11 rrcurveto
            42 -39 21 -29 -21 vvcurveto
            -24 -14 -13 -14 -14 -33 23 22 -15 vhcurveto
            -8 11 -13 13 -17 15 rrcurveto
            -35 31 -15 16 28 vvcurveto
            28 14 25 21 21 vhcurveto
            10 11 10 10 11 9 21 19 30 25 9 12 rrcurveto
            12 9 27 13 16 hhcurveto
            return
          </CharString>
          <CharString index="96">
            -6 -47 26 -60 62 -7 23 -4 33 7 20 16 return
          </CharString>
          <CharString index="97">
            15 -2 -18 11 -10 hhcurveto
            return
          </CharString>
          <CharString index="98">
            rmoveto
            140 38 89 -64 -119 vvcurveto
            -112 -48 -87 -146 -1 vhcurveto
            -105 -1 -31 86 -3 96 rrcurveto
            78 17 91 48 105 vhcurveto
            39 85 75 156 54 -39 22 -16 -9 -21 -16 -21 -19 -25 -100 -201 -7 -28 rrcurveto
            64 -67 rmoveto
            -38 -54 0 -100 -55 30 -36 37 80 35 56 57 41 -26 37 -64 hvcurveto
            endchar
          </CharString>
          <CharString index="99">
            rmoveto
            51 32 47 24 64 hhcurveto
            64 58 -37 -81 -81 -81 -100 -88 -61 -59 53 76 38 8 32 16 25 hvcurveto
            190 -57 rmoveto
            49 -15 24 -30 -63 -33 -49 -52 -52 12 -10 40 40 49 37 53 vhcurveto
            67 -383 rmoveto
            84 83 73 75 75 50 -61 -81 -81 -71 -59 -80 -80 -52 40 85 vhcurveto
            return
          </CharString>
          <CharString index="100">
            828 -49 callgsubr
            return
          </CharString>
          <CharString index="101">
            -71 -50 vhcurveto
            -60 -41 -44 -32 -28 -23 rrcurveto
            -2 -3 -7 -1 -9 hhcurveto
            -19 -20 19 20 9 2 8 4 6 hvcurveto
            22 16 38 27 55 37 54 37 41 29 28 22 -23 17 -38 26 -52 35 -53 35 -39 28 -27 19 rrcurveto
            -9 11 -4 10 9 vvcurveto
            19 return
          </CharString>
          <CharString index="102">
            22 hvcurveto
            22 return
          </CharString>
          <CharString index="103">
            -46 callgsubr
            -6 -47 return
          </CharString>
          <CharString index="104" raw="1">
            4c1dfb22 fc79381d  
          </CharString>
          <CharString index="105">
            28 1 -23 9 -26 hhcurveto
            -26 -20 -10 -16 hvcurveto
            return
          </CharString>
          <CharString index="106">
            -66 323 196 rmoveto
            -84 -1 -83 4 -84 -4 rrcurveto
            -21 -1 -15 14 25 vvcurveto
            24 15 20 34 -1 vhcurveto
            82 -2 85 4 79 -2 rrcurveto
            27 -1 10 -19 -17 vvcurveto
            -21 -13 -22 -32 vhcurveto
            endchar
          </CharString>
          <CharString index="107">
            -36 vvcurveto
            -25 14 -12 14 7 18 -2 14 15 vhcurveto
            26 28 20 21 29 hhcurveto
            -21 28 45 -38 92 hhcurveto
            78 86 61 47 15 -12 11 -21 -11 -12 -3 -11 -9 hvcurveto
            -31 -24 -33 return
          </CharString>
          <CharString index="108">
            rmoveto
            -37 -20 -43 -31 -31 29 -14 28 27 25 30 29 hvcurveto
            41 -4 -29 19 -19 hhcurveto
            endchar
          </CharString>
          <CharString index="109">
            21 3 11 10 18 27 callsubr
            -9 -19 7 hvcurveto
            -44 -7 -40 -15 2 callgsubr
            3 13 callsubr
            return
          </CharString>
          <CharString index="110">
            -9 -4 -9 -5 -9 -5 -23 -14 -12 -24 -2 -35 rrcurveto
            6 11 15 3 20 hhcurveto
            39 48 -38 -56 -57 -48 -54 -63 -63 -42 49 89 88 61 98 79 13 hvcurveto
            return
          </CharString>
          <CharString index="111">
            22 -18 7 callgsubr
            return
          </CharString>
          <CharString index="112">
            -43 callsubr
            hvcurveto
            52 56 13 24 vvcurveto
            return
          </CharString>
          <CharString index="113">
            vvcurveto
            20 33 46 65 73 vhcurveto
            6 8 9 3 11 hhcurveto
            21 14 -9 -17 6 hvcurveto
            1 -5 1 -4 -4 vvcurveto
            -3 -13 -3 -27 -5 -39 rrcurveto
            return
          </CharString>
          <CharString index="114">
            -22 2 13 -11 17 hhcurveto
            21 25 -2 42 hvcurveto
            return
          </CharString>
          <CharString index="115">
            9 rmoveto
            -43 21 -22 41 36 45 42 33 29 -8 21 -15 12 vhcurveto
            5 -7 -9 3 -10 hhcurveto
            -45 -49 -31 -49 hvcurveto
            return
          </CharString>
          <CharString index="116">
            86 -5 56 -1 64 4 rrcurveto
            43 3 34 -2 40 vvcurveto
            27 -30 12 -44 -82 -53 -4 7 -74 vhcurveto
            -31 3 return
          </CharString>
          <CharString index="117">
            -29 -25 -30 -27 -28 -29 14 31 31 return
          </CharString>
          <CharString index="118">
            19 -3 22 callgsubr
            -21 -18 -22 -23 -7 vhcurveto
            return
          </CharString>
          <CharString index="119">
            rrcurveto
            -57 3 -3 -45 47 hhcurveto
            23 12 16 32 1 hvcurveto
            32 -4 184 -1 40 vhcurveto
            return
          </CharString>
          <CharString index="120">
            7 hvcurveto
            25 28 6 30 47 vvcurveto
            return
          </CharString>
          <CharString index="121">
            rmoveto
            165 -69 99 -138 -175 vvcurveto
            return
          </CharString>
          <CharString index="122">
            rmoveto
            17 callgsubr
            return
          </CharString>
          <CharString index="123">
            -23 hhcurveto
            endchar
          </CharString>
          <CharString index="124">
            rmoveto
            23 20 return
          </CharString>
          <CharString index="125">
            63 rmoveto
            0 callgsubr
            rrcurveto
            22 -18 12 -25 return
          </CharString>
          <CharString index="126">
            -3 -139 7 -118 8 -91 return
          </CharString>
          <CharString index="127">
            6 12 -8 hvcurveto
            -3 5 -2 6 return
          </CharString>
          <CharString index="128">
            -11 -3 -2 4 2 return
          </CharString>
          <CharString index="129">
            vhcurveto
            11 -8 return
          </CharString>
          <CharString index="130">
            16 12 -10 -20 7 hvcurveto
            -57 -18 -105 -53 -21 -11 return
          </CharString>
          <CharString index="131">
            hlineto
            -22 -11 9 return
          </CharString>
          <CharString index="132">
            -16 -8 8 16 17 13 21 16 3 hvcurveto
            return
          </CharString>
          <CharString index="133">
            20 21 8 29 23 -4 16 -33 hvcurveto
            return
          </CharString>
          <CharString index="134">
            hhcurveto
            17 13 return
          </CharString>
          <CharString index="135">
            vhcurveto
            -11 2 return
          </CharString>
          <CharString index="136">
            4 hvcurveto
            81 128 hlineto
            23 5 return
          </CharString>
          <CharString index="137">
            -21 hhcurveto
            -17 -9 11 return
          </CharString>
        <CharString name=".notdef">
          -242 endchar
        </CharString>
        <CharString name="A">
          18 259 659 -103 callgsubr
        </CharString>
        <CharString name="AE">
          191 487 560 -45 callsubr
        </CharString>
        <CharString name="AEacute">
          191 378 878 -98 callgsubr
          109 -318 -45 callsubr
        </CharString>
        <CharString name="Aacute">
          18 289 876 -98 callgsubr
          -30 -217 -103 callgsubr
        </CharString>
        <CharString name="Abreve">
          18 164 836 -84 callgsubr
        </CharString>
        <CharString name="Abreveacute">
          18 291 1013 -98 callgsubr
          -127 -177 -84 callgsubr
        </CharString>
        <CharString name="Abrevedotbelow">
          18 164 836 -95 callsubr
          95 -177 -60 callgsubr
        </CharString>
        <CharString name="Abrevegrave">
          18 221 1006 -95 callgsubr
          -57 -170 -84 callgsubr
        </CharString>
        <CharString name="Abrevehookabove">
          18 257 995 -96 callgsubr
          -93 -159 -84 callgsubr
        </CharString>
        <CharString name="Abrevetilde">
          18 212 966 -93 callgsubr
          -48 -130 -84 callgsubr
        </CharString>
        <CharString name="Acaron">
          18 169 854 -94 callgsubr
          90 -195 -103 callgsubr
        </CharString>
        <CharString name="Acircumflex">
          18 258 851 -81 callgsubr
        </CharString>
        <CharString name="Acircumflexacute">
          18 450 982 -98 callgsubr
          -192 -131 -81 callgsubr
        </CharString>
        <CharString name="Acircumflexdotbelow">
          18 258 851 -100 callgsubr
          1 -192 -60 callgsubr
        </CharString>
        <CharString name="Acircumflexgrave">
          18 327 953 -95 callgsubr
          -69 -102 -81 callgsubr
        </CharString>
        <CharString name="Acircumflexhookabove">
          18 366 983 -96 callgsubr
          -108 -132 -81 callgsubr
        </CharString>
        <CharString name="Acircumflextilde">
          18 212 981 -93 callgsubr
          46 -130 -81 callgsubr
        </CharString>
        <CharString name="Adieresis">
          18 122 750 -86 callgsubr
          -88 -148 -103 callgsubr
        </CharString>
        <CharString name="Adotbelow">
          18 259 659 -60 callgsubr
        </CharString>
        <CharString name="Agrave">
          18 219 869 -95 callgsubr
          40 -210 -103 callgsubr
        </CharString>
        <CharString name="Ahookabove">
          18 255 858 -96 callgsubr
          4 -199 -103 callgsubr
        </CharString>
        <CharString name="Amacron">
          18 381 797 -71 callgsubr
          -122 -138 -103 callgsubr
        </CharString>
        <CharString name="Aogonek">
          18 534 -93 15 callsubr
          1 vlineto
          1 4 0 4 -1 5 -64 callsubr
          -97 callgsubr
          1 -3 0 -3 2 -2 -18 -17 -14 -26 -4 -33 -11 callsubr
          rrcurveto
          8 5 34 26 -21 24 rrcurveto
          -209 419 rmoveto
          -64 callgsubr
          25 52 -213 -9 -7 hvcurveto
          endchar
        </CharString>
        <CharString name="Aring">
          18 261 859 -38 callsubr
        </CharString>
        <CharString name="Aringacute">
          18 285 1042 -98 callgsubr
          -24 -183 -38 callsubr
        </CharString>
        <CharString name="Aringbelow">
          18 259 659 -106 callsubr
          -2 -577 -73 callsubr
          endchar
        </CharString>
        <CharString name="Atilde">
          18 210 829 -93 callgsubr
          49 -170 -103 callgsubr
        </CharString>
        <CharString name="B">
          37 56 383 rmoveto
          1 -223 4 -126 8 -29 rrcurveto
          -1 53 44 -2 32 hhcurveto
          175 92 51 148 19 -2 53 -24 37 hvcurveto
          -15 22 -36 40 -36 5 rrcurveto
          35 31 12 40 60 vvcurveto
          77 -20 57 -96 20 vhcurveto
          -40 8 -70 2 -34 -17 rrcurveto
          -72 -38 -11 -60 -103 vvcurveto
          156 136 rmoveto
          78 7 37 -34 -59 vvcurveto
          -77 -50 -26 -51 -12 vhcurveto
          -37 -9 -36 -2 -15 -3 rrcurveto
          34 -2 52 28 vvcurveto
          36 -12 57 88 8 vhcurveto
          67 -285 rmoveto
          105 0 -76 -37 -96 -97 -15 -147 hvcurveto
          -7 77 2 83 51 vvcurveto
          10 73 49 3 22 hhcurveto
          endchar
        </CharString>
        <CharString name="C">
          78 336 654 -74 callgsubr
        </CharString>
        <CharString name="CR">
          -137 endchar
        </CharString>
        <CharString name="Cacute">
          78 354 -68 callgsubr
          -18 -223 -74 callgsubr
        </CharString>
        <CharString name="Ccaron">
          78 234 -70 callsubr
          102 -201 -74 callgsubr
        </CharString>
        <CharString name="Ccedilla">
          78 472 149 rmoveto
          -9 -16 -6 -11 -23 hvcurveto
          -55 callgsubr
          -25 callgsubr
          6 6 0 1 6 hvcurveto
          -14 vlineto
          -16 callgsubr
          30 3 1 rcurveline
          -9 callgsubr
          vhcurveto
          endchar
        </CharString>
        <CharString name="Ccircumflex">
          78 323 -61 callsubr
          13 -198 -74 callgsubr
        </CharString>
        <CharString name="Cdotaccent">
          78 320 -7 callsubr
          16 -174 -74 callgsubr
        </CharString>
        <CharString name="D">
          5 72 -28 -34 callgsubr
        </CharString>
        <CharString name="Dcaron">
          5 141 -70 callsubr
          -69 -883 -34 callgsubr
        </CharString>
        <CharString name="Dcroat">
          80 165 661 rmoveto
          -19 7 -39 -12 -9 -31 rrcurveto
          -3 -48 -1 -78 -107 vvcurveto
          -61 -1 -12 -8 -28 vvcurveto
          -25 7 -10 66 -3 vhcurveto
          3 -91 6 -80 9 -67 rrcurveto
          12 callgsubr
          -80 17 1 -7 24 hhcurveto
          39 26 31 29 -14 hvcurveto
          -5 25 28 -2 30 hhcurveto
          126 107 64 170 hvcurveto
          10 callgsubr
          16 -85 14 callsubr
          -81 -46 -37 -140 -25 -21 2 5 -17 vhcurveto
          -9 73 -6 78 -3 83 rrcurveto
          96 4 6 1 32 vvcurveto
          29 -2 4 -101 5 vhcurveto
          86 1 61 3 37 vhcurveto
          endchar
        </CharString>
        <CharString name="E">
          -28 59 197 -105 callgsubr
        </CharString>
        <CharString name="Eacute">
          -28 265 -68 callgsubr
          -206 -680 -105 callgsubr
        </CharString>
        <CharString name="Ebreve">
          -28 140 -31 callgsubr
          -81 -640 -105 callgsubr
        </CharString>
        <CharString name="Ecaron">
          -28 145 -70 callsubr
          -86 -658 -105 callgsubr
        </CharString>
        <CharString name="Ecircumflex">
          -28 234 852 -90 callsubr
        </CharString>
        <CharString name="Ecircumflexacute">
          -28 426 983 -98 callgsubr
          -192 -131 -90 callsubr
        </CharString>
        <CharString name="Ecircumflexdotbelow">
          -28 234 -61 callsubr
          -175 -655 -44 callgsubr
        </CharString>
        <CharString name="Ecircumflexgrave">
          -28 303 954 -95 callgsubr
          -69 -102 -90 callsubr
        </CharString>
        <CharString name="Ecircumflexhookabove">
          -28 342 984 -96 callgsubr
          -108 -132 -90 callsubr
        </CharString>
        <CharString name="Ecircumflextilde">
          -28 188 982 -93 callgsubr
          46 -130 -90 callsubr
        </CharString>
        <CharString name="Edieresis">
          -28 98 -58 callgsubr
          -264 -611 -105 callgsubr
        </CharString>
        <CharString name="Edotaccent">
          -28 231 -7 callsubr
          -172 -631 -105 callgsubr
        </CharString>
        <CharString name="Edotbelow">
          -28 59 197 -44 callgsubr
        </CharString>
        <CharString name="Egrave">
          -28 195 -51 callsubr
          -136 -673 -105 callgsubr
        </CharString>
        <CharString name="Ehookabove">
          -28 231 -53 callgsubr
          -172 -662 -105 callgsubr
        </CharString>
        <CharString name="Emacron">
          -28 357 -30 callgsubr
          -298 -601 -105 callgsubr
        </CharString>
        <CharString name="Eng">
          62 417 149 rmoveto
          -15 32 -113 197 -54 callsubr
          131 -205 68 -117 82 -140 15 -25 -6 -35 -17 -18 -18 -21 -31 -1 -12 27 -16 36 -28 -11 -14 -9 -22 -14 12 -38 18 -22 45 -54 55 8 41 26 rrcurveto
          75 48 -13 79 68 33 -7 366 157 -5 callgsubr
          -8 -33 2 -57 rrcurveto
          endchar
        </CharString>
        <CharString name="Eogonek">
          -28 133 77 rmoveto
          -104 callgsubr
          4 -147 rlineto
          -48 callsubr
          189 3 -8 -14 -6 -16 -2 -19 rlinecurve
          -43 callsubr
          45 41 16 12 18 hvcurveto
          11 10 7 13 12 vvcurveto
          15 -11 9 -21 3 vhcurveto
          endchar
        </CharString>
        <CharString name="Eth">
          119 72 317 rmoveto
          -23 3 -13 16 19 vvcurveto
          19 14 17 23 1 vhcurveto
          36 hlineto
          107 1 78 3 48 vhcurveto
          5 17 12 12 19 6 rrcurveto
          1 6 6 1 6 hhcurveto
          5 5 0 -1 3 hvcurveto
          96 -27 82 -51 69 -74 67 -72 43 -100 3 -105 rrcurveto
          -117 -49 -74 -97 -30 vhcurveto
          -9 -29 -29 -4 -29 hhcurveto
          -30 -28 2 5 -25 hvcurveto
          3 -6 1 -7 -8 vvcurveto
          -17 -24 -22 -31 -15 -10 9 18 -4 vhcurveto
          -13 60 rlineto
          -10 7 -5 9 9 vvcurveto
          9 4 7 7 6 vhcurveto
          -9 67 -6 80 -3 91 rrcurveto
          156 75 rmoveto
          20 -5 10 -13 -20 vvcurveto
          -21 -10 -12 -21 -4 vhcurveto
          -71 hlineto
          3 -83 6 -78 9 -73 rrcurveto
          -5 17 21 -2 25 hhcurveto
          92 87 22 53 4 hvcurveto
          2 19 1 15 9 vvcurveto
          175 -99 138 -165 69 vhcurveto
          -3 -37 -1 -61 -86 vvcurveto
          endchar
        </CharString>
        <CharString name="Etilde">
          -28 186 -47 callsubr
          -127 -633 -105 callgsubr
        </CharString>
        <CharString name="Euro">
          11 352 325 rmoveto
          19 -7 9 -14 -16 vvcurveto
          -17 -10 -14 -21 -4 vhcurveto
          -192 hlineto
          28 -64 54 -66 67 -20 65 -19 57 36 25 -16 rrcurveto
          11 -7 6 -10 -15 vvcurveto
          -37 -52 -34 -96 11 vhcurveto
          -66 8 -69 59 -29 35 -39 47 -24 60 -10 32 rrcurveto
          -30 hlineto
          -23 4 -13 16 17 vvcurveto
          16 14 16 23 3 vhcurveto
          15 hlineto
          22 1 17 1 15 vhcurveto
          -20 hlineto
          -19 -15 17 17 20 12 12 25 3 hvcurveto
          29 hlineto
          43 19 53 173 204 hhcurveto
          83 49 -16 -40 -8 hvcurveto
          -18 -4 -7 -13 -23 -18 -38 11 -51 hhcurveto
          -56 -76 -42 -103 -44 hvcurveto
          163 1 rlineto
          15 -1 38 -3 -35 vvcurveto
          -17 -10 -13 -19 -3 vhcurveto
          -92 -70 1 3 -48 hvcurveto
          -2 -18 -1 -10 -2 vvcurveto
          2 -21 rlineto
          endchar
        </CharString>
        <CharString name="Euro.smcp">
          -1 150 271 rmoveto
          -2 0 -2 1 -2 vhcurveto
          179 hlineto
          19 -7 9 -12 -19 vvcurveto
          -19 -11 -10 -21 -2 vhcurveto
          -156 hlineto
          24 -45 28 -33 33 -22 rrcurveto
          -11 17 16 -6 14 hhcurveto
          14 16 4 7 19 hvcurveto
          7 18 13 3 9 hhcurveto
          16 18 -17 -17 -9 -3 -7 -6 -6 hvcurveto
          -9 -11 -17 -8 -25 -7 rrcurveto
          -5 -31 -18 -3 -5 hhcurveto
          -8 hlineto
          -111 -73 117 69 -27 hvcurveto
          -24 hlineto
          -15 1 -11 7 -6 11 rrcurveto
          -3 5 -1 5 5 vvcurveto
          19 15 15 24 1 vhcurveto
          7 hlineto
          13 0 9 1 6 vhcurveto
          -11 hlineto
          -19 -17 16 17 20 13 12 25 3 hvcurveto
          24 hlineto
          49 97 36 33 57 21 rrcurveto
          11 28 32 5 36 hhcurveto
          79 39 -18 -36 -19 -16 -9 -19 -10 -15 4 7 -20 hvcurveto
          7 -21 -17 3 -13 hhcurveto
          -27 -33 -13 -35 -35 hvcurveto
          -17 -17 -15 -21 -12 -25 18 -1 rcurveline
          85 hlineto
          39 1 24 -5 9 -10 rrcurveto
          4 -5 2 -7 -9 vvcurveto
          -20 -10 -11 -20 -2 vhcurveto
          -77 -59 1 1 -43 hvcurveto
          endchar
        </CharString>
        <CharString name="F">
          -95 307 310 rmoveto
          28 11 18 28 16 -16 16 -14 hvcurveto
          -204 184 hlineto
          9 callsubr
          -25 4 -25 -2 rrcurveto
          -18 -3 -15 -26 -14 vvcurveto
          -32 14 -13 23 3 vhcurveto
          5 -77 -5 -424 6 -29 rrcurveto
          -29 4 15 19 callgsubr
          rrcurveto
          endchar
        </CharString>
        <CharString name="G">
          10 331 664 -68 callsubr
          endchar
        </CharString>
        <CharString name="Gbreve">
          10 192 841 -95 callsubr
          139 -177 -68 callsubr
          endchar
        </CharString>
        <CharString name="Gcircumflex">
          10 286 856 -100 callgsubr
          45 -192 -68 callsubr
          endchar
        </CharString>
        <CharString name="Gcommaaccent">
          10 331 664 -68 callsubr
          -29 -704 -80 callsubr
        </CharString>
        <CharString name="Gdotaccent">
          10 283 832 -49 callgsubr
          48 -168 -68 callsubr
          endchar
        </CharString>
        <CharString name="H">
          -2 403 662 -27 callsubr
        </CharString>
        <CharString name="Hbar">
          30 482 514 rmoveto
          -1 15 -16 11 -19 -1 rrcurveto
          -2 -3 0 -2 hhcurveto
          90 vlineto
          24 -15 9 -15 -46 -1 -19 -18 vhcurveto
          -89 vlineto
          -69 -84 3 5 -68 hvcurveto
          1 79 rlineto
          21 callgsubr
          vhcurveto
          -20 0 -20 -20 vvcurveto
          -4 hlineto
          -30 4 -17 -18 -37 vvcurveto
          -18 13 -11 22 -2 vhcurveto
          4 5 -1 5 hhcurveto
          -3 -101 19 callsubr
          rlinecurve
          -21 callgsubr
          61 1 62 63 vvcurveto
          4 hlineto
          28 1 13 15 -2 40 rrcurveto
          -118 -143 rmoveto
          -47 -4 -107 4 -72 12 1 79 rcurveline
          -4 72 81 -2 70 hhcurveto
          1 -32 0 -29 1 -24 rrcurveto
          endchar
        </CharString>
        <CharString name="Hcircumflex">
          -2 237 -61 callsubr
          166 -190 -27 callsubr
        </CharString>
        <CharString name="I">
          -235 86 276 -78 callsubr
        </CharString>
        <CharString name="IJ">
          135 527 668 -26 callgsubr
          -441 -392 -78 callsubr
        </CharString>
        <CharString name="Iacute">
          -235 152 -68 callgsubr
          -66 -601 -78 callsubr
        </CharString>
        <CharString name="Ibreve">
          -235 27 -31 callgsubr
          59 -561 -78 callsubr
        </CharString>
        <CharString name="Icaron">
          -235 32 -70 callsubr
          54 -579 -78 callsubr
        </CharString>
        <CharString name="Icircumflex">
          -235 121 -61 callsubr
          -35 -576 -78 callsubr
        </CharString>
        <CharString name="Idieresis">
          -235 -15 -58 callgsubr
          -124 -532 -78 callsubr
        </CharString>
        <CharString name="Idotaccent">
          -235 118 -7 callsubr
          -32 -552 -78 callsubr
        </CharString>
        <CharString name="Idotbelow">
          -235 86 276 -80 callgsubr
          31 -658 -83 callgsubr
        </CharString>
        <CharString name="Igrave">
          -235 82 -51 callsubr
          4 -594 -78 callsubr
        </CharString>
        <CharString name="Ihookabove">
          -235 118 -53 callgsubr
          -32 -583 -78 callsubr
        </CharString>
        <CharString name="Imacron">
          -235 244 -30 callgsubr
          -158 -522 -78 callsubr
        </CharString>
        <CharString name="Iogonek">
          -235 86 276 rmoveto
          -92 -3 -81 -6 -68 vhcurveto
          -18 -17 -16 -26 -4 -35 -43 callsubr
          45 42 16 11 19 hvcurveto
          4 5 2 5 1 5 rrcurveto
          -65 callsubr
          endchar
        </CharString>
        <CharString name="Itilde">
          -235 73 -47 callsubr
          13 -554 -78 callsubr
        </CharString>
        <CharString name="J">
          -100 292 668 -26 callgsubr
          endchar
        </CharString>
        <CharString name="Jcircumflex">
          -100 273 -61 callsubr
          19 -184 -26 callgsubr
          endchar
        </CharString>
        <CharString name="K">
          -22 callgsubr
          endchar
        </CharString>
        <CharString name="Kcommaaccent">
          -22 callgsubr
          213 -153 -80 callsubr
        </CharString>
        <CharString name="L">
          -29 callsubr
          endchar
        </CharString>
        <CharString name="Lacute">
          -98 118 -68 callgsubr
          -90 -660 -6 callgsubr
        </CharString>
        <CharString name="Lcaron">
          -98 274 662 16 callgsubr
          86 68 29 callgsubr
          -246 -445 -6 callgsubr
        </CharString>
        <CharString name="Lcommaaccent">
          -29 callsubr
          164 -674 -80 callsubr
        </CharString>
        <CharString name="Ldot">
          -29 callsubr
          220 -298 1 callsubr
        </CharString>
        <CharString name="Lslash">
          126 354 rmoveto
          -26 -14 -25 -14 -25 -16 -26 -15 -12 -13 17 -27 10 -16 18 -7 20 9 47 23 rcurveline
          -1 -47 rlineto
          -45 callgsubr
          18 1 21 1 24 vhcurveto
          32 20 33 22 36 28 19 15 13 20 -19 28 -12 19 -22 0 -15 -12 -21 -17 -19 -14 -19 -13 5 82 8 86 2 51 rrcurveto
          -2 callsubr
          endchar
        </CharString>
        <CharString name="M">
          125 513 666 -24 callsubr
        </CharString>
        <CharString name="Macute">
          125 313 -68 callgsubr
          200 -211 -24 callsubr
        </CharString>
        <CharString name="N">
          62 416 143 -70 callgsubr
          endchar
        </CharString>
        <CharString name="Nacute">
          62 300 -68 callgsubr
          116 -734 -70 callgsubr
          endchar
        </CharString>
        <CharString name="Ncaron">
          62 180 -70 callsubr
          236 -712 -70 callgsubr
          endchar
        </CharString>
        <CharString name="Ncommaaccent">
          62 416 143 -70 callgsubr
          -116 -597 -80 callsubr
        </CharString>
        <CharString name="Ntilde">
          62 221 -47 callsubr
          195 -687 -70 callgsubr
          endchar
        </CharString>
        <CharString name="O">
          86 306 665 -101 callsubr
        </CharString>
        <CharString name="OE">
          305 549 571 rmoveto
          -13 -26 2 4 -38 hvcurveto
          -97 1 -66 2 -35 vhcurveto
          -2 81 54 -1 27 hhcurveto
          26 -5 13 -11 -17 vvcurveto
          -17 -18 -21 -23 -5 vhcurveto
          -126 5 rlineto
          -33 hlineto
          6 -177 rlineto
          -23 0 -17 -1 -11 vhcurveto
          192 3 rlineto
          23 -3 11 -10 -15 vvcurveto
          -21 -21 -23 -25 -7 vhcurveto
          -193 hlineto
          -59 -1 -21 21 55 vvcurveto
          -60 -40 -29 -15 -68 hhcurveto
          -34 -28 8 15 -23 hvcurveto
          -79 52 -39 136 125 vvcurveto
          63 2 42 4 21 vhcurveto
          7 42 6 31 12 22 6 11 7 11 8 12 rrcurveto
          37 25 57 32 87 hhcurveto
          74 44 -18 -36 13 hvcurveto
          7 vlineto
          29 15 8 20 6 vhcurveto
          3 10 14 1 19 hhcurveto
          18 19 0 -1 20 hvcurveto
          40 -2 60 -4 45 -1 rrcurveto
          28 -6 14 -12 -17 vvcurveto
          -31 -43 -16 -85 vhcurveto
          -229 -243 rmoveto
          83 -5 57 -10 31 vhcurveto
          -10 31 -9 20 -8 9 -23 15 -18 9 -13 1 rrcurveto
          -95 -48 -71 -142 -93 24 -76 20 -40 hvcurveto
          -41 19 29 -29 33 hhcurveto
          76 38 79 157 hvcurveto
          endchar
        </CharString>
        <CharString name="Oacute">
          86 326 -68 callgsubr
          -20 -212 -101 callsubr
        </CharString>
        <CharString name="Obreve">
          86 201 -31 callgsubr
          105 -172 -101 callsubr
        </CharString>
        <CharString name="Ocaron">
          86 206 -70 callsubr
          100 -190 -101 callsubr
        </CharString>
        <CharString name="Ocircumflex">
          86 295 852 -82 callgsubr
        </CharString>
        <CharString name="Ocircumflexacute">
          86 487 983 -98 callgsubr
          -192 -131 -82 callgsubr
        </CharString>
        <CharString name="Ocircumflexdotbelow">
          86 295 -61 callsubr
          11 -187 -35 callsubr
        </CharString>
        <CharString name="Ocircumflexgrave">
          86 364 954 -95 callgsubr
          -69 -102 -82 callgsubr
        </CharString>
        <CharString name="Ocircumflexhookabove">
          86 403 984 -96 callgsubr
          -108 -132 -82 callgsubr
        </CharString>
        <CharString name="Ocircumflextilde">
          86 249 982 -93 callgsubr
          46 -130 -82 callgsubr
        </CharString>
        <CharString name="Odieresis">
          86 159 -58 callgsubr
          -78 -143 -101 callsubr
        </CharString>
        <CharString name="Odotbelow">
          86 306 665 -35 callsubr
        </CharString>
        <CharString name="Ograve">
          86 256 -51 callsubr
          50 -205 -101 callsubr
        </CharString>
        <CharString name="Ohookabove">
          86 292 -53 callgsubr
          14 -194 -101 callsubr
        </CharString>
        <CharString name="Ohorn">
          86 606 624 -88 callgsubr
          endchar
        </CharString>
        <CharString name="Ohornacute">
          86 252 708 -26 callsubr
          354 -84 -88 callgsubr
          endchar
        </CharString>
        <CharString name="Ohorndotbelow">
          86 606 624 -88 callgsubr
          -132 -260 -83 callgsubr
        </CharString>
        <CharString name="Ohorngrave">
          86 316 704 -23 callsubr
          290 -80 -88 callgsubr
          endchar
        </CharString>
        <CharString name="Ohornhookabove">
          86 234 786 -40 callsubr
          372 -162 -88 callgsubr
          endchar
        </CharString>
        <CharString name="Ohorntilde">
          86 191 716 -22 callsubr
          415 -92 -88 callgsubr
          endchar
        </CharString>
        <CharString name="Ohungarumlaut">
          86 197 713 -69 callsubr
          -49 -203 -101 callsubr
        </CharString>
        <CharString name="Omacron">
          86 418 -30 callgsubr
          -112 -133 -101 callsubr
        </CharString>
        <CharString name="Omega">
          77 485 100 rmoveto
          18 -5 9 -13 -21 vvcurveto
          -21 -3 -13 -6 -5 vhcurveto
          -13 -12 -4 -4 -15 -1 -16 -1 -4 -1 -17 1 rrcurveto
          -16 hlineto
          -65 -29 14 57 56 9 53 9 32 hvcurveto
          4 15 5 20 7 23 rrcurveto
          13 46 8 25 45 vvcurveto
          45 -6 41 -15 39 vhcurveto
          39 -16 -29 26 -38 hhcurveto
          -38 -49 -15 -59 -21 hvcurveto
          -11 -29 -5 -30 -29 vvcurveto
          -59 5 -30 37 -111 vhcurveto
          18 -55 10 -35 3 -14 rrcurveto
          3 -15 1 -17 -21 vvcurveto
          -42 -23 -18 -53 -23 -25 2 3 -28 vhcurveto
          -17 1 -16 25 26 vvcurveto
          26 13 20 23 3 vhcurveto
          78 -7 -3 25 -11 31 -18 39 rlinecurve
          -19 39 -11 23 -3 8 rrcurveto
          -17 45 -9 54 63 vvcurveto
          62 15 54 29 46 vhcurveto
          47 29 58 29 72 hhcurveto
          72 55 -35 -52 29 hvcurveto
          29 -51 14 -57 -61 vvcurveto
          -60 -31 -73 -26 -71 vhcurveto
          -13 -35 -7 -33 -31 vvcurveto
          -5 4 -2 7 7 5 0 1 3 vhcurveto
          4 hlineto
          endchar
        </CharString>
        <CharString name="Oslash">
          98 439 695 -39 callgsubr
        </CharString>
        <CharString name="Oslashacute">
          98 318 -68 callgsubr
          121 -182 -39 callgsubr
        </CharString>
        <CharString name="Otilde">
          86 247 -47 callsubr
          59 -165 -101 callsubr
        </CharString>
        <CharString name="P">
          11 202 661 rmoveto
          -68 -71 -5 -48 -8 hvcurveto
          -11 -68 11 -409 2 -29 12 callsubr
          132 -23 158 -4 224 vvcurveto
          112 -109 48 -114 vhcurveto
          -1 -75 rmoveto
          65 76 -31 -55 -150 -98 15 -110 14 hvcurveto
          -3 33 -1 100 4 65 rrcurveto
          5 11 23 4 33 hhcurveto
          endchar
        </CharString>
        <CharString name="Q">
          185 307 -4 rmoveto
          -104 8 -84 70 -40 93 rrcurveto
          -20 46 -10 47 47 vvcurveto
          94 25 81 44 68 vhcurveto
          68 43 73 47 86 hhcurveto
          86 78 -43 -65 47 hvcurveto
          49 -69 25 -79 -90 vvcurveto
          -64 -13 -57 -47 -71 vhcurveto
          1 -2 11 -11 19 -20 rrcurveto
          19 -21 10 -15 -10 vvcurveto
          -20 -13 -29 -27 -28 -20 26 8 30 callgsubr
          -13 15 rcurveline
          -47 -40 -58 -24 -69 -7 rrcurveto
          58 208 rmoveto
          -21 24 -10 18 13 vvcurveto
          24 22 18 19 19 17 -13 -21 20 vhcurveto
          19 -21 13 -17 19 -25 9 -13 6 -8 3 -3 rrcurveto
          21 38 11 42 47 vvcurveto
          93 -33 89 -71 56 vhcurveto
          28 -35 -41 14 -47 hhcurveto
          -63 -46 -33 -51 -27 hvcurveto
          -25 -50 -12 -57 -64 vvcurveto
          -64 14 -57 28 -50 vhcurveto
          28 -51 52 -34 65 -4 56 5 32 8 37 28 rrcurveto
          endchar
        </CharString>
        <CharString name="R">
          -16 113 235 -47 callgsubr
          8 1 -42 2 -218 -41 callgsubr
          endchar
        </CharString>
        <CharString name="Racute">
          -16 187 708 -26 callsubr
          -74 -473 -59 callgsubr
          endchar
        </CharString>
        <CharString name="Rcaron">
          -16 224 719 rmoveto
          -85 callsubr
          -57 callsubr
          rrcurveto
          -111 -484 -59 callgsubr
          endchar
        </CharString>
        <CharString name="Rcommaaccent">
          -16 113 235 -59 callgsubr
          213 -574 -80 callsubr
        </CharString>
        <CharString name="S">
          -11 266 662 -71 callsubr
          endchar
        </CharString>
        <CharString name="Sacute">
          -11 264 -68 callgsubr
          2 -215 -71 callsubr
          endchar
        </CharString>
        <CharString name="Scaron">
          -11 144 -70 callsubr
          122 -193 -71 callsubr
          endchar
        </CharString>
        <CharString name="Scedilla">
          -11 363 34 rmoveto
          -46 callsubr
          -50 callsubr
          26 -14 45 -20 47 -7 rrcurveto
          -1 -7 0 -9 -8 -13 callsubr
          -10 -3 -3 3 2 27 41 2 33 9 28 22 rrcurveto
          endchar
        </CharString>
        <CharString name="Scircumflex">
          -11 233 -61 callsubr
          33 -190 -71 callsubr
          endchar
        </CharString>
        <CharString name="Scommaaccent">
          -11 266 662 -71 callsubr
          18 -701 -80 callsubr
        </CharString>
        <CharString name="T">
          -2 273 387 -33 callsubr
          endchar
        </CharString>
        <CharString name="Tbar">
          -2 273 377 rmoveto
          26 1 29 1 34 3 -25 callsubr
          -34 -3 -29 -1 -29 -1 1 38 1 36 3 40 -41 callsubr
          -3 -15 -1 -43 -1 -54 rrcurveto
          -24 -25 2 1 -28 hvcurveto
          -24 callgsubr
          34 -2 29 -1 27 -1 rrcurveto
          -138 2 -166 4 -45 vhcurveto
          7 callsubr
          endchar
        </CharString>
        <CharString name="Tcaron">
          -2 157 -70 callsubr
          116 -468 -33 callsubr
          endchar
        </CharString>
        <CharString name="Tcedilla">
          -2 273 387 -42 callgsubr
          1 -10 3 -8 5 -5 rrcurveto
          -1 -7 0 -8 -7 -13 callsubr
          rrcurveto
          -10 -3 -2 3 23 vvcurveto
          7 5 5 10 18 vvcurveto
          endchar
        </CharString>
        <CharString name="Thorn">
          22 60 632 rmoveto
          23 7 15 12 23 hhcurveto
          12 11 -8 -15 9 hvcurveto
          -56 vlineto
          3 18 19 1 21 hhcurveto
          40 37 -6 -11 39 hvcurveto
          75 -23 57 -55 -95 vvcurveto
          -121 -85 -61 -171 -22 -17 0 1 -11 vhcurveto
          -174 vlineto
          -25 -4 -25 -22 -19 hhcurveto
          -19 -10 12 23 hvcurveto
          77 265 rmoveto
          -3 43 28 -1 12 hhcurveto
          64 71 19 80 16 hvcurveto
          91 -11 -88 28 -97 hhcurveto
          -17 -13 -1 -1 -8 hvcurveto
          endchar
        </CharString>
        <CharString name="U">
          80 431 313 -100 callsubr
        </CharString>
        <CharString name="Uacute">
          80 305 -68 callgsubr
          126 -564 -100 callsubr
        </CharString>
        <CharString name="Ubreve">
          80 180 -31 callgsubr
          251 -524 -100 callsubr
        </CharString>
        <CharString name="Ucaron">
          80 185 -70 callsubr
          246 -542 -100 callsubr
        </CharString>
        <CharString name="Ucircumflex">
          80 274 -61 callsubr
          157 -539 -100 callsubr
        </CharString>
        <CharString name="Udieresis">
          80 138 -58 callgsubr
          68 -495 -100 callsubr
        </CharString>
        <CharString name="Udotbelow">
          80 431 313 -99 callgsubr
          -142 -485 rmoveto
          -33 -3 -9 -16 -5 -28 rrcurveto
          -32 3 18 -20 27 hhcurveto
          19 27 28 23 23 -23 27 -24 -2 hvcurveto
          endchar
        </CharString>
        <CharString name="Ugrave">
          80 235 -51 callsubr
          196 -557 -100 callsubr
        </CharString>
        <CharString name="Uhookabove">
          80 271 -53 callgsubr
          160 -546 -100 callsubr
        </CharString>
        <CharString name="Uhorn">
          80 431 313 -84 callsubr
        </CharString>
        <CharString name="Uhornacute">
          80 231 708 -26 callsubr
          200 -395 -84 callsubr
        </CharString>
        <CharString name="Uhorndotbelow">
          80 431 313 -83 callsubr
          -142 -485 rmoveto
          -33 -3 -9 -16 -5 -28 rrcurveto
          -32 3 18 -20 27 hhcurveto
          19 27 28 23 23 -23 27 -24 -2 hvcurveto
          endchar
        </CharString>
        <CharString name="Uhorngrave">
          80 295 704 -23 callsubr
          136 -391 -84 callsubr
        </CharString>
        <CharString name="Uhornhookabove">
          80 213 786 -40 callsubr
          218 -473 -84 callsubr
        </CharString>
        <CharString name="Uhorntilde">
          80 170 716 -22 callsubr
          261 -403 -84 callsubr
        </CharString>
        <CharString name="Uhungarumlaut">
          80 176 713 -69 callsubr
          97 -555 -100 callsubr
        </CharString>
        <CharString name="Umacron">
          80 397 -30 callgsubr
          34 -485 -100 callsubr
        </CharString>
        <CharString name="Uogonek">
          80 431 313 -99 callsubr
          36 -70 59 -58 58 -19 -9 -15 -6 -17 -3 -21 -43 callsubr
          35 25 17 16 15 hvcurveto
          53 14 52 40 32 60 -60 callsubr
          74 -6 65 -11 56 vhcurveto
          -63 callgsubr
          endchar
        </CharString>
        <CharString name="Uring">
          80 277 860 -73 callsubr
          156 -497 -100 callsubr
        </CharString>
        <CharString name="Utilde">
          80 226 -47 callsubr
          205 -517 -100 callsubr
        </CharString>
        <CharString name="V">
          92 211 238 rmoveto
          -57 130 -73 160 -11 25 rrcurveto
          -6 12 -3 11 10 vvcurveto
          20 24 26 25 13 11 -6 -13 9 vhcurveto
          48 -110 67 -155 48 -113 29 -71 rlinecurve
          18 70 15 63 12 48 19 71 rlinecurve
          127 35 48 119 51 hhcurveto
          16 13 -10 -16 -8 -4 -11 -8 -14 hvcurveto
          -8 -15 -11 -28 -13 -41 -13 -41 -9 -26 -4 -9 -8 -27 -16 -59 -25 -90 -25 -91 -23 -78 -23 -67 rrcurveto
          -21 -7 -20 -16 -23 hhcurveto
          -12 -9 8 17 -6 hvcurveto
          -27 81 -28 73 -29 65 rrcurveto
          endchar
        </CharString>
        <CharString name="W">
          146 486 319 -91 callsubr
        </CharString>
        <CharString name="Wacute">
          146 342 -68 callgsubr
          144 -558 -91 callsubr
        </CharString>
        <CharString name="Wcircumflex">
          146 311 -61 callsubr
          175 -533 -91 callsubr
        </CharString>
        <CharString name="Wdieresis">
          146 175 -58 callgsubr
          86 -489 -91 callsubr
        </CharString>
        <CharString name="Wgrave">
          146 272 -51 callsubr
          214 -551 -91 callsubr
        </CharString>
        <CharString name="X">
          131 63 -5 rmoveto
          -23 -11 10 19 11 3 11 5 10 hvcurveto
          11 13 29 32 45 50 45 49 39 46 34 42 -85 133 -58 92 -30 52 rrcurveto
          -3 7 -2 8 10 vvcurveto
          20 22 26 26 13 9 -6 -11 7 vhcurveto
          59 -97 53 -86 49 -76 69 81 66 91 62 100 rrcurveto
          20 11 16 10 21 hhcurveto
          16 13 -11 -15 -8 -2 -9 -4 -11 hvcurveto
          -63 -104 -53 -72 -108 -137 58 -93 53 -74 48 -56 rrcurveto
          5 -10 3 -10 -9 vvcurveto
          -20 -23 -25 -24 -12 -10 3 7 -9 vhcurveto
          -30 38 -50 72 -70 106 -40 -47 -64 -73 -87 -97 rrcurveto
          -8 -11 -10 -4 -8 hhcurveto
          endchar
        </CharString>
        <CharString name="Y">
          -28 59 665 -86 callsubr
        </CharString>
        <CharString name="Yacute">
          -28 255 -68 callgsubr
          -196 -212 -86 callsubr
        </CharString>
        <CharString name="Ycircumflex">
          -28 224 -61 callsubr
          -165 -187 -86 callsubr
        </CharString>
        <CharString name="Ydieresis">
          -28 88 -58 callgsubr
          -254 -143 -86 callsubr
        </CharString>
        <CharString name="Ydotbelow">
          -28 59 665 -90 callgsubr
          159 -703 -83 callgsubr
        </CharString>
        <CharString name="Ygrave">
          -28 185 -51 callsubr
          -126 -205 -86 callsubr
        </CharString>
        <CharString name="Yhookabove">
          -28 221 -53 callgsubr
          -162 -194 -86 callsubr
        </CharString>
        <CharString name="Ytilde">
          -28 176 -47 callsubr
          -117 -165 -86 callsubr
        </CharString>
        <CharString name="Z">
          37 84 661 -72 callsubr
        </CharString>
        <CharString name="Zacute">
          37 297 -68 callgsubr
          -213 -216 -72 callsubr
        </CharString>
        <CharString name="Zcaron">
          37 177 -70 callsubr
          -93 -194 -72 callsubr
        </CharString>
        <CharString name="Zdotaccent">
          37 263 -7 callsubr
          -179 -167 -72 callsubr
        </CharString>
        <CharString name="a">
          -30 320 28 -104 callsubr
        </CharString>
        <CharString name="aacute">
          -30 258 678 -98 callgsubr
          62 -650 -104 callsubr
        </CharString>
        <CharString name="abreve">
          -30 133 638 -82 callsubr
        </CharString>
        <CharString name="abreveacute">
          -30 260 815 -98 callgsubr
          -127 -177 -82 callsubr
        </CharString>
        <CharString name="abrevedotbelow">
          -30 133 638 -95 callsubr
          187 -610 -56 callgsubr
        </CharString>
        <CharString name="abrevegrave">
          -30 190 808 -95 callgsubr
          -57 -170 -82 callsubr
        </CharString>
        <CharString name="abrevehookabove">
          -30 226 797 -96 callgsubr
          -93 -159 -82 callsubr
        </CharString>
        <CharString name="abrevetilde">
          -30 181 768 -93 callgsubr
          -48 -130 -82 callsubr
        </CharString>
        <CharString name="acaron">
          -30 138 656 -94 callgsubr
          182 -628 -104 callsubr
        </CharString>
        <CharString name="acircumflex">
          -30 227 653 -79 callgsubr
        </CharString>
        <CharString name="acircumflexacute">
          -30 419 784 -98 callgsubr
          -192 -131 -79 callgsubr
        </CharString>
        <CharString name="acircumflexdotbelow">
          -30 227 653 -100 callgsubr
          93 -625 -56 callgsubr
        </CharString>
        <CharString name="acircumflexgrave">
          -30 296 755 -95 callgsubr
          -69 -102 -79 callgsubr
        </CharString>
        <CharString name="acircumflexhookabove">
          -30 335 785 -96 callgsubr
          -108 -132 -79 callgsubr
        </CharString>
        <CharString name="acircumflextilde">
          -30 181 783 -93 callgsubr
          46 -130 -79 callgsubr
        </CharString>
        <CharString name="acute">
          4 callgsubr
        </CharString>
        <CharString name="acutecomb">
          -470 -364 -75 callsubr
          endchar
        </CharString>
        <CharString name="adieresis">
          -30 91 552 -86 callgsubr
          4 -581 -104 callsubr
        </CharString>
        <CharString name="adotbelow">
          -30 320 28 -56 callgsubr
        </CharString>
        <CharString name="ae">
          130 324 460 rmoveto
          -50 -40 -13 -51 -49 hvcurveto
          -44 -44 -55 -78 -20 -152 rrcurveto
          -5 -38 -3 -32 -26 vvcurveto
          -16 11 -10 21 17 15 10 10 1 vhcurveto
          8 50 11 87 14 47 26 -3 51 2 44 1 rrcurveto
          -176 vlineto
          -18 1 18 -11 35 hhcurveto
          159 -2 rlineto
          28 11 13 32 17 -10 9 -20 2 hvcurveto
          -142 -4 -4 138 38 -1 40 2 38 -1 rlinecurve
          18 4 17 17 15 vvcurveto
          29 -47 2 -29 vhcurveto
          -26 -26 1 -25 hhcurveto
          -2 12 -1 25 83 vvcurveto
          39 40 -3 1 28 hvcurveto
          44 hlineto
          23 2 15 20 16 vvcurveto
          16 -9 13 -24 vhcurveto
          -231 -68 rmoveto
          2 -27 2 -79 -13 vvcurveto
          -21 -3 -60 3 -19 2 30 56 51 55 15 6 rrcurveto
          endchar
        </CharString>
        <CharString name="agrave">
          -30 188 671 -95 callgsubr
          132 -643 -104 callsubr
        </CharString>
        <CharString name="ahookabove">
          -30 224 660 -96 callgsubr
          96 -632 -104 callsubr
        </CharString>
        <CharString name="amacron">
          -30 350 599 -71 callgsubr
          -30 -571 -104 callsubr
        </CharString>
        <CharString name="ampersand">
          60 373 209 rmoveto
          18 29 13 24 4 21 rrcurveto
          20 5 13 10 23 hhcurveto
          22 17 -14 -21 -26 -26 -44 -52 -63 hvcurveto
          22 -42 15 -35 9 -27 rrcurveto
          -21 -3 -20 -16 -15 hhcurveto
          -14 -10 6 6 -6 hvcurveto
          -6 9 -5 12 -5 15 -5 15 -6 12 -3 7 rrcurveto
          -64 -60 -33 -20 -56 hhcurveto
          -55 -60 50 61 -28 hvcurveto
          -15 30 -6 28 26 vvcurveto
          97 59 45 75 43 vhcurveto
          -32 58 -15 48 41 vvcurveto
          82 59 50 71 69 57 -71 -71 -71 -41 -39 -77 -48 vhcurveto
          8 -12 12 -17 16 -22 17 -23 12 -16 7 -11 rrcurveto
          -80 325 rmoveto
          -35 -18 -28 -56 -1 hvcurveto
          3 -27 9 -29 17 -30 rrcurveto
          48 29 22 29 27 vvcurveto
          27 -5 21 -10 15 vhcurveto
          15 -9 -11 7 -10 hhcurveto
          -49 -262 rmoveto
          -18 -13 -15 -11 -12 -11 rrcurveto
          -31 -27 -14 -29 -31 vvcurveto
          -35 19 -79 66 33 40 21 43 42 vhcurveto
          -8 13 -17 25 -23 35 -25 35 -18 29 -11 21 rrcurveto
          endchar
        </CharString>
        <CharString name="ampersand.smcp">
          73 286 263 rmoveto
          7 -11 10 -14 12 -18 11 -18 8 -12 4 -5 11 16 7 14 3 11 rrcurveto
          23 5 13 11 21 hhcurveto
          20 16 -13 -21 -21 -19 -35 -39 -49 hvcurveto
          12 -23 11 -25 10 -29 rrcurveto
          -24 -3 -17 -14 -12 hhcurveto
          -13 -5 3 2 -4 hvcurveto
          -5 2 -5 6 -3 4 -3 4 -3 10 -2 5 -2 5 -5 13 -3 5 rrcurveto
          -48 -47 -27 -13 -36 hhcurveto
          -76 -64 90 69 69 40 39 65 36 hvcurveto
          -24 43 -12 35 28 vvcurveto
          55 31 60 69 68 47 -57 -58 -58 -33 -32 -57 -36 vhcurveto
          -53 111 rmoveto
          3 -23 6 -20 11 -17 rrcurveto
          33 20 14 15 29 vvcurveto
          29 -16 23 -18 -18 -14 -20 -36 -1 vhcurveto
          -4 -148 rmoveto
          -41 -31 -21 -26 -23 vvcurveto
          -55 31 -30 31 vhcurveto
          25 3 27 14 27 25 -9 16 -12 20 -17 24 rrcurveto
          endchar
        </CharString>
        <CharString name="aogonek">
          -30 319 31 rmoveto
          -19 -17 -16 -27 -5 -36 5 callsubr
          5 -1 6 -3 5 vhcurveto
          -24 106 7 -29 -22 78 -98 callsubr
          -121 79 rmoveto
          14 45 18 42 22 38 -62 callsubr
          endchar
        </CharString>
        <CharString name="approxequal">
          101 455 431 rmoveto
          24 12 -11 -23 -46 -73 -34 -37 -32 -31 10 21 -31 hvcurveto
          20 -31 -24 10 -17 hhcurveto
          -18 -16 -10 -20 -14 hvcurveto
          -17 -7 -13 -9 -19 hhcurveto
          -16 -14 10 16 60 52 30 47 45 51 -18 -37 56 hvcurveto
          -3 5 7 -2 10 hhcurveto
          20 21 22 18 18 hvcurveto
          9 9 8 4 8 hhcurveto
          -147 -264 rmoveto
          20 -28 -25 24 -32 hhcurveto
          -33 -14 -24 -20 -15 hvcurveto
          -10 -8 -9 -5 -11 hhcurveto
          -21 -17 15 26 26 35 34 40 16 hvcurveto
          7 19 18 4 17 hhcurveto
          32 26 -11 -22 21 hvcurveto
          -23 22 19 -11 16 hhcurveto
          26 20 10 21 15 hvcurveto
          21 14 16 10 19 hhcurveto
          19 9 -7 -14 -39 -53 -33 -38 -17 hvcurveto
          -9 -19 -18 -4 -17 hhcurveto
          -17 -15 5 10 -13 hvcurveto
          endchar
        </CharString>
        <CharString name="aring">
          -30 230 661 -37 callsubr
        </CharString>
        <CharString name="aringacute">
          -30 254 844 -98 callgsubr
          -24 -183 -37 callsubr
        </CharString>
        <CharString name="aringbelow">
          -30 320 28 -106 callgsubr
          -1 -377 -73 callsubr
          endchar
        </CharString>
        <CharString name="asciicircum">
          -100 180 653 rmoveto
          -4 -4 -61 -61 -23 hhcurveto
          -22 1 -12 18 21 vvcurveto
          20 1 96 73 29 hhcurveto
          29 -1 91 -68 -1 -33 rrcurveto
          -20 -1 -21 -13 -12 hhcurveto
          -13 1 -52 37 -24 29 rrcurveto
          endchar
        </CharString>
        <CharString name="asciitilde">
          59 184 469 rmoveto
          -17 -18 -10 -20 -19 hvcurveto
          -21 -19 -19 -10 -18 hhcurveto
          -17 -31 14 23 44 103 64 47 23 31 -10 -21 38 hvcurveto
          38 -21 26 -12 15 -5 rrcurveto
          11 19 11 21 26 hvcurveto
          21 26 19 11 13 hhcurveto
          24 14 -21 -13 -44 -105 -62 -43 -43 -33 15 16 -23 hvcurveto
          20 -29 -23 10 -16 hhcurveto
          endchar
        </CharString>
        <CharString name="asterisk">
          -66 242 624 rmoveto
          24 14 25 12 26 11 rrcurveto
          5 hlineto
          21 15 -15 -16 -16 -23 -20 -23 -12 hvcurveto
          -11 -7 -14 -7 -16 -9 -16 -9 -12 -6 -7 -5 11 -9 15 -8 21 -9 rrcurveto
          41 -18 26 -15 -19 vvcurveto
          -20 -13 -14 -23 -23 -29 12 25 -35 vhcurveto
          -1 -3 0 -5 -6 vvcurveto
          -1 -7 0 -5 -3 vvcurveto
          -1 -3 0 -5 -5 vvcurveto
          -1 -11 -1 -3 -3 -8 rrcurveto
          -14 -4 -9 -7 -15 hhcurveto
          -17 -14 13 23 -4 hvcurveto
          24 1 24 3 24 vhcurveto
          -25 -36 -25 -13 -13 hhcurveto
          -14 -10 5 11 -7 hvcurveto
          -3 5 -2 6 6 vvcurveto
          12 14 14 12 9 vhcurveto
          12 8 30 17 9 5 -31 29 -23 22 -17 13 rrcurveto
          -9 9 -4 9 10 vvcurveto
          19 16 15 15 15 10 -7 -13 16 vhcurveto
          7 -7 7 -6 6 -6 37 -39 rcurveline
          1 7 0 10 13 vvcurveto
          52 3 3 42 34 hhcurveto
          17 11 -10 -20 6 hvcurveto
          endchar
        </CharString>
        <CharString name="at">
          80 288 145 rmoveto
          -1 -7 -10 0 -14 hhcurveto
          -48 -32 10 19 -16 hvcurveto
          -10 13 -5 14 16 vvcurveto
          32 29 46 41 25 vhcurveto
          13 21 18 6 15 hhcurveto
          15 14 -2 -4 12 hvcurveto
          8 16 6 16 19 9 -6 -11 -25 -10 -67 -1 -9 vhcurveto
          39 21 25 37 37 vvcurveto
          19 -7 15 -14 11 vhcurveto
          19 -23 -33 10 -41 hhcurveto
          -84 -65 -43 -56 -32 hvcurveto
          -16 -29 -8 -31 -33 vvcurveto
          -68 56 -60 111 68 61 36 36 25 vhcurveto
          18 13 12 9 11 hhcurveto
          23 11 -13 -13 -7 0 -4 -1 -2 hvcurveto
          -87 -21 -87 -48 -91 hhcurveto
          -92 -76 30 65 -51 hvcurveto
          -25 33 -13 39 45 vvcurveto
          91 64 86 88 44 vhcurveto
          22 43 43 11 43 hhcurveto
          43 38 -10 -21 35 hvcurveto
          36 -21 24 -42 -52 vvcurveto
          -52 -27 -48 -43 -32 vhcurveto
          -21 -16 -24 -11 -25 -7 -3 -24 -12 -12 -8 -2 rrcurveto
          -1 -5 -5 -1 -6 hhcurveto
          -17 -8 9 17 hvcurveto
          5 62 rmoveto
          5 27 2 21 16 vvcurveto
          10 -6 5 -12 -25 -19 -8 -23 -15 vhcurveto
          -8 -11 -4 -14 -16 vvcurveto
          -5 9 15 -3 20 hhcurveto
          19 13 0 1 6 hvcurveto
          endchar
        </CharString>
        <CharString name="atilde">
          -30 179 631 -93 callgsubr
          141 -603 -104 callsubr
        </CharString>
        <CharString name="b">
          -70 156 463 rmoveto
          -103 -13 -55 -109 hvcurveto
          -183 4 -93 -23 vvcurveto
          41 194 -1 35 33 hvcurveto
          30 29 15 29 50 vvcurveto
          49 -32 58 -49 11 vhcurveto
          21 22 10 29 36 vvcurveto
          70 -68 46 -83 vhcurveto
          -46 -113 rmoveto
          31 9 19 45 44 38 -22 -33 -63 -75 -17 -61 vhcurveto
          102 -53 rmoveto
          56 27 -23 -47 -43 -32 -22 -59 -10 hvcurveto
          -43 -7 -30 0 -18 1 -2 22 -3 95 1 26 rrcurveto
          6 43 34 2 26 hhcurveto
          endchar
        </CharString>
        <CharString name="backslash">
          -50 312 -12 rmoveto
          -33 77 -46 116 -59 155 -59 155 -49 122 -38 88 rrcurveto
          -2 6 -1 6 7 vvcurveto
          12 12 12 13 15 13 -8 -15 11 vhcurveto
          39 -91 50 -123 62 -157 61 -157 39 -98 16 -39 rrcurveto
          16 -39 8 -24 -7 vvcurveto
          -15 -12 -9 -15 -18 -14 9 17 -9 vhcurveto
          endchar
        </CharString>
        <CharString name="bar">
          -294 46 697 rmoveto
          23 10 21 19 20 hhcurveto
          15 9 -10 -20 5 hvcurveto
          -716 vlineto
          -25 -8 -25 -21 30 callsubr
          23 hvcurveto
          endchar
        </CharString>
        <CharString name="braceleft">
          -131 261 22 rmoveto
          26 1 13 -9 -19 vvcurveto
          -19 -20 -24 -21 -5 vhcurveto
          -73 -46 22 43 -18 hvcurveto
          -5 11 -2 12 12 vvcurveto
          11 5 21 9 31 vhcurveto
          9 31 5 25 21 vvcurveto
          40 -22 42 -21 23 vhcurveto
          -29 31 -15 22 15 vvcurveto
          15 11 18 23 21 vhcurveto
          9 9 10 11 10 11 rrcurveto
          22 26 11 33 40 vvcurveto
          13 -3 23 -7 33 vhcurveto
          -7 33 -3 19 3 vvcurveto
          7 2 11 5 10 vhcurveto
          5 10 7 8 11 8 5 4 7 3 7 3 rrcurveto
          5 15 15 3 17 hhcurveto
          18 hlineto
          25 41 -1 -32 -30 -18 -15 -37 -7 -10 1 2 -13 hvcurveto
          -8 -4 -5 -11 -11 2 -17 5 -23 hvcurveto
          4 -23 2 -19 -13 vvcurveto
          -65 -17 -51 -63 -63 vhcurveto
          5 -7 26 -33 4 -5 28 -40 5 -29 4 -35 rrcurveto
          -9 -4 -22 -9 -37 vhcurveto
          -9 -37 -5 -27 -17 vvcurveto
          -33 26 -11 21 vhcurveto
          endchar
        </CharString>
        <CharString name="braceright">
          -142 116 22 rmoveto
          23 24 11 33 17 -4 26 -8 36 hvcurveto
          -9 35 -4 23 11 vvcurveto
          21 7 28 4 13 vhcurveto
          4 12 16 25 4 6 2 3 6 7 10 12 9 12 6 8 3 3 rrcurveto
          -63 61 -18 48 80 vvcurveto
          7 2 15 5 23 vhcurveto
          5 23 2 17 11 vvcurveto
          11 -3 5 -7 vhcurveto
          -31 -3 rlineto
          -38 -19 15 30 hvcurveto
          22 4 25 11 47 hhcurveto
          1 hlineto
          72 31 -34 -41 -1 -3 -18 -7 -33 hvcurveto
          -7 -33 -3 -25 -17 vvcurveto
          -33 15 -38 19 -22 vhcurveto
          9 -11 10 -11 9 -9 rrcurveto
          23 -21 11 -17 -11 vvcurveto
          -24 -22 -26 -21 -23 vhcurveto
          -21 -23 -21 -42 -40 vvcurveto
          -21 4 -25 9 -31 vhcurveto
          9 -31 4 -20 -10 vvcurveto
          -57 -41 -45 -103 vhcurveto
          -21 5 -20 24 21 vvcurveto
          17 14 9 29 vhcurveto
          endchar
        </CharString>
        <CharString name="bracketleft">
          -167 157 679 rmoveto
          -6 1 -6 0 -5 -1 rrcurveto
          2 -49 1 -60 -70 vvcurveto
          -140 -1 -98 -1 -107 vhcurveto
          -1 -53 0 -48 -41 vvcurveto
          1 4 9 0 13 hhcurveto
          49 25 -9 -19 -35 -32 -18 -64 -39 -25 5 11 -9 hvcurveto
          -5 6 -2 7 9 vvcurveto
          341 vlineto
          -3 85 rlineto
          304 vlineto
          48 3 29 11 63 hhcurveto
          16 hlineto
          31 54 -1 -35 -44 -42 -1 -25 hvcurveto
          endchar
        </CharString>
        <CharString name="bracketright">
          -174 145 760 rmoveto
          64 30 -11 -48 hvcurveto
          -730 vlineto
          -36 -42 -2 -40 -64 -32 17 34 20 25 10 50 13 8 0 -1 4 vhcurveto
          444 vlineto
          -1 99 0 74 1 49 -9 1 -10 1 -11 -1 rrcurveto
          -43 -3 -44 4 40 vvcurveto
          26 30 13 59 vhcurveto
          endchar
        </CharString>
        <CharString name="breve">
          -170 59 -44 callsubr
          endchar
        </CharString>
        <CharString name="brokenbar">
          -300 43 698 rmoveto
          -76 -2 -150 -46 vvcurveto
          -25 13 -9 15 21 25 12 26 6 vhcurveto
          1 282 rlineto
          21 -6 -12 9 -12 hhcurveto
          -21 -23 -20 -24 -5 hvcurveto
          -425 vmoveto
          -77 -2 -172 -47 vvcurveto
          -24 13 -9 15 21 25 18 27 6 vhcurveto
          1 290 rlineto
          22 -6 -12 8 -12 hhcurveto
          -21 -23 -13 -23 -5 hvcurveto
          endchar
        </CharString>
        <CharString name="bullet">
          -118 192 323 rmoveto
          32 -4 32 -46 -20 vvcurveto
          -51 -34 -38 -44 -45 -33 39 48 48 40 24 41 vhcurveto
          endchar
        </CharString>
        <CharString name="c">
          382 439 -65 callgsubr
        </CharString>
        <CharString name="cacute">
          271 -75 callsubr
          111 -238 -65 callgsubr
        </CharString>
        <CharString name="caron">
          -145 72 -72 callgsubr
          endchar
        </CharString>
        <CharString name="ccaron">
          151 -72 callgsubr
          231 -216 -65 callgsubr
        </CharString>
        <CharString name="ccedilla">
          382 438 rmoveto
          14 -21 callsubr
          3 3 0 4 hhcurveto
          -1 -17 rlineto
          -16 callgsubr
          30 34 10 37 15 42 18 rrcurveto
          -59 callsubr
        </CharString>
        <CharString name="ccircumflex">
          240 -63 callsubr
          142 -213 -65 callgsubr
        </CharString>
        <CharString name="cdotaccent">
          237 -13 callgsubr
          145 -189 -65 callgsubr
        </CharString>
        <CharString name="cedilla">
          -70 171 29 rmoveto
          -32 -4 -30 -31 -35 16 -18 29 hvcurveto
          -54 callgsubr
          21 callsubr
          33 rrcurveto
          21 -8 10 -15 vhcurveto
          endchar
        </CharString>
        <CharString name="cent">
          -46 275 -47 rmoveto
          -25 -3 -13 -12 -24 hhcurveto
          -21 -11 28 56 hvcurveto
          -113 -65 90 145 113 79 84 100 25 hvcurveto
          5 31 2 22 1 14 rrcurveto
          21 5 16 13 16 hhcurveto
          16 12 -12 -20 hvcurveto
          -6 vlineto
          -5 -53 rlineto
          67 -5 34 -13 -21 vvcurveto
          -24 -15 -44 -27 -7 -11 3 6 -15 vhcurveto
          -15 5 -10 4 -5 1 rrcurveto
          -3 -62 -1 -48 -33 vvcurveto
          -33 0 -28 1 -22 vhcurveto
          -50 vlineto
          7 3 8 5 10 5 rrcurveto
          10 19 24 14 20 hhcurveto
          19 11 -12 -16 -35 -53 -41 -61 -23 hvcurveto
          -69 359 rmoveto
          -52 -21 -36 -47 -80 vvcurveto
          -80 19 -50 68 -5 vhcurveto
          -1 29 -1 41 53 vvcurveto
          53 1 53 2 54 vhcurveto
          endchar
        </CharString>
        <CharString name="circumflex">
          -145 160 -63 callsubr
          endchar
        </CharString>
        <CharString name="colon">
          -238 168 359 rmoveto
          -29 -26 -30 -27 -27 -29 15 30 30 19 44 37 20 29 -20 -40 4 vhcurveto
          -24 -251 rmoveto
          8 -5 16 -28 -24 vvcurveto
          -25 -27 -25 -28 -28 -20 23 32 38 20 19 39 6 7 -2 -3 7 vhcurveto
          endchar
        </CharString>
        <CharString name="comma">
          -268 -1 callgsubr
        </CharString>
        <CharString name="commaaccentcomb">
          -470 161 -39 -80 callsubr
        </CharString>
        <CharString name="copyright">
          289 379 667 rmoveto
          87 -4 59 -10 33 -17 18 -9 16 -11 15 -15 rrcurveto
          60 -59 30 -88 -119 vvcurveto
          -201 -106 -130 -196 -5 vhcurveto
          -137 -155 59 169 -45 hvcurveto
          -9 32 -5 35 38 vvcurveto
          117 70 106 102 60 vhcurveto
          51 30 54 17 58 5 rrcurveto
          -71 vmoveto
          -147 -15 -111 -116 -140 vvcurveto
          -140 114 -109 152 151 82 92 161 129 -41 82 -81 35 vhcurveto
          -33 13 -39 7 -47 1 rrcurveto
          -87 -253 rmoveto
          -85 24 -42 48 2 17 7 14 32 vhcurveto
          13 31 24 7 16 hhcurveto
          19 10 -10 -19 -35 -43 -32 -44 -14 hvcurveto
          -7 -23 -20 -4 -17 hhcurveto
          -84 -69 80 97 79 24 62 49 45 hvcurveto
          24 26 30 12 35 hhcurveto
          28 50 -17 -32 38 hvcurveto
          19 -16 9 -15 -14 vvcurveto
          -29 -23 -16 -19 -14 -17 10 21 -20 vhcurveto
          -27 18 -22 10 -16 2 rrcurveto
          -45 -28 -58 -56 hvcurveto
          endchar
        </CharString>
        <CharString name="currency">
          222 592 91 rmoveto
          4 -6 2 -8 -11 vvcurveto
          -21 -22 -22 -21 -11 -9 4 8 -8 vhcurveto
          -76 77 rlineto
          -20 -37 -39 -10 -42 hhcurveto
          -43 -37 9 17 -33 hvcurveto
          -45 -47 -27 -25 -9 -4 rrcurveto
          -5 -9 -7 -2 -6 hhcurveto
          -19 -10 10 20 19 24 34 49 47 hvcurveto
          -35 40 -20 55 -3 70 1 68 22 57 41 46 -18 19 -16 18 -13 15 -27 29 rcurveline
          -5 4 -2 8 11 vvcurveto
          22 24 21 22 22 21 -20 -40 32 vhcurveto
          16 -21 10 -12 3 -4 rrcurveto
          19 38 39 9 40 hhcurveto
          39 38 -11 -22 37 hvcurveto
          11 13 27 34 16 20 rrcurveto
          19 16 24 19 18 hhcurveto
          18 11 -13 -17 -17 -8 -10 -7 -7 hvcurveto
          -18 -19 -24 -28 -30 -37 rrcurveto
          39 -44 20 -55 -65 vvcurveto
          -66 -21 -55 -42 -45 vhcurveto
          -337 169 rmoveto
          -109 5 79 -66 84 hhcurveto
          84 68 56 105 105 -77 68 -86 -86 -67 -56 -103 -4 hvcurveto
          endchar
        </CharString>
        <CharString name="d">
          -30 74 -10 -17 callgsubr
        </CharString>
        <CharString name="dagger">
          -73 160 468 rmoveto
          -93 24 callsubr
          17 23 20 24 25 29 callsubr
          23 19 20 hhcurveto
          15 10 -10 -20 3 hvcurveto
          -141 100 vlineto
          19 -5 22 callgsubr
          -20 -18 -23 -23 -5 vhcurveto
          -88 -423 hlineto
          -25 -4 -25 -20 30 callsubr
          22 hvcurveto
          endchar
        </CharString>
        <CharString name="daggerdbl">
          -59 161 468 rmoveto
          -93 24 callsubr
          19 19 21 26 24 29 callsubr
          24 19 19 hhcurveto
          14 10 -10 -20 6 hvcurveto
          -141 98 vlineto
          20 -5 22 callgsubr
          -20 -19 -24 -23 -4 vhcurveto
          -86 -240 98 hlineto
          20 -6 10 -10 -14 vvcurveto
          -19 -19 -24 -23 -5 vhcurveto
          -86 -105 hlineto
          -24 -4 -27 -21 30 callsubr
          22 hvcurveto
          119 -93 vlineto
          -23 -10 12 14 7 2 7 4 7 hvcurveto
          9 17 13 10 17 3 rrcurveto
          81 hlineto
          endchar
        </CharString>
        <CharString name="dblgravecmb">
          -470 -470 679 -95 callgsubr
          137 hmoveto
          -96 callsubr
          endchar
        </CharString>
        <CharString name="dcaron">
          -30 72 -72 callgsubr
          2 -665 -17 callgsubr
        </CharString>
        <CharString name="dcroat">
          -35 callgsubr
        </CharString>
        <CharString name="degree">
          -238 155 563 rmoveto
          -8 -13 -14 -4 -16 hhcurveto
          -32 -49 27 52 51 40 32 53 34 22 -17 -33 10 hvcurveto
          4 -11 2 -13 -14 vvcurveto
          -3 -27 -14 -21 -24 -14 rrcurveto
          -17 101 rmoveto
          5 -7 -8 2 -7 hhcurveto
          -16 -20 -16 -19 -19 11 -13 21 24 12 11 22 13 -3 9 -7 5 hvcurveto
          endchar
        </CharString>
        <CharString name="dieresis">
          -66 70 -58 callsubr
          endchar
        </CharString>
        <CharString name="divide">
          49 205 422 rmoveto
          28 25 18 24 24 22 -20 -24 -25 -22 -26 -27 -28 -18 20 29 vhcurveto
          -14 -194 rmoveto
          -71 -43 3 7 -13 hvcurveto
          -13 7 -7 9 11 vvcurveto
          22 15 13 24 1 vhcurveto
          -3 36 38 -2 39 hhcurveto
          241 8 rlineto
          20 -8 10 -12 -15 vvcurveto
          -16 -12 -14 -19 -4 vhcurveto
          -172 -83 rmoveto
          23 -5 13 -16 1 -27 rrcurveto
          -30 -9 -19 -15 -28 hhcurveto
          -28 -15 18 25 33 21 17 41 hvcurveto
          endchar
        </CharString>
        <CharString name="dollar">
          37 311 569 rmoveto
          -3 -102 -3 -106 rlineto
          111 -41 59 -68 -109 vvcurveto
          -49 -24 -39 -39 -21 vhcurveto
          -20 -38 -43 -10 -47 hhcurveto
          -24 vlineto
          -23 -2 -17 -16 -16 hhcurveto
          -17 -14 13 23 -3 hvcurveto
          28 vlineto
          -71 19 -84 53 51 vvcurveto
          21 14 14 17 8 11 -6 -13 15 vhcurveto
          28 -25 39 -38 28 -9 2 26 2 40 1 54 1 53 3 42 3 29 -79 30 -50 31 -20 31 rrcurveto
          -8 13 -4 19 24 vvcurveto
          47 26 65 50 45 vhcurveto
          25 22 28 14 33 7 rrcurveto
          28 vlineto
          20 3 15 12 16 hhcurveto
          17 11 -10 -19 6 hvcurveto
          -28 vlineto
          84 -7 71 -44 20 -68 -1 -15 -6 -11 -12 -7 rrcurveto
          -3 -5 -6 -1 -6 hhcurveto
          -14 -10 8 16 -7 hvcurveto
          -9 36 -40 20 -49 5 rrcurveto
          -72 -128 rmoveto
          3 90 rlineto
          15 0 12 -1 8 vhcurveto
          -59 -15 -42 -65 -53 vvcurveto
          2 -29 33 -25 64 -21 rrcurveto
          48 -324 rmoveto
          78 6 39 24 41 vvcurveto
          83 -32 38 -76 35 vhcurveto
          -3 -27 -1 -39 -1 -51 -1 -51 -2 -36 -1 -23 rrcurveto
          endchar
        </CharString>
        <CharString name="dollar.smcp">
          23 220 545 rmoveto
          19 3 16 11 17 hhcurveto
          15 12 -9 -18 7 hvcurveto
          -16 vlineto
          71 -9 64 -37 17 -52 rrcurveto
          -24 -1 -15 -15 -24 hhcurveto
          -15 -9 7 13 -5 hvcurveto
          -9 24 -25 15 -41 6 rrcurveto
          -1 -11 0 -16 -19 vvcurveto
          -1 -19 0 -16 -1 -11 -2 -74 rcurveline
          55 -18 41 -30 26 -41 rrcurveto
          17 -26 8 -27 -29 vvcurveto
          -29 -9 -24 -17 -18 vhcurveto
          -31 -32 -46 -17 -62 -1 rrcurveto
          -19 -6 -14 -12 -9 vhcurveto
          -4 -5 -7 -2 -7 hhcurveto
          -16 -16 14 21 -3 hvcurveto
          16 vlineto
          -45 12 -37 20 -29 28 rrcurveto
          -16 15 -8 13 12 vvcurveto
          24 16 14 18 9 16 -10 -20 23 vhcurveto
          23 -21 20 -13 16 -6 3 75 rcurveline
          2 55 2 32 1 10 rrcurveto
          -87 29 -52 33 49 vvcurveto
          79 57 75 85 17 vhcurveto
          7 -87 rmoveto
          16 vlineto
          -45 -11 -32 -46 -37 vvcurveto
          3 -19 25 -16 45 -11 rrcurveto
          144 -206 rmoveto
          77 -42 17 -41 17 vhcurveto
          -1 -19 -1 -26 -34 vvcurveto
          -1 -35 -1 -26 -2 -17 rrcurveto
          59 5 30 16 25 vvcurveto
          endchar
        </CharString>
        <CharString name="dong">
          -30 277 660 rmoveto
          -28 -1 -29 0 -46 1 23 callgsubr
          -1 49 32 0 34 hhcurveto
          1 -15 1 -18 -24 vvcurveto
          -27 13 -94 5 -35 -25 rrcurveto
          -75 -55 -22 -51 -101 vvcurveto
          -101 64 -90 104 39 34 11 23 29 vhcurveto
          -31 14 -11 16 27 18 5 25 70 -8 159 -4 80 vhcurveto
          -1 17 -2 59 -1 56 rrcurveto
          23 hlineto
          26 callsubr
          -30 hlineto
          -1 16 0 12 -1 5 rrcurveto
          22 -3 -12 8 -24 hhcurveto
          -23 -10 -9 -36 -1 hvcurveto
          -43 -223 rmoveto
          47 -9 4 -47 -52 vvcurveto
          -85 -34 -64 -66 -55 -32 59 71 75 38 71 98 -19 vhcurveto
          108 -378 rmoveto
          -88 1 -84 -3 -88 2 23 callgsubr
          -2 90 88 2 90 hhcurveto
          26 callsubr
          endchar
        </CharString>
        <CharString name="dotaccent">
          -330 70 -13 callgsubr
          endchar
        </CharString>
        <CharString name="dotbelowcomb">
          -470 76 -40 -83 callgsubr
        </CharString>
        <CharString name="e">
          -90 285 2 -101 callgsubr
        </CharString>
        <CharString name="eacute">
          -90 219 -75 callsubr
          66 -675 -101 callgsubr
        </CharString>
        <CharString name="ebreve">
          -90 94 -44 callsubr
          191 -635 -101 callgsubr
        </CharString>
        <CharString name="ecaron">
          -90 99 -72 callgsubr
          186 -653 -101 callgsubr
        </CharString>
        <CharString name="ecircumflex">
          -90 188 652 -85 callgsubr
        </CharString>
        <CharString name="ecircumflexacute">
          -90 380 783 -98 callgsubr
          -192 -131 -85 callgsubr
        </CharString>
        <CharString name="ecircumflexdotbelow">
          -90 188 -63 callsubr
          97 -650 -105 callsubr
          100 -32 -83 callgsubr
        </CharString>
        <CharString name="ecircumflexgrave">
          -90 257 754 -95 callgsubr
          -69 -102 -85 callgsubr
        </CharString>
        <CharString name="ecircumflexhookabove">
          -90 296 784 -96 callgsubr
          -108 -132 -85 callgsubr
        </CharString>
        <CharString name="ecircumflextilde">
          -90 142 782 -93 callgsubr
          46 -130 -85 callgsubr
        </CharString>
        <CharString name="edieresis">
          -90 52 -58 callsubr
          8 -606 -101 callgsubr
        </CharString>
        <CharString name="edotaccent">
          -90 185 -13 callgsubr
          100 -626 -101 callgsubr
        </CharString>
        <CharString name="edotbelow">
          -90 285 2 -105 callsubr
          100 -32 -83 callgsubr
        </CharString>
        <CharString name="egrave">
          -90 149 -50 callgsubr
          136 -668 -101 callgsubr
        </CharString>
        <CharString name="ehookabove">
          -90 185 -53 callsubr
          100 -657 -101 callgsubr
        </CharString>
        <CharString name="eight">
          -27 callgsubr
        </CharString>
        <CharString name="eight.osf">
          -27 callgsubr
        </CharString>
        <CharString name="eight.smcp">
          -150 157 459 rmoveto
          -65 -3 -52 -34 3 -59 2 -42 29 -47 36 -23 -50 -42 -24 -48 1 -55 1 -62 47 -45 74 3 73 3 55 42 -2 70 -3 59 -23 33 -44 49 36 23 28 34 -1 50 rrcurveto
          61 -57 35 -64 -2 vhcurveto
          2 -57 rmoveto
          27 1 30 -15 1 -25 rrcurveto
          -26 -15 -11 -41 -32 vhcurveto
          -23 16 -37 18 -1 29 rrcurveto
          32 26 10 33 3 vhcurveto
          -1 -185 rmoveto
          40 -42 21 -27 2 -33 rrcurveto
          -27 -13 -23 -34 -2 vhcurveto
          -47 -2 -30 19 -1 32 -2 36 21 39 43 30 rrcurveto
          endchar
        </CharString>
        <CharString name="eightsuperior">
          -233 120 720 rmoveto
          -45 -1 -24 -24 1 -39 2 -21 15 -23 15 -15 -21 -23 -20 -25 2 -34 1 -36 37 -22 46 2 45 2 31 24 -2 44 -1 22 -20 28 -17 21 19 19 15 27 -1 15 rrcurveto
          -1 38 -28 22 -49 -1 rrcurveto
          2 -46 rmoveto
          15 1 8 -8 -12 vvcurveto
          -10 -12 -10 -8 -6 vhcurveto
          -7 5 -15 9 11 vvcurveto
          14 7 6 12 vhcurveto
          3 -110 rmoveto
          12 -9 11 -14 -10 vvcurveto
          -9 -6 -12 -18 -16 -6 11 11 8 10 15 13 9 vhcurveto
          endchar
        </CharString>
        <CharString name="ellipsis">
          101 11 callgsubr
          153 hmoveto
          10 callsubr
          20 43 33 33 20 -32 -28 3 vhcurveto
          156 hmoveto
          10 callsubr
          19 43 37 20 29 -19 -41 4 vhcurveto
          endchar
        </CharString>
        <CharString name="emacron">
          -90 311 -30 callsubr
          -26 -596 -101 callgsubr
        </CharString>
        <CharString name="emdash">
          178 576 274 rmoveto
          -160 1 -224 -3 -107 2 rrcurveto
          -34 1 -15 -21 -23 vvcurveto
          -19 13 -14 24 vhcurveto
          166 -2 167 0 166 2 rrcurveto
          21 20 8 29 25 -19 14 -18 hvcurveto
          endchar
        </CharString>
        <CharString name="endash">
          -50 344 199 rmoveto
          -90 -91 -2 2 -90 hvcurveto
          -24 1 -13 13 19 vvcurveto
          23 16 21 33 -1 vhcurveto
          88 -2 87 3 88 -1 rrcurveto
          33 4 -16 -23 -29 -21 -8 -20 hvcurveto
          endchar
        </CharString>
        <CharString name="eng">
          401 22 rmoveto
          28 1 218 -5 153 vhcurveto
          -3 callgsubr
          14 -105 3 -185 -21 44 -39 54 -57 callgsubr
          35 -54 26 -40 22 -32 23 -29 rrcurveto
          -32 -23 -22 -33 -43 15 62 -11 -38 vhcurveto
          -23 -6 -4 -12 5 -25 rrcurveto
          -43 8 38 -25 44 hhcurveto
          39 77 24 105 hvcurveto
          endchar
        </CharString>
        <CharString name="eogonek">
          -90 122 66 rmoveto
          -103 callsubr
          134 1 -7 -13 -6 -16 -2 -19 rlinecurve
          -43 callsubr
          38 30 17 16 16 hvcurveto
          12 9 1 15 11 vvcurveto
          15 -10 8 -19 2 vhcurveto
          endchar
        </CharString>
        <CharString name="equal">
          102 140 372 rmoveto
          25 callsubr
          190 -4 rlineto
          29 40 1 3 51 hvcurveto
          13 -3 6 -6 -11 vvcurveto
          -21 -13 -19 -13 -5 vhcurveto
          -3 -49 -40 -1 -29 hhcurveto
          -198 -164 rmoveto
          -15 -8 8 17 19 12 20 16 3 hvcurveto
          1 95 105 0 115 hhcurveto
          24 callgsubr
          endchar
        </CharString>
        <CharString name="eth">
          -35 callgsubr
        </CharString>
        <CharString name="etilde">
          -90 140 -40 callgsubr
          145 -628 -101 callgsubr
        </CharString>
        <CharString name="exclam">
          -223 155 347 rmoveto
          -31 0 -24 1 -17 vhcurveto
          -17 -5 -17 -16 -19 hhcurveto
          -9 -8 7 15 -6 hvcurveto
          -10 168 -5 141 115 vvcurveto
          19 7 27 6 15 hhcurveto
          22 13 -8 -17 3 hvcurveto
          -84 -604 rmoveto
          21 18 27 32 31 15 -6 -42 -42 -24 -11 -20 -31 -21 32 21 vhcurveto
          endchar
        </CharString>
        <CharString name="exclamdown">
          -256 167 420 rmoveto
          -44 -16 -5 -31 -32 -17 27 18 18 10 17 13 12 vhcurveto
          6 7 6 3 7 hhcurveto
          27 26 -8 -44 hvcurveto
          -100 -605 rmoveto
          133 5 142 11 149 vhcurveto
          13 5 7 7 9 hhcurveto
          19 18 -15 -16 4 hvcurveto
          -1 -16 0 -26 -36 vvcurveto
          -36 2 -54 4 -71 vhcurveto
          3 -72 2 -58 -44 vvcurveto
          -17 -5 -13 -9 -21 hhcurveto
          -21 -23 11 15 -5 hvcurveto
          endchar
        </CharString>
        <CharString name="f">
          -120 248 211 rmoveto
          3 callgsubr
          rrcurveto
          27 2 32 -1 36 vvcurveto
          23 -29 9 -29 31 callgsubr
          vhcurveto
          -14 callsubr
          endchar
        </CharString>
        <CharString name="f_f.liga">
          55 228 211 rmoveto
          -84 0 -81 2 -11 vhcurveto
          -2 callgsubr
          124 hlineto
          3 callgsubr
          rrcurveto
          27 2 32 -1 36 vvcurveto
          23 -29 9 -29 31 callgsubr
          vhcurveto
          -21 2 -18 3 -18 -1 -4 -1 -3 -2 -4 -2 rrcurveto
          -43 -32 -1 3 -43 hvcurveto
          -14 callsubr
          176 vmoveto
          47 -3 35 -1 37 2 rrcurveto
          1 -21 0 -40 -45 vvcurveto
          -120 hlineto
          endchar
        </CharString>
        <CharString name="f_i.liga">
          -70 293 342 rmoveto
          -1 -43 4 -108 9 -172 rrcurveto
          -17 5 9 -8 12 hhcurveto
          23 24 14 32 hvcurveto
          -1 14 0 25 29 vvcurveto
          35 5 257 -4 30 vhcurveto
          31 -4 -22 4 -29 -24 -52 -5 -40 hhcurveto
          44 -5 63 7 31 vhcurveto
          24 5 13 18 24 hhcurveto
          5 21 -4 -5 9 hvcurveto
          -4 -9 -4 -6 -11 vvcurveto
          -34 16 -19 40 -4 vhcurveto
          28 -2 28 32 28 vvcurveto
          15 -2 30 -19 26 vhcurveto
          23 -17 -44 15 -68 hhcurveto
          -41 -29 1 -51 -20 hvcurveto
          -10 -26 -6 -67 -2 -109 rrcurveto
          -87 3 -24 -11 -34 vvcurveto
          -38 64 5 47 -3 vhcurveto
          2 -54 3 -59 5 -63 rrcurveto
          5 -63 2 -60 -55 vvcurveto
          -21 9 -11 18 20 29 15 29 59 -2 66 -5 71 vhcurveto
          -5 71 -3 49 -1 26 31 -1 33 1 20 3 rrcurveto
          endchar
        </CharString>
        <CharString name="f_l.liga">
          42 341 18 callsubr
          -20 -12 -5 -10 -4 vhcurveto
          6 -11 -17 3 -16 hhcurveto
          31 callgsubr
          hvcurveto
          -14 callsubr
          124 hlineto
          3 callgsubr
          14 1 16 0 12 6 -6 -247 rcurveline
          -36 callsubr
          endchar
        </CharString>
        <CharString name="five">
          -47 63 652 -17 callsubr
        </CharString>
        <CharString name="five.osf">
          -47 63 452 -17 callsubr
        </CharString>
        <CharString name="five.smcp">
          -140 55 456 rmoveto
          -12 -6 -5 -19 -89 vvcurveto
          -23 1 -66 15 -13 vhcurveto
          -15 16 33 17 45 hhcurveto
          45 34 -18 -70 -40 -28 -41 -38 -49 -27 58 -17 -33 hvcurveto
          -18 -10 -1 -10 -16 vvcurveto
          -40 63 -38 66 71 63 70 91 135 -113 37 -81 -26 vhcurveto
          -1 22 -1 30 35 vvcurveto
          54 2 59 -6 31 -7 rrcurveto
          14 -3 19 17 22 vvcurveto
          13 -7 10 -10 6 vhcurveto
          -66 21 -124 -8 -15 -5 rrcurveto
          endchar
        </CharString>
        <CharString name="fivesuperior">
          -248 94 662 rmoveto
          33 -2 34 -3 8 -1 14 -2 13 8 2 23 1 10 -4 13 -14 4 -23 7 -80 4 -19 -8 -23 -8 -2 -32 1 -22 1 -24 6 -40 19 -7 rrcurveto
          -7 16 20 7 13 hhcurveto
          19 12 -6 -25 -13 -15 -17 -13 -22 -27 28 -18 -18 hvcurveto
          -34 -32 43 -40 62 1 rrcurveto
          47 1 39 40 54 vvcurveto
          70 -62 15 -44 -8 vhcurveto
          endchar
        </CharString>
        <CharString name="florin">
          107 223 389 rmoveto
          -151 hlineto
          -25 -12 11 21 19 17 23 24 4 hvcurveto
          148 hlineto
          -2 93 rlineto
          124 58 32 92 73 46 -11 -22 21 vhcurveto
          7 -7 3 -7 -7 vvcurveto
          -8 -2 -7 -3 -6 vhcurveto
          -14 -7 -12 -7 -16 hhcurveto
          -6 -14 2 4 -22 hvcurveto
          3 -22 -17 2 -13 hhcurveto
          -25 -21 -4 -6 -12 hvcurveto
          -13 -6 -8 -16 -4 -11 -5 -11 -1 -25 1 -15 1 -70 rcurveline
          159 hlineto
          19 -5 9 -9 -15 vvcurveto
          -15 -7 -12 -13 -11 vhcurveto
          -6 -5 -7 -4 -7 -2 rrcurveto
          -148 -508 hlineto
          -64 -6 -36 -24 -33 vhcurveto
          -32 -22 -48 -16 -74 hhcurveto
          -43 -27 6 11 -10 hvcurveto
          -5 6 -3 9 11 vvcurveto
          22 21 35 19 19 20 -5 -4 20 vhcurveto
          -2 9 10 -1 11 hhcurveto
          10 9 4 7 9 hvcurveto
          18 17 9 52 86 vvcurveto
          1 59 rlineto
          endchar
        </CharString>
        <CharString name="four">
          -95 250 115 -15 callgsubr
        </CharString>
        <CharString name="four.osf">
          -95 247 -91 -15 callgsubr
        </CharString>
        <CharString name="four.smcp">
          -190 96 462 rmoveto
          -13 -19 -4 -26 -9 hvcurveto
          -11 -38 -13 -93 -73 vvcurveto
          -65 22 -16 60 27 21 1 3 16 vhcurveto
          -21 -1 -35 -11 vvcurveto
          -39 -5 -43 35 -2 vhcurveto
          17 20 9 27 32 1 153 3 59 hvcurveto
          38 2 -6 10 -35 hhcurveto
          -24 -3 -11 -31 -1 hvcurveto
          -2 -21 2 -22 -1 -24 -18 -2 -36 -3 -23 3 -3 46 11 77 8 63 rrcurveto
          31 5 6 28 -33 hhcurveto
          endchar
        </CharString>
        <CharString name="foursuperior">
          -250 124 512 rmoveto
          -24 -1 -27 29 -1 vhcurveto
          10 26 0 26 -1 hvcurveto
          -2 58 2 47 24 vvcurveto
          15 0 22 -33 -24 -2 -19 -10 -1 vhcurveto
          -1 -9 -1 -16 -9 vvcurveto
          -28 1 rlineto
          10 1 21 5 29 vhcurveto
          21 4 17 49 -43 hhcurveto
          -41 -4 -90 -43 -40 18 -14 38 hvcurveto
          32 hlineto
          endchar
        </CharString>
        <CharString name="fraction">
          142 517 713 rmoveto
          12 12 12 6 11 hhcurveto
          23 11 -8 -17 -7 -3 -9 -7 -11 hvcurveto
          -50 -71 -76 -112 -103 -153 -103 -153 -78 -115 -54 -75 rrcurveto
          -9 -10 -10 -4 -11 hhcurveto
          -21 -11 8 17 8 2 8 4 7 hvcurveto
          56 77 79 115 101 153 101 153 76 111 49 69 rrcurveto
          endchar
        </CharString>
        <CharString name="franc">
          80 127 577 rmoveto
          9 callsubr
          -38 2 -4 -28 -7 -45 2 -358 7 -189 rrcurveto
          -29 1 18 19 callgsubr
          37 6 43 0 40 -6 14 -38 -15 -179 8 -60 rrcurveto
          -24 3 11 -12 15 hhcurveto
          19 26 3 45 90 -13 134 142 38 hvcurveto
          36 10 12 6 1 29 1 28 -25 16 -55 -10 -66 -12 -21 -26 -23 -47 rrcurveto
          73 7 -20 14 -23 hhcurveto
          -69 -18 -5 5 -67 hvcurveto
          endchar
        </CharString>
        <CharString name="g">
          -50 262 461 -69 callgsubr
          endchar
        </CharString>
        <CharString name="gbreve">
          -50 131 -44 callsubr
          131 -176 -69 callgsubr
          endchar
        </CharString>
        <CharString name="gcircumflex">
          -50 225 -63 callsubr
          37 -191 -69 callgsubr
          endchar
        </CharString>
        <CharString name="gcommaaccent">
          -50 262 461 -69 callgsubr
          -8 -491 -80 callsubr
        </CharString>
        <CharString name="gdotaccent">
          -50 222 -13 callgsubr
          40 -167 -69 callgsubr
          endchar
        </CharString>
        <CharString name="germandbls">
          330 213 462 rmoveto
          -98 -77 -52 -67 -99 93 -10 89 -22 hvcurveto
          36 -9 28 -24 1 -36 rrcurveto
          -49 -9 -25 -23 -41 hhcurveto
          -32 -45 14 23 -52 hvcurveto
          -22 -20 -16 -19 -29 88 -44 60 96 76 72 85 45 -20 33 -29 17 hvcurveto
          -50 31 -147 7 60 vvcurveto
          25 52 25 46 vhcurveto
          42 37 -32 25 27 callsubr
          12 18 38 -54 26 -78 hvcurveto
          271 -22 rmoveto
          -54 -29 -23 -43 -53 vvcurveto
          -102 81 -14 91 -18 vhcurveto
          36 -8 28 -24 -28 vvcurveto
          -28 -51 -32 -43 vhcurveto
          -36 -54 32 -17 hhcurveto
          -15 -15 -13 -17 -37 55 -27 78 97 78 52 68 49 -28 50 -36 14 hvcurveto
          -73 27 -102 -5 73 vvcurveto
          48 25 15 41 30 48 -16 -22 57 vhcurveto
          28 -10 9 28 19 vvcurveto
          45 -161 46 -74 -40 vhcurveto
          endchar
        </CharString>
        <CharString name="grave">
          -250 74 -50 callgsubr
          endchar
        </CharString>
        <CharString name="gravecomb">
          -470 -440 679 -95 callgsubr
          endchar
        </CharString>
        <CharString name="greater">
          -70 72 466 rmoveto
          32 46 -40 -52 77 hvcurveto
          61 -41 38 -31 28 -23 rrcurveto
          13 -11 9 -15 -9 vvcurveto
          -37 -72 -44 -6 callsubr
          13 13 17 vhcurveto
          endchar
        </CharString>
        <CharString name="greaterequal">
          -58 75 467 rmoveto
          34 41 -39 -53 78 hvcurveto
          61 -41 41 -30 28 -23 rrcurveto
          13 -11 5 -22 -9 vvcurveto
          -37 -72 -39 -6 callsubr
          16 14 17 vhcurveto
          8 -566 rmoveto
          -24 2 -12 9 18 vvcurveto
          21 13 16 24 4 vhcurveto
          265 hlineto
          20 -4 12 -6 -16 vvcurveto
          -19 -15 -18 -23 -7 vhcurveto
          endchar
        </CharString>
        <CharString name="guillemotleft">
          8 -12 callsubr
          121 -28 rmoveto
          15 13 4 7 20 hhcurveto
          19 16 -10 -15 -22 -38 -52 -77 -83 hvcurveto
          5 -11 12 -13 19 -16 rrcurveto
          37 -33 36 -34 -18 vvcurveto
          -18 -8 -19 -21 -21 -14 10 7 30 callgsubr
          -16 19 5 -6 -21 19 -21 19 -15 13 -16 28 rrcurveto
          -8 14 -4 11 8 vvcurveto
          16 7 11 10 14 vhcurveto
          10 14 16 21 13 16 12 15 20 23 11 12 rrcurveto
          endchar
        </CharString>
        <CharString name="guillemotright">
          38 256 416 rmoveto
          9 30 -11 -12 10 hvcurveto
          10 -13 30 -26 21 -18 11 -9 10 -10 11 -11 rrcurveto
          23 -23 11 -25 -25 vvcurveto
          -29 -16 -16 -34 -31 vhcurveto
          -17 -15 -13 -14 -7 -11 rrcurveto
          -23 -16 -32 -22 -14 hhcurveto
          -14 -16 14 20 19 8 15 21 23 hvcurveto
          21 23 3 3 31 27 23 20 rcurveline
          -5 6 -13 13 -23 20 -58 49 -30 37 -3 23 rrcurveto
          21 9 11 19 vhcurveto
          -151 -349 -8 callgsubr
        </CharString>
        <CharString name="guilsinglleft">
          -166 -12 callsubr
          endchar
        </CharString>
        <CharString name="guilsinglright">
          -170 105 67 -8 callgsubr
        </CharString>
        <CharString name="h">
          -90 238 264 -20 callgsubr
        </CharString>
        <CharString name="hbar">
          -10 374 421 rmoveto
          15 callgsubr
          hvcurveto
          -57 vlineto
          -51 -57 3 4 -51 hvcurveto
          49 vlineto
          15 1 -11 7 -15 hhcurveto
          -18 -21 -12 -17 -1 hvcurveto
          -36 -1 vlineto
          -26 4 -15 -16 -33 vvcurveto
          -15 11 -10 20 -2 vhcurveto
          8 -1 -1 -58 -23 callgsubr
          100 4 vlineto
          25 1 11 14 -1 35 rrcurveto
          13 -1 -14 9 -17 hhcurveto
          -7 -1 rlineto
          -97 -111 rmoveto
          -54 -1 -43 3 -35 6 rrcurveto
          36 vlineto
          -4 54 55 -1 53 hhcurveto
          1 -39 rlineto
          endchar
        </CharString>
        <CharString name="hcircumflex">
          -90 187 -63 callsubr
          51 -388 -20 callgsubr
        </CharString>
        <CharString name="heart">
          179 443 469 rmoveto
          -72 -40 -41 -45 -11 hvcurveto
          11 -5 12 -10 13 vhcurveto
          25 -20 -44 23 -49 hhcurveto
          -77 -36 -44 -72 -73 40 -59 36 -35 hvcurveto
          35 -35 123 -142 3 -7 1 2 14 18 29 33 30 35 29 29 27 23 rrcurveto
          55 47 51 104 69 vvcurveto
          73 -36 36 -73 vhcurveto
          -127 -469 rmoveto
          0 0 0 0 vhcurveto
          endchar
        </CharString>
        <CharString name="hookabovecomb">
          -470 144 -53 callsubr
          endchar
        </CharString>
        <CharString name="horncomb">
          -470 77 651 rmoveto
          -11 -14 -21 -13 -2 hvcurveto
          -10 -81 -54 22 -19 -26 -11 -14 0 -21 19 -15 rrcurveto
          24 -17 117 28 114 vvcurveto
          23 -4 21 -35 vhcurveto
          endchar
        </CharString>
        <CharString name="hungarumlaut">
          -163 66 446 -69 callsubr
          endchar
        </CharString>
        <CharString name="hyphen">
          -1 callsubr
        </CharString>
        <CharString name="i">
          -320 72 462 -67 callsubr
        </CharString>
        <CharString name="i.loclTRK">
          -320 72 630 -49 callgsubr
          -168 vmoveto
          -74 callsubr
        </CharString>
        <CharString name="iacute">
          -320 106 679 -98 callgsubr
          -34 -217 -67 callsubr
        </CharString>
        <CharString name="ibreve">
          -320 -19 639 -95 callsubr
          91 -177 -67 callsubr
        </CharString>
        <CharString name="icaron">
          -320 -14 657 -94 callgsubr
          86 -195 -67 callsubr
        </CharString>
        <CharString name="icircumflex">
          -320 75 654 -100 callgsubr
          -3 -192 -67 callsubr
        </CharString>
        <CharString name="idieresis">
          -320 -61 553 -86 callgsubr
          -92 -148 -67 callsubr
        </CharString>
        <CharString name="idotbelow">
          -320 72 462 rmoveto
          -75 callgsubr
          -4 -498 -83 callgsubr
        </CharString>
        <CharString name="igrave">
          -320 36 672 -95 callgsubr
          36 -210 -67 callsubr
        </CharString>
        <CharString name="ihookabove">
          -320 72 661 -96 callgsubr
          -199 vmoveto
          -74 callsubr
        </CharString>
        <CharString name="ij">
          377 467 -39 callsubr
          -305 -5 -67 callsubr
        </CharString>
        <CharString name="imacron">
          -320 198 600 -71 callgsubr
          -126 -138 -67 callsubr
        </CharString>
        <CharString name="infinity">
          505 692 472 rmoveto
          104 -7 65 -39 27 -71 rrcurveto
          11 -28 5 -32 -36 vvcurveto
          -72 -18 -58 -34 -47 vhcurveto
          -48 -34 -58 -30 -78 hhcurveto
          -78 -64 50 95 -76 hvcurveto
          -123 -79 -54 -33 -72 hhcurveto
          -99 -80 105 106 106 96 103 105 65 48 -46 -83 73 hvcurveto
          79 132 59 44 87 12 rrcurveto
          28 -393 rmoveto
          67 11 46 73 79 vvcurveto
          79 -48 64 -93 7 vhcurveto
          -85 -12 -34 -52 -28 -51 -29 -53 rcurveline
          2 -2 6 -7 10 -13 10 -13 7 -8 4 -4 4 -5 7 -7 10 -11 23 -25 rcurveline
          -39 48 28 -11 37 hhcurveto
          -433 -5 rmoveto
          68 36 62 72 37 hvcurveto
          86 -64 -52 43 -40 hhcurveto
          -64 -45 -65 -63 -64 56 -71 68 hvcurveto
          endchar
        </CharString>
        <CharString name="integral">
          90 299 -224 rmoveto
          -49 -6 -55 -26 -67 hhcurveto
          -68 -51 27 37 36 24 27 20 10 10 -3 -6 9 hvcurveto
          -12 18 20 -15 17 hhcurveto
          17 18 16 25 5 hvcurveto
          3 427 1 173 1 105 1 36 rlinecurve
          1 35 4 29 7 22 1 1 rcurveline
          39 12 33 20 54 hhcurveto
          52 60 -32 -52 23 hvcurveto
          3 -7 1 -8 -8 vvcurveto
          -16 -19 -26 -19 -9 -9 4 8 -8 vhcurveto
          37 -23 -29 27 -23 hhcurveto
          -26 -13 -29 -58 hvcurveto
          endchar
        </CharString>
        <CharString name="iogonek">
          -320 171 -82 15 callsubr
          0 0 1 0 vhcurveto
          -42 callsubr
          -19 -16 -11 -20 -62 -2 -265 -2 -65 hvcurveto
          -19 -17 -17 -27 -5 -37 -29 callgsubr
          endchar
        </CharString>
        <CharString name="itilde">
          -320 27 632 -93 callgsubr
          45 -170 -67 callsubr
        </CharString>
        <CharString name="j">
          -170 227 467 -39 callsubr
          endchar
        </CharString>
        <CharString name="jcircumflex">
          -170 206 -63 callsubr
          21 -185 -39 callsubr
          endchar
        </CharString>
        <CharString name="k">
          -18 callsubr
          endchar
        </CharString>
        <CharString name="kcommaaccent">
          -18 callsubr
          193 -123 -80 callsubr
        </CharString>
        <CharString name="l">
          -43 callgsubr
          endchar
        </CharString>
        <CharString name="l_l.liga">
          -39 269 18 callsubr
          -26 -12 -9 -16 vhcurveto
          -7 -290 rlineto
          -26 0 -25 1 -25 vhcurveto
          -122 -7 -11 callgsubr
          -7 -290 rlineto
          -45 0 -44 6 -42 28 callsubr
          11 -4 15 hhcurveto
          45 67 -4 7 59 hvcurveto
          -2 5 7 -1 7 -18 callgsubr
          endchar
        </CharString>
        <CharString name="lacute">
          -170 110 678 -98 callgsubr
          -81 -532 -51 callgsubr
          endchar
        </CharString>
        <CharString name="lambda">
          114 160 24 rmoveto
          -17 -11 -14 -9 -19 hhcurveto
          -21 -17 14 19 9 2 10 5 9 hvcurveto
          5 9 11 22 18 37 35 73 31 66 60 95 -36 75 -19 27 -33 36 -17 17 -13 16 -11 13 rrcurveto
          -7 7 -3 10 12 vvcurveto
          23 19 26 23 29 104 -147 -84 43 vhcurveto
          41 -81 50 -110 58 -137 rrcurveto
          3 -8 2 -9 -10 vvcurveto
          -20 -20 -19 -24 -12 -10 6 12 -9 vhcurveto
          -9 22 -14 37 -20 52 -20 52 -22 51 -25 50 -23 -37 -24 -47 -27 -55 -27 -56 -20 -39 -12 -22 rrcurveto
          endchar
        </CharString>
        <CharString name="lcaron">
          -43 callgsubr
          endchar
        </CharString>
        <CharString name="lcommaaccent">
          -43 callgsubr
          164 -475 -80 callsubr
        </CharString>
        <CharString name="ldot">
          -43 callgsubr
          186 -161 1 callsubr
        </CharString>
        <CharString name="less">
          -16 callsubr
          endchar
        </CharString>
        <CharString name="lessequal">
          -16 callsubr
          -244 -573 rmoveto
          -22 1 -11 9 17 vvcurveto
          23 20 24 25 5 vhcurveto
          258 -3 rlineto
          20 -3 10 -10 -15 vvcurveto
          -20 -19 -23 -23 -5 vhcurveto
          endchar
        </CharString>
        <CharString name="lira">
          80 222 337 rmoveto
          46 1 26 3 56 1 rrcurveto
          41 1 5 23 20 vvcurveto
          23 -14 13 -32 -48 -43 -2 -1 -39 vhcurveto
          -1 51 1 49 5 16 rrcurveto
          34 10 35 19 8 callgsubr
          -89 -77 -52 -122 -18 0 -26 1 -28 hvcurveto
          -66 hlineto
          -19 -1 -15 -17 -21 vvcurveto
          -29 13 -13 26 -1 vhcurveto
          -1 23 21 2 21 hhcurveto
          1 -12 2 -30 -1 -9 rrcurveto
          -70 hlineto
          -19 -15 -17 -21 -29 13 -14 26 hvcurveto
          67 hlineto
          -27 0 -28 -2 -13 vhcurveto
          -27 -21 -78 -43 0 callsubr
          -12 -45 hhcurveto
          -49 -47 29 32 -26 hvcurveto
          2 21 -2 22 26 vvcurveto
          127 2 rlineto
          41 1 5 25 20 vvcurveto
          23 -14 13 -32 -48 -42 -2 -1 -38 vhcurveto
          endchar
        </CharString>
        <CharString name="logicalnot">
          14 25 callgsubr
          13 -2 8 -6 2 -10 rrcurveto
          3 -8 0 -11 -4 vvcurveto
          -163 vlineto
          -23 -4 -14 -14 -16 hhcurveto
          -17 -15 13 23 -3 hvcurveto
          57 0 42 1 29 vhcurveto
          -297 14 callgsubr
        </CharString>
        <CharString name="lozenge">
          -19 53 235 rmoveto
          87 41 91 150 39 hhcurveto
          10 22 -21 -43 34 hvcurveto
          34 -43 38 -56 42 -68 rrcurveto
          2 -8 1 -7 -6 vvcurveto
          -6 -2 -7 -4 -8 vhcurveto
          -46 -71 -31 -45 -15 -18 -15 -18 -15 -15 -14 -13 rrcurveto
          -14 -11 -11 -7 -10 hhcurveto
          -30 -60 67 134 -90 hvcurveto
          -3 6 -1 6 5 vvcurveto
          5 1 6 3 8 vhcurveto
          278 -12 rmoveto
          -5 7 -13 24 -22 39 -23 39 -22 32 -22 27 -15 -20 -18 -31 -22 -43 -23 -43 -15 -27 -7 -11 12 -17 18 -23 23 -28 23 -29 19 -25 13 -22 rrcurveto
          endchar
        </CharString>
        <CharString name="lslash">
          -100 87 201 rmoveto
          -37 -31 rlineto
          -20 -17 -8 -9 -17 vvcurveto
          -18 14 -7 13 12 7 2 13 18 vhcurveto
          -18 -1 -35 -23 vvcurveto
          -29 10 -13 24 vhcurveto
          163 -1 11 0 22 11 rrcurveto
          13 6 7 11 15 vvcurveto
          20 -12 10 -25 vhcurveto
          -143 -9 -4 20 -2 46 4 49 rlinecurve
          44 38 28 22 22 vvcurveto
          16 -14 12 -14 -14 -24 -16 0 vhcurveto
          15 155 rlineto
          22 -19 7 callgsubr
          endchar
        </CharString>
        <CharString name="m">
          10 413 485 -19 callgsubr
        </CharString>
        <CharString name="macron">
          -70 324 -30 callsubr
          endchar
        </CharString>
        <CharString name="macute">
          10 265 -75 callsubr
          148 -192 -19 callgsubr
        </CharString>
        <CharString name="minus">
          2 25 callgsubr
          11 callsubr
          -327 14 callgsubr
        </CharString>
        <CharString name="mu">
          23 440 227 rmoveto
          -163 -59 -63 -141 -43 -37 8 15 -32 vhcurveto
          -1 -72 0 -90 -109 vvcurveto
          -27 -4 -30 -33 -17 hhcurveto
          -19 -9 12 23 hvcurveto
          703 vlineto
          -1 1 2 3 1 hvcurveto
          12 4 10 21 36 hhcurveto
          17 11 -11 -22 5 hvcurveto
          -83 -1 -97 -3 -111 vhcurveto
          -44 34 40 -22 45 hhcurveto
          69 30 31 41 8 hvcurveto
          4 21 2 24 28 vvcurveto
          27 -2 36 -4 45 vhcurveto
          -4 44 -2 33 22 vvcurveto
          23 5 11 13 28 hhcurveto
          23 15 -10 -20 6 hvcurveto
          endchar
        </CharString>
        <CharString name="multiply">
          20 389 167 rmoveto
          23 -18 12 -18 -19 vvcurveto
          -19 -14 -9 -28 -7 -7 4 7 -7 vhcurveto
          -8 7 -14 13 -20 21 -37 37 -26 27 -16 17 -12 -15 rcurveline
          -43 -35 -60 -74 -32 hhcurveto
          -20 -14 15 20 9 9 15 17 20 hvcurveto
          17 19 20 21 24 23 24 23 13 12 2 3 -67 66 -38 42 -11 17 rrcurveto
          -11 17 -6 12 9 vvcurveto
          16 14 16 18 9 12 -8 -16 17 vhcurveto
          17 -17 20 -22 25 -29 24 -29 16 -18 7 -8 42 46 rcurveline
          31 35 25 25 18 15 rrcurveto
          18 26 14 9 2 hhcurveto
          11 hlineto
          5 5 -2 -5 3 hvcurveto
          3 -5 1 -8 -13 vvcurveto
          -26 -34 -33 -53 -43 vhcurveto
          -27 -22 -20 -19 -14 -17 11 -12 16 -15 21 -18 21 -18 13 -11 5 -5 5 -5 8 -7 12 -10 rrcurveto
          endchar
        </CharString>
        <CharString name="n">
          -30 388 421 -67 callgsubr
          endchar
        </CharString>
        <CharString name="nacute">
          -30 242 -75 callsubr
          146 -256 -67 callgsubr
          endchar
        </CharString>
        <CharString name="ncaron">
          -30 122 -72 callgsubr
          266 -234 -67 callgsubr
          endchar
        </CharString>
        <CharString name="ncommaaccent">
          -30 388 421 -67 callgsubr
          -131 -88 -80 callsubr
        </CharString>
        <CharString name="nine">
          -103 215 666 -15 callsubr
        </CharString>
        <CharString name="nine.osf">
          -103 214 459 -15 callsubr
        </CharString>
        <CharString name="nine.smcp">
          -180 162 460 rmoveto
          -67 -64 -40 -85 -55 34 -70 55 21 28 3 14 17 hvcurveto
          1 -73 3 -95 1 -26 rrcurveto
          -17 1 12 -16 9 hhcurveto
          17 22 13 21 -1 hvcurveto
          -1 40 1 148 -1 68 -1 42 5 64 -9 19 rrcurveto
          35 -18 -28 10 -37 hhcurveto
          26 -166 rmoveto
          -15 -9 -25 -7 -12 -3 rrcurveto
          -24 -6 -21 24 42 vvcurveto
          54 74 22 15 -12 22 callsubr
          -3 -18 -32 vvcurveto
          endchar
        </CharString>
        <CharString name="ninesuperior">
          -271 112 720 rmoveto
          -46 -2 -37 -25 -50 vvcurveto
          -16 4 -17 8 -15 vhcurveto
          11 -24 35 -9 27 5 -1 -27 -1 -24 3 -29 2 -18 7 -7 10 -2 rrcurveto
          22 -4 16 12 25 vvcurveto
          48 -2 92 1 37 vhcurveto
          1 40 -40 11 -20 -1 rrcurveto
          4 -54 rmoveto
          2 -12 -1 -18 -1 -10 rrcurveto
          -3 -6 -8 -1 -4 hhcurveto
          -7 -9 7 15 8 2 9 8 5 hvcurveto
          6 5 13 -2 5 -3 rrcurveto
          endchar
        </CharString>
        <CharString name="notequal">
          137 227 272 rmoveto
          4 9 17 32 29 55 -137 4 rcurveline
          25 callsubr
          171 -4 3 7 5 9 5 12 rlinecurve
          11 24 9 19 9 15 rrcurveto
          14 8 9 7 10 hhcurveto
          19 12 -14 -21 hvcurveto
          -5 vlineto
          -25 -67 64 4 rlineto
          13 -3 6 -6 -11 vvcurveto
          -22 -11 -12 -12 -6 vhcurveto
          -6 -12 -24 -4 -13 hhcurveto
          -7 -8 0 1 -10 hvcurveto
          -18 hlineto
          -1 -1 -17 -32 -34 -63 rrcurveto
          145 hlineto
          24 callgsubr
          -83 -59 -1 -2 -34 hvcurveto
          -1 -5 -3 -8 -5 -11 rrcurveto
          -39 -13 -16 -34 -21 hhcurveto
          -21 -14 12 23 11 6 21 12 29 hvcurveto
          -64 hlineto
          -15 -8 10 20 39 48 1 28 hvcurveto
          endchar
        </CharString>
        <CharString name="nsuperior">
          -200 241 565 rmoveto
          69 -11 80 -67 -22 -26 -6 -13 -18 vhcurveto
          11 -3 -10 14 -22 hhcurveto
          -12 -25 -13 -23 hvcurveto
          -61 6 -69 -63 vvcurveto
          -16 12 -15 17 19 24 14 22 vhcurveto
          103 2 0 37 39 hhcurveto
          28 -2 -96 -49 -17 14 -14 15 41 2 26 79 -1 hvcurveto
          endchar
        </CharString>
        <CharString name="ntilde">
          -30 163 -40 callgsubr
          225 -209 -67 callgsubr
          endchar
        </CharString>
        <CharString name="numbersign">
          -13 359 172 rmoveto
          17 -8 9 -11 -14 vvcurveto
          -16 -10 -13 -19 -3 vhcurveto
          -49 hlineto
          -1 -5 -1 -10 -1 -13 rrcurveto
          -44 -4 -6 -39 -32 hhcurveto
          -17 -9 9 18 -3 hvcurveto
          11 81 -92 -4 -5 -31 -5 -29 -1 -13 -11 -15 rlinecurve
          -7 -6 -7 -4 -8 hhcurveto
          -16 -15 13 21 -1 hvcurveto
          4 32 2 14 1 11 1 8 rlinecurve
          -17 hlineto
          -20 3 -13 14 16 vvcurveto
          16 15 15 21 vhcurveto
          32 hlineto
          8 33 13 37 19 43 rrcurveto
          -1 -26 -20 -1 -14 hhcurveto
          -21 1 -13 15 16 vvcurveto
          16 10 10 19 5 vhcurveto
          19 5 15 2 28 3 14 1 11 2 7 1 4 9 4 15 3 21 rrcurveto
          42 6 11 25 25 hhcurveto
          24 10 -11 -27 -13 -5 -23 -10 -31 hvcurveto
          9 24 -1 -3 39 hvcurveto
          2 7 2 8 2 11 rrcurveto
          52 11 5 30 29 hhcurveto
          20 10 -14 -27 -16 -6 -25 -11 -33 hvcurveto
          4 21 -4 -3 11 hvcurveto
          13 -4 7 -9 -15 vvcurveto
          -15 -13 -15 -6 vhcurveto
          -1 -3 -5 0 -5 hhcurveto
          -44 2 -10 -23 -8 -23 -6 -21 rlinecurve
          -7 -22 -5 -15 -4 -8 rrcurveto
          -105 116 rmoveto
          -7 -13 -15 -40 -25 -68 rrcurveto
          21 29 1 1 39 hvcurveto
          3 13 3 11 3 11 11 45 8 29 4 14 rrcurveto
          -29 -25 -1 -3 -20 hvcurveto
          endchar
        </CharString>
        <CharString name="o">
          237 457 -89 callgsubr
        </CharString>
        <CharString name="oacute">
          249 -75 callsubr
          -12 -220 -89 callgsubr
        </CharString>
        <CharString name="obreve">
          124 -44 callsubr
          113 -180 -89 callgsubr
        </CharString>
        <CharString name="ocaron">
          129 -72 callgsubr
          108 -198 -89 callgsubr
        </CharString>
        <CharString name="ocircumflex">
          218 652 -66 callsubr
        </CharString>
        <CharString name="ocircumflexacute">
          410 783 -98 callgsubr
          -192 -131 -66 callsubr
        </CharString>
        <CharString name="ocircumflexdotbelow">
          218 -63 callsubr
          19 -195 -10 callgsubr
        </CharString>
        <CharString name="ocircumflexgrave">
          287 754 -95 callgsubr
          -69 -102 -66 callsubr
        </CharString>
        <CharString name="ocircumflexhookabove">
          326 784 -96 callgsubr
          -108 -132 -66 callsubr
        </CharString>
        <CharString name="ocircumflextilde">
          172 782 -93 callgsubr
          46 -130 -66 callsubr
        </CharString>
        <CharString name="odieresis">
          82 -58 callsubr
          -70 -151 -89 callgsubr
        </CharString>
        <CharString name="odotbelow">
          237 457 -10 callgsubr
        </CharString>
        <CharString name="oe">
          160 519 -3 rmoveto
          21 19 15 26 19 -9 9 -20 2 hvcurveto
          -142 -3 -4 139 58 -1 21 0 38 -1 rlinecurve
          19 16 20 17 28 -28 3 -15 -49 -43 -1 2 -19 hvcurveto
          -1 39 0 40 -1 39 rrcurveto
          38 84 -1 2 35 hvcurveto
          23 1 12 18 16 vvcurveto
          15 -12 15 -25 1 vhcurveto
          1 -44 -106 4 -12 hhcurveto
          -33 -19 -9 -16 -6 hvcurveto
          16 -16 -32 9 -45 hhcurveto
          -121 -54 -54 -165 -113 42 -129 113 57 20 7 35 28 hvcurveto
          -32 8 19 -11 38 hhcurveto
          -151 396 rmoveto
          68 -8 0 -87 -73 vvcurveto
          -101 -28 -50 -55 -52 -37 96 72 94 34 65 70 -8 vhcurveto
          endchar
        </CharString>
        <CharString name="ogonek">
          -170 138 57 rmoveto
          -32 -5 -42 -34 -8 -62 5 callsubr
          14 -8 17 -23 -4 vhcurveto
          endchar
        </CharString>
        <CharString name="ograve">
          179 -50 callgsubr
          58 -213 -89 callgsubr
        </CharString>
        <CharString name="ohookabove">
          215 -53 callsubr
          22 -202 -89 callgsubr
        </CharString>
        <CharString name="ohorn">
          508 407 -73 callgsubr
          endchar
        </CharString>
        <CharString name="ohornacute">
          175 508 -26 callsubr
          333 -101 -73 callgsubr
          endchar
        </CharString>
        <CharString name="ohorndotbelow">
          508 407 -73 callgsubr
          -8 -113 -83 callgsubr
        </CharString>
        <CharString name="ohorngrave">
          239 504 -23 callsubr
          269 -97 -73 callgsubr
          endchar
        </CharString>
        <CharString name="ohornhookabove">
          157 586 -40 callsubr
          351 -179 -73 callgsubr
          endchar
        </CharString>
        <CharString name="ohorntilde">
          114 516 -22 callsubr
          394 -109 -73 callgsubr
          endchar
        </CharString>
        <CharString name="ohungarumlaut">
          120 513 -69 callsubr
          -41 -211 -89 callgsubr
        </CharString>
        <CharString name="omacron">
          341 -30 callsubr
          -104 -141 -89 callgsubr
        </CharString>
        <CharString name="one">
          -107 161 450 rmoveto
          -45 -36 -28 -36 -37 hhcurveto
          -21 -13 17 21 10 1 7 19 22 hvcurveto
          61 71 53 53 63 67 rrcurveto
          14 15 20 7 23 hhcurveto
          23 17 -17 -18 -1 hvcurveto
          -4 -75 -3 -98 -94 -94 3 -103 -112 vvcurveto
          -38 -28 -11 -25 -13 -15 10 29 vhcurveto
          95 -3 75 84 vvcurveto
          84 1 79 2 74 vhcurveto
          -25 -22 -24 -26 -25 -30 rrcurveto
          endchar
        </CharString>
        <CharString name="one.osf">
          -190 209 462 rmoveto
          -18 -16 -6 -12 -12 hvcurveto
          -42 -44 -35 -36 -42 -47 rrcurveto
          -14 -18 -2 -8 -7 vvcurveto
          -16 13 -19 21 30 20 28 30 24 vhcurveto
          11 14 10 11 10 10 rrcurveto
          -136 vlineto
          -55 1 -51 -62 vvcurveto
          -27 18 -11 11 19 26 12 32 vhcurveto
          74 -2 69 64 vvcurveto
          62 2 65 3 50 vhcurveto
          17 -18 17 -18 vhcurveto
          endchar
        </CharString>
        <CharString name="one.smcp">
          -190 209 460 rmoveto
          -17 -15 -5 -11 -11 hvcurveto
          -43 -45 -35 -37 -43 -48 rrcurveto
          -14 -17 -1 -6 -7 vvcurveto
          -15 11 -16 18 28 19 27 31 25 vhcurveto
          14 17 13 15 14 12 rrcurveto
          -1 -47 0 -50 -53 -57 1 -51 -64 vvcurveto
          -24 15 -9 10 18 23 10 29 vhcurveto
          76 -2 70 65 vvcurveto
          64 2 66 3 51 vhcurveto
          15 -15 14 -17 vhcurveto
          endchar
        </CharString>
        <CharString name="onehalf">
          116 -32 callgsubr
          -20 -405 rmoveto
          -52 1 -26 12 25 vvcurveto
          24 23 23 21 15 vhcurveto
          30 19 15 18 16 vvcurveto
          5 -1 6 -3 6 vhcurveto
          -5 -8 -2 -5 -12 hvcurveto
          -5 -12 -9 -2 -7 hhcurveto
          -14 -17 11 27 27 46 27 41 41 39 -18 -54 -27 -28 -37 -55 -46 hvcurveto
          68 8 rlineto
          19 10 -16 -15 -15 -4 -9 -9 -6 hvcurveto
          -5 -3 -4 -3 -4 -2 rrcurveto
          -3 -7 -15 -2 -21 hhcurveto
          endchar
        </CharString>
        <CharString name="onequarter">
          65 -32 callgsubr
          -44 -331 rmoveto
          -24 hlineto
          -28 -19 2 5 -9 hvcurveto
          -10 5 -5 8 13 6 callsubr
          15 -3 8 -9 -13 vvcurveto
          -13 -5 -9 -9 -5 vhcurveto
          -2 -1 -3 -2 -5 -2 -1 -6 0 -9 -1 -11 -1 -24 -1 -10 -9 -11 rrcurveto
          -6 -5 -6 -3 -7 hhcurveto
          -16 -12 12 20 -3 hvcurveto
          -25 100 rmoveto
          14 2 8 3 3 4 rrcurveto
          2 3 1 3 2 vvcurveto
          10 vlineto
          -1 4 0 3 3 vvcurveto
          -11 -11 -9 -13 -7 -13 rrcurveto
          endchar
        </CharString>
        <CharString name="onesuperior">
          -270 51 595 rmoveto
          -19 -4 -10 14 20 vvcurveto
          29 73 67 43 24 12 -23 -33 -42 -11 -69 -5 -44 vhcurveto
          -26 -3 -14 -24 -23 hhcurveto
          -23 -13 21 18 1 hvcurveto
          2 32 11 69 3 16 -13 -8 -20 -10 -15 -3 rrcurveto
          endchar
        </CharString>
        <CharString name="ordfeminine">
          -181 228 663 rmoveto
          -11 -9 -5 -7 -6 hvcurveto
          6 -18 -19 3 -17 hhcurveto
          -79 -46 -58 -114 -95 30 -58 71 31 26 9 18 21 hvcurveto
          -17 -2 2 -18 24 hhcurveto
          24 22 5 19 -2 hvcurveto
          -10 60 -1 86 2 99 rrcurveto
          29 1 -1 38 -33 hhcurveto
          -72 -71 rmoveto
          32 11 -22 -58 -54 -17 -64 -48 -36 -16 36 61 83 28 18 46 hvcurveto
          endchar
        </CharString>
        <CharString name="ordmasculine">
          -171 158 660 rmoveto
          -89 -4 -37 -71 -94 vvcurveto
          -70 44 -85 80 75 45 81 74 93 -46 78 -72 -2 vhcurveto
          -6 -65 rmoveto
          49 12 -49 -57 -74 -32 -7 -27 -29 -32 28 72 38 22 49 37 hvcurveto
          endchar
        </CharString>
        <CharString name="oslash">
          328 485 -28 callgsubr
        </CharString>
        <CharString name="oslashacute">
          245 -75 callsubr
          83 -192 -28 callgsubr
        </CharString>
        <CharString name="otilde">
          170 -40 callgsubr
          67 -173 -89 callgsubr
        </CharString>
        <CharString name="p">
          -100 161 462 rmoveto
          -58 -56 -8 -34 -2 hvcurveto
          -1 -62 1 -123 -191 vvcurveto
          -27 7 -17 34 18 13 8 15 1 vhcurveto
          1 17 1 99 -3 62 rrcurveto
          138 -21 65 60 106 vvcurveto
          71 -63 45 -96 vhcurveto
          -46 -71 rmoveto
          55 12 80 -16 3 -37 4 -70 -39 -19 -105 11 -1 66 1 28 2 25 rrcurveto
          endchar
        </CharString>
        <CharString name="paragraph">
          30 312 605 rmoveto
          -43 hlineto
          -5 -63 -2 -95 -127 vvcurveto
          0 0 -93 1 -186 vhcurveto
          -23 -16 -15 -31 -7 28 callsubr
          -6 3 -1 5 rrcurveto
          -4 8 0 0 9 vvcurveto
          -1 8 -5 149 71 vvcurveto
          35 1 34 3 32 vhcurveto
          -64 6 -45 23 -26 41 rrcurveto
          -14 22 -7 27 32 vvcurveto
          103 80 58 149 vhcurveto
          87 hlineto
          36 26 -2 -4 15 hvcurveto
          15 -4 8 -7 -9 vvcurveto
          -20 -5 -16 -32 -16 -12 1 1 -7 vhcurveto
          -4 -171 -2 -153 -135 vvcurveto
          2 -104 rlineto
          -27 -18 -19 -17 -25 -13 42 83 vhcurveto
          endchar
        </CharString>
        <CharString name="parenleft">
          -136 158 690 rmoveto
          29 44 32 37 14 9 rrcurveto
          4 7 7 2 9 hhcurveto
          17 21 -18 -9 -7 -17 -27 -33 -47 hvcurveto
          -67 -94 -25 -33 -8 -85 rrcurveto
          -5 -43 -2 -43 -45 vvcurveto
          -90 34 -140 37 -40 vhcurveto
          57 -62 28 -38 -14 vvcurveto
          -16 -25 -8 -21 -11 -10 4 8 -9 vhcurveto
          -124 124 -33 109 155 vvcurveto
          155 19 67 33 61 vhcurveto
          16 31 15 26 15 23 rrcurveto
          endchar
        </CharString>
        <CharString name="parenright">
          -106 174 -7 rmoveto
          -24 -33 -16 -19 -9 -6 rrcurveto
          -6 -9 -10 -3 -9 hhcurveto
          -19 -19 17 15 2 17 25 34 49 hvcurveto
          67 97 26 36 10 84 rrcurveto
          5 42 2 44 46 vvcurveto
          92 -35 140 -37 40 vhcurveto
          -59 61 -29 39 17 vvcurveto
          13 24 8 24 12 8 -3 -6 5 vhcurveto
          133 -132 29 -109 -171 vvcurveto
          -172 -26 -76 -95 -131 vhcurveto
          endchar
        </CharString>
        <CharString name="percent">
          173 539 599 rmoveto
          -11 -18 -32 -37 -53 vhcurveto
          -7 -9 -15 -22 -23 -34 -48 -69 -140 -220 1 callgsubr
          34 55 21 33 21 33 13 23 7 15 13 31 17 23 19 16 rrcurveto
          9 13 11 4 11 hhcurveto
          20 4 -10 -21 hvcurveto
          -472 -46 -8 callsubr
          74 8 callsubr
          endchar
        </CharString>
        <CharString name="percent.smcp">
          144 497 470 rmoveto
          -17 -49 -62 -3 -3 vhcurveto
          1 vlineto
          -7 -11 -41 -52 -45 -61 -48 -69 rlinecurve
          -48 -70 -35 -49 -23 -28 rrcurveto
          -29 -23 -17 -14 -13 hhcurveto
          -26 -17 17 19 19 18 25 36 37 hvcurveto
          36 40 24 33 28 39 31 44 rlinecurve
          31 44 34 47 37 51 4 6 7 13 9 19 9 19 13 15 18 13 rrcurveto
          8 13 11 4 8 hhcurveto
          15 10 -4 -12 2 hvcurveto
          1 -6 0 -8 -9 vvcurveto
          -443 -93 rmoveto
          76 70 54 72 72 49 -31 -67 -68 -73 -81 -80 -56 -54 41 76 vhcurveto
          187 20 rmoveto
          33 -11 16 -22 -52 -26 -34 -35 -35 10 -7 25 25 23 9 20 16 vhcurveto
          8 9 4 11 13 vvcurveto
          284 -200 rmoveto
          21 -23 10 -28 -33 vvcurveto
          -68 -64 -48 -72 -73 -48 34 70 70 75 60 69 34 27 -11 -23 21 vhcurveto
          -38 -81 rmoveto
          39 -18 6 -27 -27 -39 -20 -37 -5 0 -3 1 -3 vhcurveto
          -19 5 13 -9 19 hhcurveto
          39 34 28 23 hvcurveto
          endchar
        </CharString>
        <CharString name="period">
          -256 11 callgsubr
          endchar
        </CharString>
        <CharString name="periodcentered">
          -270 105 300 1 callsubr
        </CharString>
        <CharString name="perthousand">
          488 511 649 rmoveto
          45 -4 -24 -59 -32 hvcurveto
          -16 -30 -23 -37 -31 -45 -62 -90 -137 -215 1 callgsubr
          33 55 20 31 20 31 17 27 14 25 rrcurveto
          48 27 20 25 25 hhcurveto
          -444 -77 -8 callsubr
          313 hmoveto
          84 84 73 75 75 49 -61 -81 -81 -70 -59 -80 -80 -53 40 85 vhcurveto
          -239 8 callsubr
          451 46 rmoveto
          23 -9 -14 11 -21 hhcurveto
          -65 -28 -46 -40 -41 25 -18 36 36 47 43 29 15 -2 13 -5 11 hvcurveto
          endchar
        </CharString>
        <CharString name="perthousand.smcp">
          428 401 455 rmoveto
          -1 vlineto
          51 31 11 13 33 hhcurveto
          8 hlineto
          14 -5 7 -7 -9 vvcurveto
          -10 -6 -16 -12 -22 vhcurveto
          -13 -23 -20 -29 -29 -37 -29 -37 -39 -55 -49 -71 -49 -71 -36 -50 -23 -28 rrcurveto
          -28 -23 -17 -14 -13 hhcurveto
          -25 -18 17 20 19 21 25 34 36 hvcurveto
          34 35 33 45 61 88 30 44 31 43 31 43 rrcurveto
          -323 -38 rmoveto
          80 71 53 72 71 49 -34 -55 -55 -29 -48 -47 -31 vhcurveto
          -16 -24 -23 -8 -22 hhcurveto
          -45 -32 14 36 -23 hvcurveto
          -12 18 -6 21 25 vvcurveto
          188 23 rmoveto
          33 -11 16 -23 -52 -26 -33 -39 -39 17 0 27 27 41 25 37 vhcurveto
          57 -296 rmoveto
          70 76 60 68 68 45 -51 -67 -68 -63 -48 -73 -73 -48 34 70 vhcurveto
          296 65 rmoveto
          41 30 46 24 55 hhcurveto
          55 47 -54 -55 -28 -6 -23 -13 -18 hvcurveto
          -37 -25 -41 -19 -57 hhcurveto
          -63 -51 37 58 29 8 24 15 21 hvcurveto
          161 -24 rmoveto
          13 -8 -10 7 -13 hhcurveto
          -27 -22 -8 -17 -15 hvcurveto
          -9 -10 -5 -8 -6 vvcurveto
          -7 0 -5 1 -3 vhcurveto
          11 -17 12 -11 15 -5 rrcurveto
          40 35 28 23 11 -2 9 -3 6 hvcurveto
          -380 -38 rmoveto
          -26 1 13 -13 26 hhcurveto
          26 21 10 19 15 hvcurveto
          16 21 -8 17 -4 11 rrcurveto
          12 -5 -11 6 -17 hhcurveto
          -33 -40 -20 -37 hvcurveto
          endchar
        </CharString>
        <CharString name="peseta">
          100 437 515 rmoveto
          102 -8 -105 44 -109 hhcurveto
          -68 -71 -5 -48 -8 hvcurveto
          -3 -16 -1 -34 -43 vvcurveto
          -36 -11 -24 -22 -19 13 -14 24 hvcurveto
          9 hlineto
          1 -141 5 -174 1 -19 12 callsubr
          118 -20 138 -6 29 158 rrcurveto
          20 hlineto
          21 20 8 29 25 -13 17 -18 hvcurveto
          -249 71 rmoveto
          59 68 -25 -46 12 hvcurveto
          -77 -69 -1 -62 hhcurveto
          22 1 22 1 19 vhcurveto
          5 11 23 4 33 hhcurveto
          -67 -207 rmoveto
          -1 12 -1 20 24 vvcurveto
          74 -1 56 0 71 1 -26 -80 -82 12 -91 12 rrcurveto
          endchar
        </CharString>
        <CharString name="pi">
          146 347 359 rmoveto
          -38 -5 -34 -4 -27 -1 rrcurveto
          -308 vlineto
          -31 -1 -20 -18 -23 hhcurveto
          -23 -21 17 31 -4 hvcurveto
          313 vlineto
          -11 1 -25 4 -37 7 rrcurveto
          -22 9 -11 14 20 vvcurveto
          20 10 14 21 9 vhcurveto
          7 3 6 1 7 1 rrcurveto
          -9 45 40 -4 36 hhcurveto
          35 49 4 8 61 hvcurveto
          61 7 51 5 41 2 rrcurveto
          26 -8 13 -16 -23 vvcurveto
          -20 -15 -20 -27 -5 vhcurveto
          -22 -1 -26 -2 -29 -3 rrcurveto
          -319 vlineto
          -32 -4 -21 -19 -19 hhcurveto
          -29 -17 16 31 -3 hvcurveto
          endchar
        </CharString>
        <CharString name="plus">
          10 -14 callgsubr
          endchar
        </CharString>
        <CharString name="plusminus">
          5 -14 callgsubr
          -131 -405 rmoveto
          -24 -13 15 17 24 16 15 33 5 hvcurveto
          306 hlineto
          25 -8 12 -13 -18 vvcurveto
          -23 -11 -6 -29 -8 vhcurveto
          endchar
        </CharString>
        <CharString name="q">
          50 250 462 rmoveto
          -131 -74 -78 -147 -104 49 -132 149 62 41 19 26 27 hvcurveto
          0 47 -44 15 20 17 19 21 15 -41 40 0 vhcurveto
          27 39 14 41 43 vvcurveto
          147 -98 95 -124 vhcurveto
          -8 -65 rmoveto
          96 71 -77 -103 -31 -7 -25 -14 -21 hvcurveto
          -59 74 -24 22 -27 -21 -43 -35 52 -41 50 -52 rrcurveto
          -148 -57 -72 90 126 vvcurveto
          36 24 115 101 vhcurveto
          endchar
        </CharString>
        <CharString name="question">
          -102 278 570 rmoveto
          33 -43 29 -35 -35 -31 -19 -20 -13 vhcurveto
          -27 -19 -14 -13 -10 hhcurveto
          -20 -23 9 33 49 85 68 79 55 43 -22 -45 32 hvcurveto
          17 -24 9 -25 -26 vvcurveto
          -52 -24 -41 -30 -34 vhcurveto
          -15 -17 -16 -17 -15 -15 rrcurveto
          -37 -37 -18 -24 -12 vvcurveto
          -13 5 -13 9 -14 vhcurveto
          9 -15 4 -10 -5 vvcurveto
          -6 -2 -6 -3 -6 vhcurveto
          -12 -8 -11 -6 -15 hhcurveto
          -30 -39 47 51 51 21 37 28 30 hvcurveto
          14 15 14 14 15 13 rrcurveto
          45 42 22 32 23 vvcurveto
          -135 -486 rmoveto
          21 17 27 32 31 16 -6 -42 -42 -24 -11 -24 -25 -23 32 21 vhcurveto
          endchar
        </CharString>
        <CharString name="questiondown">
          -95 244 422 rmoveto
          -27 -21 -24 -21 -39 -15 4 44 43 24 10 22 22 28 -23 -27 vhcurveto
          -137 -490 rmoveto
          -32 44 -31 35 35 29 20 20 15 vhcurveto
          26 19 15 13 12 hhcurveto
          24 17 -16 -24 -49 -86 -68 -79 -55 -43 22 44 -32 hvcurveto
          -17 23 -9 25 27 vvcurveto
          52 25 42 30 34 vhcurveto
          15 17 15 16 15 15 rrcurveto
          36 36 18 24 13 vvcurveto
          12 -4 14 -9 15 vhcurveto
          -9 15 -5 11 7 vvcurveto
          14 18 18 17 36 39 -47 -51 -51 -22 -36 -28 -30 vhcurveto
          -14 -15 -14 -15 -15 -13 rrcurveto
          -45 -42 -23 -32 -23 vvcurveto
          endchar
        </CharString>
        <CharString name="quotedbl">
          -167 52 732 5 callgsubr
          191 17 rmoveto
          -24 -17 -13 -15 -22 -12 11 22 -2 vhcurveto
          32 1 21 2 11 vhcurveto
          2 10 1 20 31 vvcurveto
          21 3 15 13 16 hhcurveto
          15 14 -11 -19 4 hvcurveto
          endchar
        </CharString>
        <CharString name="quotedblbase">
          -172 67 73 rmoveto
          2 callsubr
          120 hmoveto
          2 callsubr
          endchar
        </CharString>
        <CharString name="quotedblleft">
          -155 59 733 rmoveto
          20 6 11 10 17 hhcurveto
          16 15 -11 -20 3 hvcurveto
          18 callgsubr
          -22 -11 -10 4 9 -8 vhcurveto
          -29 28 -12 73 48 vvcurveto
          188 -1 rmoveto
          18 callgsubr
          -24 -24 -21 24 54 -13 vhcurveto
          -7 27 -3 28 29 vvcurveto
          20 6 11 10 16 hhcurveto
          17 15 -11 -20 3 hvcurveto
          endchar
        </CharString>
        <CharString name="quotedblright">
          -167 120 775 rmoveto
          23 callsubr
          11 23 6 1 7 27 callgsubr
          20 4 15 11 16 hhcurveto
          120 hmoveto
          23 callsubr
          15 16 8 1 8 27 callgsubr
          3 13 6 10 11 5 rrcurveto
          2 5 5 1 5 hhcurveto
          endchar
        </CharString>
        <CharString name="quoteleft">
          -280 108 728 rmoveto
          -47 6 -31 25 -27 vhcurveto
          3 -7 1 -7 -6 vvcurveto
          -7 -1 -6 -3 -5 vhcurveto
          -11 -5 -10 -6 -14 hhcurveto
          -28 -19 24 54 -13 hvcurveto
          -7 27 -3 28 30 vvcurveto
          19 7 11 10 15 hhcurveto
          17 14 -12 -20 4 hvcurveto
          endchar
        </CharString>
        <CharString name="quoteright">
          -250 113 760 16 callgsubr
          90 64 29 callgsubr
          endchar
        </CharString>
        <CharString name="quotesinglbase">
          -262 -1 callgsubr
        </CharString>
        <CharString name="quotesingle">
          -306 52 840 5 callgsubr
          endchar
        </CharString>
        <CharString name="r">
          -70 115 38 -61 callgsubr
          endchar
        </CharString>
        <CharString name="racute">
          -70 212 -75 callsubr
          -97 -639 -61 callgsubr
          endchar
        </CharString>
        <CharString name="radical">
          83 441 667 rmoveto
          47 24 -12 -24 -16 -11 -14 -20 -5 hvcurveto
          2 -16 -18 1 -19 hhcurveto
          -17 -27 -14 -29 -11 -32 -11 -33 -17 -65 -22 -98 -22 -98 -26 -97 -31 -97 rrcurveto
          -17 -6 -10 -8 -15 hhcurveto
          -29 -28 78 70 -12 hvcurveto
          -13 78 -12 2 -50 -6 rlineto
          -10 -10 2 5 -9 hvcurveto
          -4 4 -2 6 8 vvcurveto
          16 6 14 23 12 vhcurveto
          5 11 15 3 17 hhcurveto
          64 14 -15 -108 27 hvcurveto
          63 241 33 131 30 79 26 28 rlinecurve
          11 10 15 5 21 hhcurveto
          endchar
        </CharString>
        <CharString name="rcaron">
          -70 92 -72 callgsubr
          23 -617 -61 callgsubr
          endchar
        </CharString>
        <CharString name="rcommaaccent">
          -70 115 38 -61 callgsubr
          104 -423 -80 callsubr
        </CharString>
        <CharString name="registered">
          290 379 665 rmoveto
          82 -1 59 -10 37 -18 17 -9 16 -12 15 -14 rrcurveto
          61 -59 30 -89 -117 vvcurveto
          -201 -105 -128 -196 -7 vhcurveto
          -124 -88 49 47 -49 hvcurveto
          -49 47 -38 84 110 vvcurveto
          110 68 107 101 60 vhcurveto
          51 30 54 17 58 4 rrcurveto
          1 -69 rmoveto
          -147 -16 -109 -115 -140 vvcurveto
          -141 111 -107 152 151 81 93 159 130 -40 82 -81 34 vhcurveto
          -32 13 -39 7 -47 1 rrcurveto
          -9 -79 rmoveto
          87 50 -40 -64 -39 -21 -38 -36 -20 hvcurveto
          3 -5 9 -14 17 -24 17 -25 10 -19 5 -14 2 -9 rcurveline
          -15 -7 -13 -15 -10 vhcurveto
          -4 -7 -7 -2 -8 hhcurveto
          -8 -7 6 13 -6 hvcurveto
          -5 17 -11 21 -17 26 -17 25 -11 17 -4 9 rrcurveto
          -29 -21 1 2 -14 hvcurveto
          -5 0 -9 1 -11 vhcurveto
          -12 0 -9 -7 vvcurveto
          -27 vlineto
          -42 -2 -15 -21 -27 hhcurveto
          -16 -8 10 19 hvcurveto
          4 291 rlineto
          40 13 47 1 28 hhcurveto
          -22 -149 rmoveto
          -5 7 13 -3 19 hhcurveto
          38 45 17 28 27 -55 18 -33 -17 -11 0 -1 -6 hvcurveto
          endchar
        </CharString>
        <CharString name="ring">
          -268 109 657 -73 callsubr
          endchar
        </CharString>
        <CharString name="ringbelowcomb">
          -470 301 -37 -73 callsubr
          endchar
        </CharString>
        <CharString name="s">
          -70 215 463 -62 callgsubr
          endchar
        </CharString>
        <CharString name="sacute">
          -70 225 -75 callsubr
          -10 -214 -62 callgsubr
          endchar
        </CharString>
        <CharString name="scaron">
          -70 105 -72 callgsubr
          110 -192 -62 callgsubr
          endchar
        </CharString>
        <CharString name="scedilla">
          -70 238 -29 rmoveto
          21 callsubr
          31 rrcurveto
          77 10 57 43 89 vvcurveto
          -38 callgsubr
          -36 callgsubr
          -39 66 -28 63 -5 vhcurveto
          -2 -9 0 -9 -9 -13 callsubr
          rrcurveto
          endchar
        </CharString>
        <CharString name="scircumflex">
          -70 194 -63 callsubr
          21 -189 -62 callgsubr
          endchar
        </CharString>
        <CharString name="scommaaccent">
          -70 215 463 -62 callgsubr
          34 -495 -80 callsubr
        </CharString>
        <CharString name="section">
          -86 164 77 rmoveto
          29 17 9 17 4 hvcurveto
          1 4 0 4 4 vvcurveto
          25 -16 22 -31 19 vhcurveto
          -63 38 -62 32 68 vvcurveto
          34 14 32 27 30 vhcurveto
          13 13 14 12 16 11 rrcurveto
          -36 17 -18 26 35 vvcurveto
          54 20 38 40 22 vhcurveto
          16 25 27 8 30 hhcurveto
          53 26 -14 -29 -21 -15 -22 -19 hvcurveto
          -40 5 rlineto
          -43 -25 -21 -32 -32 29 -20 37 -14 hvcurveto
          36 -14 39 -15 25 -37 rrcurveto
          13 -19 6 -22 -27 vvcurveto
          -54 -24 -48 -48 -43 vhcurveto
          19 -24 5 -20 -40 vvcurveto
          -71 -55 -33 -63 -63 -56 14 32 25 13 13 25 vhcurveto
          163 193 rmoveto
          13 17 6 18 17 vvcurveto
          35 -39 39 -36 -37 -51 -37 -35 -36 35 -24 25 -14 vhcurveto
          12 -7 13 -8 14 -7 17 10 15 14 13 18 rrcurveto
          endchar
        </CharString>
        <CharString name="semicolon">
          -238 168 356 rmoveto
          -28 -27 -29 -22 -22 -16 5 12 -12 vhcurveto
          -7 6 -3 8 10 vvcurveto
          19 6 24 18 19 vhcurveto
          9 9 10 5 11 hhcurveto
          23 28 -19 -41 4 hvcurveto
          -317 vmoveto
          -73 -51 -52 -29 -15 -7 5 10 5 7 11 14 17 vhcurveto
          14 17 8 14 3 12 rrcurveto
          -29 -27 26 30 30 19 28 32 15 12 -3 -6 9 hvcurveto
          17 -11 8 -23 -37 vvcurveto
          endchar
        </CharString>
        <CharString name="seven">
          25 393 432 -19 callsubr
        </CharString>
        <CharString name="seven.osf">
          25 405 224 -19 callsubr
        </CharString>
        <CharString name="seven.smcp">
          -120 279 243 rmoveto
          40 1 12 11 22 vvcurveto
          15 -9 12 -37 -2 vhcurveto
          -29 -2 4 45 12 66 -12 11 rlinecurve
          15 -17 -178 24 -13 hhcurveto
          -15 -12 -16 -12 -12 4 -16 18 -3 hvcurveto
          22 -5 102 -13 33 -12 -4 -44 2 6 -4 -35 rrcurveto
          -24 -14 -1 -24 hhcurveto
          -26 -7 -16 -12 -13 12 -18 14 1 hvcurveto
          22 1 21 2 21 1 rrcurveto
          -4 -58 -2 -62 -69 vvcurveto
          -35 7 -20 17 15 22 8 26 20 4 155 1 34 vhcurveto
          endchar
        </CharString>
        <CharString name="sevensuperior">
          -228 100 576 rmoveto
          -1 -26 -1 -19 -29 vvcurveto
          -30 7 -12 17 10 21 4 28 11 0 43 2 30 vhcurveto
          23 hlineto
          7 1 15 7 19 vvcurveto
          17 -6 13 -16 -1 vhcurveto
          -19 -1 3 25 3 21 -8 15 rlinecurve
          18 -8 -99 10 -9 hhcurveto
          -15 -9 -18 -10 -7 3 -18 17 -2 hvcurveto
          11 -3 38 -6 20 -3 -1 -8 0 -7 -1 -8 -11 -1 -11 0 -10 -1 rrcurveto
          -10 -1 -9 -11 -15 vvcurveto
          -16 11 -11 12 vhcurveto
          endchar
        </CharString>
        <CharString name="six">
          -71 139 341 -9 callsubr
        </CharString>
        <CharString name="six.osf">
          -71 137 343 -9 callsubr
        </CharString>
        <CharString name="six.smcp">
          -170 198 460 rmoveto
          -42 30 -53 -113 -28 -57 rrcurveto
          -32 -74 -12 -62 -55 vvcurveto
          -66 2 23 -63 75 hhcurveto
          102 1 36 63 78 vvcurveto
          81 -61 47 -93 -21 vhcurveto
          14 35 57 114 11 15 11 15 8 19 -18 13 rrcurveto
          -48 -269 rmoveto
          42 15 -22 -27 -38 -21 -35 -52 -24 -18 22 36 64 33 0 25 hvcurveto
          endchar
        </CharString>
        <CharString name="sixsuperior">
          -249 134 720 rmoveto
          -25 -34 -56 -24 -13 hvcurveto
          -20 -38 -7 -34 -27 vvcurveto
          -35 1 15 -46 51 hhcurveto
          66 1 22 38 45 vvcurveto
          49 -40 27 -36 -8 vhcurveto
          16 33 30 33 2 14 rrcurveto
          14 2 -14 14 -16 hhcurveto
          -19 -156 rmoveto
          16 5 -13 -9 hvcurveto
          -19 -1 -12 -4 -17 hhcurveto
          -7 -11 9 13 17 9 6 18 hvcurveto
          endchar
        </CharString>
        <CharString name="slash">
          -47 331 713 rmoveto
          17 9 14 9 18 hhcurveto
          15 13 -10 -15 -8 -8 -23 -16 -38 hvcurveto
          -17 -39 -39 -98 -61 -157 -62 -157 -50 -124 -39 -90 rrcurveto
          -15 -11 -13 -8 -13 hhcurveto
          -18 -9 10 19 3 1 4 2 7 hvcurveto
          37 87 49 121 59 155 59 155 47 116 33 79 rrcurveto
          endchar
        </CharString>
        <CharString name="softhyphen">
          -1 callsubr
        </CharString>
        <CharString name="space">
          -240 endchar
        </CharString>
        <CharString name="sterling">
          80 304 664 rmoveto
          -89 -77 -52 -122 -20 1 -82 5 -41 hvcurveto
          -8 -45 0 -1 -19 hvcurveto
          -19 -1 -16 -16 -21 vvcurveto
          -29 13 -15 26 1 vhcurveto
          69 3 2 -33 2 -64 -4 -33 rlinecurve
          -27 -21 -78 -44 0 callsubr
          -16 -45 hhcurveto
          -49 -50 21 40 -25 hvcurveto
          4 38 0 52 -3 44 rrcurveto
          35 74 -2 5 35 hvcurveto
          21 3 5 21 20 vvcurveto
          23 -7 13 -39 -25 -69 -2 -3 -31 vhcurveto
          -2 36 -11 104 19 53 rrcurveto
          34 12 29 15 8 callgsubr
          endchar
        </CharString>
        <CharString name="sterling.smcp">
          61 142 284 rmoveto
          18 vlineto
          -5 83 rlineto
          95 64 48 92 27 25 -4 -9 22 vhcurveto
          1 vlineto
          37 -13 40 -25 -32 vvcurveto
          -20 -4 -20 -12 -16 hhcurveto
          -13 -14 7 15 -15 hvcurveto
          14 -16 -19 7 -22 hhcurveto
          -35 -26 -12 -24 -17 hvcurveto
          -4 -36 -2 -30 -24 vvcurveto
          -48 vlineto
          2 9 23 1 37 hhcurveto
          36 18 -12 -23 -20 -15 -18 -21 -7 hvcurveto
          -84 hlineto
          1 -9 1 -16 -21 vvcurveto
          -22 -1 -15 -2 -9 vhcurveto
          -25 23 40 -16 39 hhcurveto
          37 28 11 22 18 hvcurveto
          1 2 rlineto
          8 11 10 4 10 hhcurveto
          19 13 -12 -19 -19 -9 -17 -18 -15 hvcurveto
          -28 -34 -38 -14 -43 hhcurveto
          -25 -24 5 9 -22 hvcurveto
          -12 3 -1 1 -5 1 -7 2 rlinecurve
          -27 9 -19 9 -12 11 -15 -1 -17 -9 -21 -16 rrcurveto
          -17 -21 -13 -8 -7 hhcurveto
          -14 -18 17 24 23 33 29 32 18 hvcurveto
          16 9 8 5 1 1 rrcurveto
          85 -51 vlineto
          -27 1 -13 15 29 vvcurveto
          21 19 16 23 vhcurveto
          endchar
        </CharString>
        <CharString name="summation">
          102 476 671 rmoveto
          20 -5 22 callgsubr
          -15 -7 -12 -14 -11 vhcurveto
          -6 -5 -7 -4 -8 -2 rrcurveto
          -125 -93 -1 -3 -62 hvcurveto
          65 -99 47 -68 28 -37 rrcurveto
          8 -13 4 -14 -14 vvcurveto
          -14 -1 -9 -3 -5 vhcurveto
          -21 -35 -25 -40 -29 -44 -30 -45 -26 -41 -21 -38 276 6 rcurveline
          19 -5 22 callgsubr
          -19 -19 -23 -23 -7 vhcurveto
          -347 -6 rlineto
          -23 -12 10 19 5 1 7 3 7 hvcurveto
          67 114 61 100 54 87 -21 29 -30 44 -38 58 -38 57 -29 42 -19 27 rrcurveto
          -3 6 -1 8 9 vvcurveto
          18 20 21 27 4 vhcurveto
          endchar
        </CharString>
        <CharString name="t">
          -40 306 399 -28 callsubr
          endchar
        </CharString>
        <CharString name="tbar">
          -13 306 399 -32 callsubr
          -2 -24 -2 -35 -1 -40 -64 2 rcurveline
          -26 2 -15 -14 -32 vvcurveto
          -16 10 -8 19 -1 vhcurveto
          75 -4 rlineto
          -65 1 -72 2 -63 vhcurveto
          9 callgsubr
          -2 59 0 70 65 vvcurveto
          25 27 1 3 33 hvcurveto
          25 2 11 12 -2 35 -1 13 -14 10 -16 -1 rrcurveto
          -2 -32 -28 -2 -27 hhcurveto
          1 102 rlineto
          endchar
        </CharString>
        <CharString name="tcaron">
          -40 122 -72 callgsubr
          184 -256 -28 callsubr
          endchar
        </CharString>
        <CharString name="tcedilla">
          -40 306 399 -31 callsubr
          -7 1 -6 3 -4 vhcurveto
          -1 -8 0 -7 -8 vvcurveto
          -16 callgsubr
          33 rrcurveto
          3 5 1 5 6 vvcurveto
          13 callgsubr
          endchar
        </CharString>
        <CharString name="thorn">
          -70 50 31 rmoveto
          -20 9 -11 16 20 24 8 29 vhcurveto
          110 vlineto
          170 60 41 88 49 -26 38 -37 19 hvcurveto
          -55 26 -76 5 -36 -4 rrcurveto
          28 vlineto
          20 -21 4 -10 -18 -20 -7 -22 vhcurveto
          69 -89 rmoveto
          112 53 -3 -61 -68 -137 0 -28 3 hvcurveto
          endchar
        </CharString>
        <CharString name="three">
          -22 108 533 rmoveto
          -26 -18 -41 7 35 vvcurveto
          54 79 49 97 91 74 -52 -84 -63 -6 -63 -66 -39 vhcurveto
          64 -24 42 -44 -76 vvcurveto
          -117 -81 -98 -99 -115 -70 61 44 -9 vhcurveto
          27 -6 20 20 22 53 20 -70 83 hhcurveto
          72 28 45 80 62 -46 44 -86 2 hvcurveto
          -16 1 -28 0 -3 31 -1 24 11 17 28 2 rrcurveto
          52 4 53 45 70 vvcurveto
          37 -37 38 -43 -44 -39 -24 -27 -27 vhcurveto
          endchar
        </CharString>
        <CharString name="three.osf">
          -22 217 459 rmoveto
          -97 -79 -49 -54 -35 41 -7 26 18 hvcurveto
          27 27 39 24 44 hhcurveto
          43 37 -38 -37 -70 -53 -45 -52 -4 hvcurveto
          -28 -2 -11 -17 1 -24 3 -31 28 0 16 -1 rrcurveto
          86 -2 46 -44 -62 vvcurveto
          -80 -28 -45 -72 vhcurveto
          -83 -20 70 -53 hhcurveto
          -22 -20 -20 -27 6 hvcurveto
          -44 9 70 -61 115 hhcurveto
          99 81 98 117 76 -42 44 -64 24 hvcurveto
          66 39 6 63 63 vvcurveto
          84 -74 52 -91 vhcurveto
          endchar
        </CharString>
        <CharString name="three.smcp">
          -130 93 365 rmoveto
          19 18 25 15 29 hhcurveto
          27 23 -23 -24 -45 -33 -28 -35 -3 hvcurveto
          -21 -1 -10 -15 1 -18 rrcurveto
          -26 2 23 0 12 hhcurveto
          57 -2 28 -27 -41 vvcurveto
          -53 -17 -27 -46 vhcurveto
          -59 -2 48 -46 hhcurveto
          -17 -17 -17 -21 5 hvcurveto
          -32 6 51 -44 80 hhcurveto
          70 57 70 82 50 -26 32 -40 18 hvcurveto
          39 28 4 42 41 vvcurveto
          60 -53 38 -64 -68 -57 -36 -39 -29 34 -5 19 13 vhcurveto
          endchar
        </CharString>
        <CharString name="threequarters">
          66 362 294 rmoveto
          -122 -165 -66 -90 -9 -15 rrcurveto
          -15 -10 -12 -8 -14 hhcurveto
          -14 -11 20 callsubr
          6 vvcurveto
          6 2 6 5 7 vhcurveto
          5 7 28 37 53 69 52 68 33 44 13 20 13 20 10 15 6 9 14 21 rcurveline
          69 46 34 34 21 27 callsubr
          -16 -20 -11 -4 -9 -8 -8 hvcurveto
          -355 -4 rmoveto
          -19 -10 11 23 22 17 11 35 49 44 -15 -33 -34 -10 -22 -20 -10 hvcurveto
          23 -4 14 -31 -24 vvcurveto
          -24 -29 -42 -42 -42 -55 16 28 17 16 15 20 1 vhcurveto
          -4 22 12 -2 2 hhcurveto
          11 10 6 12 7 hvcurveto
          -3 -20 9 8 -10 hvcurveto
          -5 4 -3 6 9 vvcurveto
          9 3 6 5 3 vhcurveto
          33 18 rlineto
          7 -3 -11 4 -18 hhcurveto
          283 -327 rmoveto
          -24 hlineto
          -29 -19 3 5 -9 hvcurveto
          -10 5 -5 8 12 6 callsubr
          16 -3 8 -9 -17 vvcurveto
          -21 -13 -3 -12 -4 vhcurveto
          -1 -5 0 -7 -10 vvcurveto
          -33 -1 -4 -25 -21 hhcurveto
          -21 -11 11 21 -2 hvcurveto
          -27 100 rmoveto
          1 7 9 0 11 hhcurveto
          1 8 0 12 16 vvcurveto
          -9 -9 -9 -12 -10 -16 rrcurveto
          endchar
        </CharString>
        <CharString name="threesuperior">
          -250 93 720 rmoveto
          -37 -18 -16 -23 -25 15 -14 17 2 hvcurveto
          40 5 16 0 -14 -25 -31 7 -23 vvcurveto
          -17 52 0 -21 -36 vhcurveto
          -17 -10 -29 19 -22 hhcurveto
          -15 -8 -3 -14 -6 hvcurveto
          -8 -18 4 -14 9 -9 rrcurveto
          -14 14 24 -11 44 hhcurveto
          44 31 33 40 25 -7 30 -33 6 hvcurveto
          32 19 3 24 28 vvcurveto
          37 -47 18 -53 vhcurveto
          endchar
        </CharString>
        <CharString name="tilde">
          -70 159 631 -93 callgsubr
          endchar
        </CharString>
        <CharString name="tildecomb">
          -470 -453 631 -93 callgsubr
          endchar
        </CharString>
        <CharString name="trademark">
          6 88 630 rmoveto
          23 -36 vlineto
          -20 -8 14 12 20 29 10 57 57 30 -8 -16 2 hvcurveto
          -15 -14 -11 -21 -4 vhcurveto
          -25 hlineto
          4 -126 rlineto
          -20 -4 -15 -13 -12 hhcurveto
          -18 -9 9 18 hvcurveto
          352 1 rmoveto
          -19 -15 -9 -14 -14 -8 9 17 -2 vhcurveto
          -2 16 -1 12 1 21 rrcurveto
          1 11 0 7 3 vvcurveto
          -23 -17 -14 -12 -13 hhcurveto
          -13 -16 12 23 -17 hvcurveto
          2 -63 rlineto
          -24 -3 -10 -12 -17 hhcurveto
          -12 -14 16 15 hvcurveto
          15 -1 18 16 vvcurveto
          -1 7 0 9 10 vvcurveto
          19 0 16 3 17 vhcurveto
          39 3 11 19 19 hhcurveto
          20 12 -14 -32 20 hvcurveto
          9 -17 6 -9 1 -2 11 18 rcurveline
          28 17 19 28 27 hhcurveto
          10 8 -11 -22 7 hvcurveto
          endchar
        </CharString>
        <CharString name="two">
          -2 245 662 rmoveto
          -84 -2 -94 -36 -55 vvcurveto
          -40 43 -5 29 25 vhcurveto
          82 70 104 -34 -107 vvcurveto
          -113 -130 -84 -65 -75 vhcurveto
          -56 -64 -47 -28 -76 vvcurveto
          -34 64 -6 55 2 vhcurveto
          76 145 -8 18 52 hvcurveto
          25 9 11 18 20 vvcurveto
          16 -13 17 -21 4 vhcurveto
          -95 -8 -97 -3 -84 6 rrcurveto
          95 142 169 60 195 vvcurveto
          97 -63 81 -101 -2 vhcurveto
          endchar
        </CharString>
        <CharString name="two.osf">
          -90 195 461 rmoveto
          -57 -1 -71 -28 -42 vvcurveto
          -37 40 -4 23 20 vhcurveto
          51 42 58 -20 -62 vvcurveto
          -70 -84 -53 -43 -51 vhcurveto
          -36 -42 -35 -20 -56 vvcurveto
          -32 52 -4 36 1 vhcurveto
          50 99 -6 13 36 hvcurveto
          20 8 10 17 16 vvcurveto
          14 -14 17 -17 3 vhcurveto
          -57 -5 -58 -2 -51 2 rrcurveto
          63 83 104 44 129 vvcurveto
          67 -47 60 -72 -1 vhcurveto
          endchar
        </CharString>
        <CharString name="two.smcp">
          -90 195 463 rmoveto
          -58 -1 -69 -27 -40 vvcurveto
          -34 35 -3 22 19 vhcurveto
          54 45 66 -22 -68 vvcurveto
          -75 -88 -56 -44 -52 vhcurveto
          -38 -43 -34 -20 -55 vvcurveto
          -28 49 -4 37 1 vhcurveto
          52 101 -6 13 36 hvcurveto
          19 7 8 15 15 vvcurveto
          13 -11 14 -16 3 vhcurveto
          -62 -5 -63 -2 -55 3 rrcurveto
          65 92 111 43 133 vvcurveto
          68 -45 58 -72 -1 vhcurveto
          endchar
        </CharString>
        <CharString name="twosuperior">
          -240 113 720 rmoveto
          -41 -46 -32 -27 -41 32 -2 27 12 hvcurveto
          23 10 6 0 -16 vvcurveto
          -16 -17 -19 -28 -22 vhcurveto
          -23 -18 -22 -26 -24 vvcurveto
          -25 26 -10 53 -2 vhcurveto
          77 -2 27 1 43 vvcurveto
          15 -3 18 -24 -3 vhcurveto
          -23 -3 -23 -2 -23 -3 rrcurveto
          55 45 26 44 27 vvcurveto
          55 -38 23 -41 vhcurveto
          endchar
        </CharString>
        <CharString name="u">
          367 463 -88 callsubr
        </CharString>
        <CharString name="uacute">
          255 -75 callsubr
          112 -214 -88 callsubr
        </CharString>
        <CharString name="ubreve">
          130 -44 callsubr
          237 -174 -88 callsubr
        </CharString>
        <CharString name="ucaron">
          135 -72 callgsubr
          232 -192 -88 callsubr
        </CharString>
        <CharString name="ucircumflex">
          224 -63 callsubr
          143 -189 -88 callsubr
        </CharString>
        <CharString name="udieresis">
          88 -58 callsubr
          54 -145 -88 callsubr
        </CharString>
        <CharString name="udotbelow">
          367 463 -91 callgsubr
          -138 -503 -83 callgsubr
        </CharString>
        <CharString name="ugrave">
          185 -50 callgsubr
          182 -207 -88 callsubr
        </CharString>
        <CharString name="uhookabove">
          221 -53 callsubr
          146 -196 -88 callsubr
        </CharString>
        <CharString name="uhorn">
          516 417 -76 callgsubr
          endchar
        </CharString>
        <CharString name="uhornacute">
          181 508 -26 callsubr
          335 -91 -76 callgsubr
          endchar
        </CharString>
        <CharString name="uhorndotbelow">
          516 417 -76 callgsubr
          -287 -457 -83 callgsubr
        </CharString>
        <CharString name="uhorngrave">
          245 504 -23 callsubr
          271 -87 -76 callgsubr
          endchar
        </CharString>
        <CharString name="uhornhookabove">
          163 586 -40 callsubr
          353 -169 -76 callgsubr
          endchar
        </CharString>
        <CharString name="uhorntilde">
          120 516 -22 callsubr
          396 -99 -76 callgsubr
          endchar
        </CharString>
        <CharString name="uhungarumlaut">
          126 513 -69 callsubr
          83 -205 -88 callsubr
        </CharString>
        <CharString name="umacron">
          347 -30 callsubr
          20 -135 -88 callsubr
        </CharString>
        <CharString name="underscore">
          101 504 -60 rmoveto
          -150 -3 -149 5 -150 -2 rrcurveto
          -16 -8 9 18 17 11 15 25 hvcurveto
          150 -1 149 -1 150 2 rrcurveto
          19 6 -15 -13 -15 -23 -16 -14 hvcurveto
          endchar
        </CharString>
        <CharString name="uni0000">
          -470 endchar
        </CharString>
        <CharString name="uni00A0">
          -240 endchar
        </CharString>
        <CharString name="uni021A">
          -2 273 387 -33 callsubr
          11 -59 -80 callsubr
        </CharString>
        <CharString name="uni021B">
          -40 306 399 -28 callsubr
          18 -420 -80 callsubr
        </CharString>
        <CharString name="uni02BC">
          4 callgsubr
        </CharString>
        <CharString name="uni02F3">
          -268 109 -130 -73 callsubr
          endchar
        </CharString>
        <CharString name="uni275B">
          -154 202 773 rmoveto
          26 callgsubr
          hvcurveto
          3 callsubr
          endchar
        </CharString>
        <CharString name="uni275C">
          -157 -4 callgsubr
          endchar
        </CharString>
        <CharString name="uni275D">
          102 193 773 rmoveto
          0 3 0 6 26 callgsubr
          vhcurveto
          3 callsubr
          259 hmoveto
          25 5 -14 -9 -9 -6 -8 -11 -6 hvcurveto
          -5 -3 -6 -3 -7 -3 -29 -13 -28 -21 -5 -52 rrcurveto
          6 11 16 3 20 hhcurveto
          40 48 -38 -57 -57 -48 -53 -63 -63 -42 53 72 72 25 62 44 41 hvcurveto
          21 20 24 12 26 5 rrcurveto
          endchar
        </CharString>
        <CharString name="uni275E">
          95 -4 callgsubr
          243 hmoveto
          -21 -10 7 15 11 11 11 21 10 hvcurveto
          9 4 9 5 9 6 22 14 12 24 3 33 20 callgsubr
          -48 37 57 56 52 56 51 25 21 -6 -11 17 hvcurveto
          34 -23 17 -38 -51 vvcurveto
          -104 -61 -92 -79 -13 vhcurveto
          endchar
        </CharString>
        <CharString name="uni2766">
          37 346 295 rmoveto
          39 31 -14 -27 22 hvcurveto
          11 -13 5 -15 -16 vvcurveto
          -5 -2 -8 -3 -13 vhcurveto
          -9 -29 -54 -21 -48 -11 rrcurveto
          -49 -11 -48 -23 -33 vvcurveto
          -21 18 -11 37 13 18 5 11 21 vhcurveto
          11 21 12 5 4 hhcurveto
          7 4 -3 -6 -35 -40 -17 -52 -117 -92 73 116 68 50 73 48 13 19 -4 -9 25 hvcurveto
          -9 25 15 -4 5 hhcurveto
          10 5 10 21 40 -66 61 -49 -25 -16 -12 -24 -9 hvcurveto
          -8 -3 -13 -8 -9 hhcurveto
          -11 -6 7 14 48 56 27 70 70 62 -27 -44 3 hvcurveto
          -12 9 -9 13 12 13 14 29 15 vhcurveto
          28 15 13 14 13 hhcurveto
          11 13 -9 -6 -3 -5 -6 -10 -9 hvcurveto
          -10 -9 -7 -10 -3 -12 -8 -25 -22 -19 -22 -4 -11 -3 -11 -2 -10 -3 rrcurveto
          -23 -6 -12 -18 -29 vvcurveto
          -89 150 rmoveto
          33 -31 28 -24 23 -17 rrcurveto
          41 -37 31 -41 vhcurveto
          endchar
        </CharString>
        <CharString name="uni2767">
          176 258 293 rmoveto
          60 39 53 53 11 10 -2 -3 9 vhcurveto
          32 -9 23 -59 12 -53 rrcurveto
          -53 12 24 -52 35 hhcurveto
          24 12 17 35 20 -6 22 -12 23 hvcurveto
          -12 23 -6 13 4 vvcurveto
          7 3 4 7 37 21 -44 -57 -128 -81 -100 -125 -77 -79 55 55 13 5 20 10 27 vhcurveto
          9 27 5 18 9 vvcurveto
          7 -11 3 -22 -44 -67 -70 -52 -27 13 -18 27 -10 vhcurveto
          11 -6 6 -10 -14 vvcurveto
          -12 -7 -6 -15 -53 -30 59 77 76 30 70 48 3 vhcurveto
          15 1 8 10 18 vvcurveto
          9 -8 8 -15 7 vhcurveto
          -46 21 -23 20 20 vvcurveto
          9 2 7 4 4 vhcurveto
          3 4 3 2 3 hhcurveto
          3 6 -5 -10 10 hvcurveto
          9 -11 12 -7 13 -4 27 -9 21 -25 5 -24 3 -12 2 -11 3 -11 rrcurveto
          -25 7 19 -13 33 hhcurveto
          -87 -5 rmoveto
          -51 -30 -59 -29 0 0 -1 1 -1 hvcurveto
          -4 vlineto
          17 17 51 60 12 17 rrcurveto
          endchar
        </CharString>
        <CharString name="uogonek">
          243 hmoveto
          161 8 20 133 -27 296 rrcurveto
          -10 callsubr
          -87 callsubr
          -15 -187 19 -187 124 -42 -8 -14 -6 -18 -3 -20 -43 callsubr
          28 17 17 15 13 hvcurveto
          endchar
        </CharString>
        <CharString name="uring">
          227 660 -73 callsubr
          142 -147 -88 callsubr
        </CharString>
        <CharString name="utilde">
          176 -40 callgsubr
          191 -167 -88 callsubr
        </CharString>
        <CharString name="v">
          -10 392 460 rmoveto
          -25 8 -16 -19 -20 -48 -31 -73 -51 -155 -12 -33 -16 38 -18 52 -32 64 rrcurveto
          84 -43 -15 66 -38 hhcurveto
          -22 -21 -21 -15 -19 -1 9 44 -84 hvcurveto
          53 -102 29 -63 38 -92 rrcurveto
          -30 12 13 -27 18 hhcurveto
          22 11 16 19 7 hvcurveto
          16 43 24 65 30 98 33 110 26 43 7 16 14 35 -21 10 -15 5 rrcurveto
          endchar
        </CharString>
        <CharString name="w">
          30 26 413 -77 callsubr
        </CharString>
        <CharString name="wacute">
          30 274 -75 callsubr
          -248 -264 -77 callsubr
        </CharString>
        <CharString name="wcircumflex">
          30 243 -63 callsubr
          -217 -239 -77 callsubr
        </CharString>
        <CharString name="wdieresis">
          30 107 -58 callsubr
          -306 -195 -77 callsubr
        </CharString>
        <CharString name="wgrave">
          30 204 -50 callgsubr
          -178 -257 -77 callsubr
        </CharString>
        <CharString name="x">
          30 168 259 rmoveto
          -57 78 -46 56 28 vvcurveto
          17 20 22 21 35 32 -73 -118 82 vhcurveto
          57 60 26 47 41 62 rrcurveto
          15 11 14 8 16 hhcurveto
          17 14 -22 -12 -2 hvcurveto
          -5 -43 -54 -70 -90 -102 rrcurveto
          51 -72 74 -64 -32 vvcurveto
          -20 -21 -17 -20 -19 -63 69 78 -57 vhcurveto
          -28 -30 -54 -56 -61 -59 -22 -12 -20 2 -11 11 -14 11 0 23 15 15 69 68 19 20 63 65 rrcurveto
          endchar
        </CharString>
        <CharString name="y">
          -90 314 464 -76 callsubr
        </CharString>
        <CharString name="yacute">
          -90 218 -75 callsubr
          96 -213 -76 callsubr
        </CharString>
        <CharString name="ycircumflex">
          -90 187 -63 callsubr
          127 -188 -76 callsubr
        </CharString>
        <CharString name="ydieresis">
          -90 51 -58 callsubr
          38 -144 -76 callsubr
        </CharString>
        <CharString name="ydotbelow">
          -90 314 464 -81 callsubr
          -135 -504 -83 callgsubr
        </CharString>
        <CharString name="yen">
          -6 178 308 rmoveto
          10 -1 8 -1 5 vhcurveto
          -30 43 -26 44 -23 45 -23 45 -12 25 -3 6 -5 11 -26 51 -4 9 rrcurveto
          -3 4 -1 6 8 vvcurveto
          15 21 22 18 9 10 -9 -17 13 vhcurveto
          13 -18 15 -26 18 -33 17 -34 10 -19 3 -3 23 -44 rcurveline
          13 -26 9 -16 5 -7 46 80 rcurveline
          1 3 6 7 11 vhcurveto
          13 23 4 8 18 30 9 12 rlinecurve
          16 24 rlineto
          25 17 31 33 20 hhcurveto
          19 11 -12 -15 -7 -1 -7 -3 -6 hvcurveto
          -61 -75 -50 -95 -12 -22 -6 -11 -10 -18 -13 -25 -13 -25 -9 -17 -5 -7 rrcurveto
          -44 vlineto
          7 1 14 2 21 4 20 3 15 2 11 1 rrcurveto
          19 -6 9 -11 -16 vvcurveto
          -32 -44 -7 -36 -4 vhcurveto
          -37 -6 rlineto
          -36 vlineto
          9 42 27 4 12 hhcurveto
          24 13 -15 -16 -9 -5 -8 -10 -7 hvcurveto
          -20 -14 -35 -10 -50 -6 rrcurveto
          -25 1 -20 1 -14 vhcurveto
          -21 -4 -22 -21 -13 hhcurveto
          -13 -6 4 9 -4 hvcurveto
          -4 9 -3 5 -1 15 rrcurveto
          -1 7 0 6 3 3 0 6 8 vvcurveto
          14 vlineto
          -9 -3 -13 -2 -17 -3 -17 -3 -12 -3 -6 -2 rrcurveto
          -2 -7 -6 -1 -7 hhcurveto
          -13 -13 16 15 24 10 13 19 3 hvcurveto
          91 20 rlineto
          36 vlineto
          -38 -8 -29 -5 -20 -1 rrcurveto
          -23 3 -12 13 22 vvcurveto
          11 3 7 7 4 vhcurveto
          7 3 16 4 27 5 62 12 rcurveline
          endchar
        </CharString>
        <CharString name="yen.smcp">
          -17 169 151 rmoveto
          -69 -8 rlineto
          -2 hlineto
          -23 1 -13 19 12 vvcurveto
          12 3 5 2 4 vhcurveto
          2 4 6 4 4 2 4 2 11 3 7 1 7 1 17 4 9 1 35 5 rcurveline
          37 vlineto
          -38 53 -44 71 -50 91 rrcurveto
          -1 5 -1 3 2 vvcurveto
          19 25 20 17 9 9 -6 -13 11 vhcurveto
          11 -13 13 -20 15 -26 15 -26 9 -15 3 -3 6 -12 rcurveline
          14 -25 10 -17 7 -10 36 56 rcurveline
          2 3 5 7 7 12 15 23 4 6 16 21 rrcurveto
          28 20 33 34 21 hhcurveto
          21 13 -11 -15 -7 -2 -7 -3 -7 hvcurveto
          -48 -49 -28 -51 -27 -44 -30 -48 rcurveline
          -22 -33 rlineto
          -23 vlineto
          72 9 rlineto
          19 -5 10 -11 -17 vvcurveto
          -20 -17 -11 -15 -3 vhcurveto
          -7 -2 -10 -2 -13 -1 -13 -1 -8 -1 -4 -1 -15 -3 rcurveline
          -12 vlineto
          63 10 rlineto
          6 hlineto
          20 14 -14 -19 -9 -3 -8 -6 -5 hvcurveto
          1 hlineto
          -9 -9 -50 -14 -37 -4 rrcurveto
          -17 0 -12 1 -9 vhcurveto
          -3 -14 -8 -11 -13 -9 rrcurveto
          -4 -7 -6 -2 -6 hhcurveto
          -19 -10 19 38 hvcurveto
          9 vlineto
          -9 -37 -23 -4 -9 hhcurveto
          -18 -16 10 21 40 50 8 29 5 hvcurveto
          14 2 8 1 2 1 rrcurveto
          endchar
        </CharString>
        <CharString name="ygrave">
          -90 148 -50 callgsubr
          166 -206 -76 callsubr
        </CharString>
        <CharString name="yhookabove">
          -90 184 -53 callsubr
          130 -195 -76 callsubr
        </CharString>
        <CharString name="ytilde">
          -90 139 -40 callgsubr
          175 -166 -76 callsubr
        </CharString>
        <CharString name="z">
          223 282 -66 callgsubr
        </CharString>
        <CharString name="zacute">
          255 -75 callsubr
          -32 -395 -66 callgsubr
        </CharString>
        <CharString name="zcaron">
          135 -72 callgsubr
          88 -373 -66 callgsubr
        </CharString>
        <CharString name="zdotaccent">
          221 -13 callgsubr
          2 -346 -66 callgsubr
        </CharString>
        <CharString name="zero">
          -22 79 552 rmoveto
          68 31 56 44 72 hhcurveto
          108 69 -165 -176 -178 -59 -146 -117 -139 -69 106 211 89 16 79 32 68 hvcurveto
          150 -461 rmoveto
          77 26 130 87 114 -19 171 -81 -84 -33 -167 -106 -124 54 -105 60 hvcurveto
          endchar
        </CharString>
        <CharString name="zero.osf">
          -70 120 433 rmoveto
          -48 -39 -24 -78 -114 vvcurveto
          -108 45 -93 115 86 49 94 128 85 -20 69 -40 47 vhcurveto
          -40 47 -71 4 -52 -42 rrcurveto
          36 -73 rmoveto
          33 46 56 -15 12 -70 11 -69 1 -46 -17 -67 rrcurveto
          -37 -9 -22 -29 -23 hhcurveto
          -50 -25 60 98 53 11 43 22 33 hvcurveto
          endchar
        </CharString>
        <CharString name="zero.smcp">
          -70 281 427 rmoveto
          -39 47 -69 3 -52 -42 rrcurveto
          -48 -39 -24 -78 -116 vvcurveto
          -109 45 -92 115 85 48 93 130 87 -21 68 -40 48 vhcurveto
          -131 -60 rmoveto
          38 53 62 -17 14 -77 12 -71 1 -50 -18 -69 rrcurveto
          -39 -10 -25 -33 -26 hhcurveto
          -55 -27 66 102 56 12 45 22 34 hvcurveto
          endchar
        </CharString>
        <CharString name="zerosuperior">
          -222 128 720 rmoveto
          -79 1 -18 -65 -69 vvcurveto
          -77 27 -52 71 2 vhcurveto
          67 2 19 61 65 vvcurveto
          64 -18 67 -69 1 vhcurveto
          -2 -60 rmoveto
          15 7 -38 -36 -25 -8 -34 -16 -10 -13 25 35 32 7 41 18 hvcurveto
          endchar
        </CharString>
      <CharString index="0">
        rmoveto
        -48 callsubr
        256 4 rlineto
        24 5 21 24 20 vvcurveto
        15 -11 9 -21 3 vhcurveto
        -232 -3 rlineto
        -104 callgsubr
        return
      </CharString>
      <CharString index="1">
        rmoveto
        -17 5 17 -11 18 hhcurveto
        17 14 10 18 hvcurveto
        -28 121 9 -34 -23 81 -98 callsubr
        -67 204 rmoveto
        -62 callsubr
        14 45 18 42 22 38 rrcurveto
        return
      </CharString>
      <CharString index="2">
        -107 callgsubr
        endchar
      </CharString>
      <CharString index="3">
        2 17 1 27 39 vvcurveto
        -4 172 rlineto
        1 5 9 1 12 hhcurveto
        173 -3 4 1 4 1 3 2 rlinecurve
        19 9 10 13 17 vvcurveto
        17 -12 11 -24 5 vhcurveto
        -83 -68 0 1 -53 hvcurveto
        -3 35 -1 57 80 vvcurveto
        -5 54 35 -3 16 hhcurveto
        65 hlineto
        10 16 0 1 22 hvcurveto
        35 3 47 12 34 vvcurveto
        17 -13 11 -25 5 vhcurveto
        -103 -95 2 4 -88 hvcurveto
        -32 -4 -15 -13 -8 -32 rrcurveto
        -65 1 -71 3 -75 vhcurveto
        -7 -9 -4 -10 -11 vvcurveto
        -12 5 -9 9 -6 vhcurveto
        return
      </CharString>
      <CharString index="4">
        rmoveto
        -20 callsubr
      </CharString>
      <CharString index="5">
        rmoveto
        -94 callsubr
        119 -31 86 -65 58 vhcurveto
        30 -33 -40 15 -46 hhcurveto
        -7 -83 rmoveto
        -52 callsubr
        -92 callgsubr
        return
      </CharString>
      <CharString index="6">
        -105 callsubr
        endchar
      </CharString>
      <CharString index="7">
        rmoveto
        -29 -94 -75 -20 -21 13 -18 -5 callsubr
        49 66 15 21 56 -64 13 hhcurveto
        12 22 14 20 33 -93 65 -29 hvcurveto
        return
      </CharString>
      <CharString index="8">
        -102 callsubr
        74 -6 65 -11 56 vhcurveto
        -63 callgsubr
        return
      </CharString>
      <CharString index="9">
        rmoveto
        -87 callgsubr
        -37 callgsubr
        vhcurveto
        -48 callgsubr
        return
      </CharString>
      <CharString index="10">
        -36 -29 -29 -56 -29 hvcurveto
        -47 -88 -94 -360 -96 vvcurveto
        -19 16 -10 20 21 12 6 13 3 vhcurveto
        8 59 26 171 15 13 13 12 169 -24 13 -7 12 -6 20 -136 16 -71 return
      </CharString>
      <CharString index="11">
        rmoveto
        -49 -1 -29 -55 20 -17 -97 callsubr
        rrcurveto
        return
      </CharString>
      <CharString index="12">
        rmoveto
        -96 callsubr
        return
      </CharString>
      <CharString index="13">
        rmoveto
        -57 callsubr
        -85 callsubr
        return
      </CharString>
      <CharString index="14">
        rmoveto
        -49 callsubr
        -89 callsubr
        return
      </CharString>
      <CharString index="15">
        -64 -13 -50 -66 -59 hhcurveto
        -30 -26 8 16 -21 hvcurveto
        -43 31 -21 45 -16 56 rrcurveto
        -16 56 -4 39 45 vvcurveto
        23 3 23 7 24 vhcurveto
        85 22 56 42 89 hhcurveto
        return
      </CharString>
      <CharString index="16">
        rmoveto
        -93 callsubr
        175 22 132 305 -28 hvcurveto
        -10 callsubr
        return
      </CharString>
      <CharString index="17">
        rmoveto
        -18 -21 -22 -15 -29 126 -231 21 -31 hvcurveto
        17 -25 -6 -38 -32 vvcurveto
        1 -84 -4 -102 9 -30 rrcurveto
        -12 4 5 -12 19 hhcurveto
        13 28 5 37 -2 hvcurveto
        -1 27 -2 26 28 callgsubr
        68 -2 47 1 68 rrcurveto
        16 14 28 13 25 vhcurveto
        13 25 10 18 6 11 12 22 33 57 51 71 23 32 30 36 -47 19 -10 4 -15 -6 -10 -9 -54 -65 -69 -120 -31 -55 -17 23 -82 165 -27 38 rrcurveto
        17 -13 -10 9 -9 hhcurveto
        return
      </CharString>
      <CharString index="18">
        -92 callsubr
        endchar
      </CharString>
      <CharString index="19">
        rmoveto
        -46 callgsubr
        -8 -63 -34 -1 -24 -9 -13 22 -17 20 -19 17 rrcurveto
        30 -33 -40 15 -46 hhcurveto
        -94 callsubr
        53 -6 46 -13 40 vhcurveto
        43 8 61 38 82 vvcurveto
        -185 -405 rmoveto
        -92 callgsubr
        -52 callsubr
        return
      </CharString>
      <CharString index="20">
        -11 -12 -5 -12 -4 hvcurveto
        -26 -80 -59 -6 -32 vvcurveto
        -18 13 -16 25 return
      </CharString>
      <CharString index="21">
        rmoveto
        31 28 27 27 27 17 -21 -31 1 vhcurveto
        -28 -4 -24 -17 -27 hhcurveto
        -25 -15 13 26 -5 hvcurveto
        225 57 17 callsubr
        -14 -25 1 hvcurveto
        -35 -4 -24 -19 -25 hhcurveto
        -25 -20 19 29 30 18 15 36 hvcurveto
        return
      </CharString>
      <CharString index="22">
        -100 callgsubr
        97 -650 -101 callgsubr
      </CharString>
      <CharString index="23">
        -95 callsubr
        95 -177 -103 callgsubr
      </CharString>
      <CharString index="24">
        rmoveto
        -33 -3 -9 -16 -5 -28 rrcurveto
        -32 3 18 -20 27 hhcurveto
        19 27 28 23 23 -23 27 -24 -2 hvcurveto
        endchar
      </CharString>
      <CharString index="25">
        -100 callgsubr
        11 -187 -101 callsubr
      </CharString>
      <CharString index="26">
        -100 callgsubr
        1 -192 -103 callgsubr
      </CharString>
      <CharString index="27">
        rmoveto
        -95 -3 -83 -7 -70 vhcurveto
        -19 9 -10 19 23 26 18 20 3 vhcurveto
        -65 callsubr
        return
      </CharString>
      <CharString index="28">
        -100 callgsubr
        93 -625 -104 callsubr
      </CharString>
      <CharString index="29">
        15 -7 23 -3 12 17 9 12 2 29 -23 11 -58 29 -7 69 -33 9 return
      </CharString>
      <CharString index="30">
        -115 -87 -60 -155 -125 74 -115 114 -1 hvcurveto
        106 -1 73 114 133 vvcurveto
        return
      </CharString>
      <CharString index="31">
        rmoveto
        -4 callsubr
        -21 -12 -20 -8 -1 25 -3 25 -2 27 rrcurveto
        -10 callsubr
        -93 callsubr
        143 41 89 199 -5 hvcurveto
        43 6 66 37 86 vvcurveto
        return
      </CharString>
      <CharString index="32">
        -19 -16 -11 -20 -67 -2 -307 -2 -30 hvcurveto
        -18 -2 12 -9 18 hhcurveto
        18 25 15 18 1 hvcurveto
        -42 callsubr
        return
      </CharString>
      <CharString index="33">
        rmoveto
        -25 callgsubr
        23 27 5 10 30 hvcurveto
        -9 callgsubr
        -9 -16 -6 -11 -23 vhcurveto
        -55 callgsubr
        endchar
      </CharString>
      <CharString index="34">
        rmoveto
        -46 callgsubr
        -7 -55 -27 -7 -22 -8 rrcurveto
        70 -26 -54 40 -69 hhcurveto
        -77 callgsubr
        11 0 10 -1 11 vhcurveto
        43 6 callgsubr
        -276 -333 rmoveto
        -34 callsubr
        -33 callgsubr
        hvcurveto
        return
      </CharString>
      <CharString index="35">
        655 -94 callgsubr
        return
      </CharString>
      <CharString index="36">
        rmoveto
        -93 -7 -62 0 -93 5 rrcurveto
        -24 callgsubr
        98 -5 53 -4 108 9 -25 callsubr
        rrcurveto
        return
      </CharString>
      <CharString index="37">
        rmoveto
        -15 32 -112 203 -54 callsubr
        83 -104 66 -128 72 -137 rrcurveto
        -84 44 5 -26 52 hhcurveto
        27 16 35 26 hvcurveto
        33 -7 64 459 -5 callgsubr
        -6 -33 -57 vvcurveto
        return
      </CharString>
      <CharString index="38">
        rmoveto
        -127 -98 -97 -150 -34 6 -32 12 -33 hvcurveto
        -65 25 55 -53 63 hhcurveto
        31 32 10 21 32 hvcurveto
        -22 4 8 -8 26 hhcurveto
        36 -5 43 55 45 -7 38 -8 33 hvcurveto
        -9 35 -47 16 -64 -6 rrcurveto
        -21 -2 -11 -16 -21 vvcurveto
        -26 21 -4 53 13 6 -17 -35 -39 -34 -30 -49 -50 -44 64 89 75 53 93 91 vhcurveto
        58 -12 -23 42 hhcurveto
        14 19 14 20 37 -62 25 -52 hvcurveto
        return
      </CharString>
      <CharString index="39">
        877 -98 callgsubr
        return
      </CharString>
      <CharString index="40">
        rmoveto
        -3 callgsubr
        11 -108 3 -185 -21 44 -36 57 -57 callgsubr
        33 -56 rrcurveto
        -57 33 17 -52 44 hhcurveto
        28 14 18 34 hvcurveto
        return
      </CharString>
      <CharString index="41">
        rmoveto
        -45 4 -31 7 -29 10 rrcurveto
        -21 8 -21 -26 -17 vvcurveto
        -32 46 -12 41 -5 vhcurveto
        -39 -56 -62 -24 -21 -110 rrcurveto
        -22 8 -7 22 vhcurveto
        206 3 rlineto
        61 1 41 -3 44 vvcurveto
        36 -71 -15 -69 vhcurveto
        -121 hlineto
        30 54 41 36 56 55 rrcurveto
        44 61 -10 44 18 -8 12 -40 2 hvcurveto
        23 30 29 37 33 40 10 13 -2 33 -30 7 -56 15 -231 20 -23 -16 rrcurveto
        -12 -10 -6 -10 -13 vvcurveto
        -16 11 -9 19 106 79 -5 -11 51 vhcurveto
        -17 -25 -23 -28 -27 -31 rrcurveto
        endchar
      </CharString>
      <CharString index="42">
        rmoveto
        13 -21 callsubr
        hhcurveto
        55 55 23 30 71 hvcurveto
        -59 callsubr
      </CharString>
      <CharString index="43">
        -8 -10 -139 17 -10 10 rrcurveto
        12 -13 80 193 20 hhcurveto
        return
      </CharString>
      <CharString index="44">
        11 -8 -10 6 -11 hhcurveto
        -23 -22 -25 -28 hvcurveto
        9 -49 5 -56 -63 vvcurveto
        return
      </CharString>
      <CharString index="45">
        rmoveto
        -36 callgsubr
        -43 80 -30 68 96 76 41 103 -38 callgsubr
        hvcurveto
        return
      </CharString>
      <CharString index="46">
        rmoveto
        -2 39 -1 40 -1 40 62 -43 70 -61 31 -38 rrcurveto
        21 -26 43 14 33 vvcurveto
        41 -85 74 -76 48 vhcurveto
        13 3 73 41 17 12 rrcurveto
        39 28 28 40 29 vvcurveto
        62 -82 47 -72 -97 -52 -26 -42 -109 1 -229 3 -35 vhcurveto
        -14 12 -6 10 21 24 16 21 vhcurveto
        -3 347 rmoveto
        52 16 115 -3 -58 vvcurveto
        -41 -4 -127 -52 -37 hhcurveto
        61 0 29 1 48 vhcurveto
        return
      </CharString>
      <CharString index="47">
        -106 callsubr
        -4 -580 -83 callgsubr
      </CharString>
      <CharString index="48">
        -47 callgsubr
        7 1 -44 2 -215 -41 callgsubr
        return
      </CharString>
      <CharString index="49">
        751 -86 callgsubr
        return
      </CharString>
      <CharString index="50">
        -18 27 -36 56 -62 78 -41 37 -13 12 -16 0 -9 -3 -26 -8 -4 -24 1 -71 rrcurveto
        -33 -8 -260 0 vhcurveto
        -18 1 15 -12 16 hhcurveto
        36 0 17 53 1 hvcurveto
        1 26 8 147 2 70 54 -62 55 -88 return
      </CharString>
      <CharString index="51">
        -106 callgsubr
        -3 -380 -83 callgsubr
      </CharString>
      <CharString index="52">
        -33 -68 -50 -17 -31 hhcurveto
        -31 -28 12 25 -23 hvcurveto
        -44 47 -22 65 85 vvcurveto
        169 77 85 143 33 33 -5 -9 35 vhcurveto
        28 26 19 23 11 -6 10 -12 9 hvcurveto
        17 -53 -50 9 -45 hhcurveto
        return
      </CharString>
      <CharString index="53">
        58 4 1 -1 6 -20 rrcurveto
        -31 8 -24 -15 -34 -24 -30 26 -16 hhcurveto
        -12 -13 -15 -18 -30 47 -17 48 70 48 37 75 -16 hvcurveto
        -10 51 -28 12 -54 -9 return
      </CharString>
      <CharString index="54">
        859 -96 callgsubr
        return
      </CharString>
      <CharString index="55">
        -35 16 -18 29 vhcurveto
        -54 callgsubr
        return
      </CharString>
      <CharString index="56">
        rmoveto
        -36 callsubr
        -148 -9 -11 callgsubr
        return
      </CharString>
      <CharString index="57">
        670 -95 callgsubr
        return
      </CharString>
      <CharString index="58">
        rmoveto
        -36 -3 -16 -20 -29 vvcurveto
        -34 24 -23 29 21 30 31 25 25 -26 30 -26 -2 vhcurveto
        return
      </CharString>
      <CharString index="59">
        22 8 -24 22 -23 hhcurveto
        return
      </CharString>
      <CharString index="60">
        rmoveto
        104 -67 92 -83 31 -73 rrcurveto
        -11 9 10 -5 13 hhcurveto
        25 19 20 16 56 -111 115 -120 84 hvcurveto
        35 12 36 18 37 24 rrcurveto
        72 47 61 69 57 vvcurveto
        29 -12 26 -23 24 vhcurveto
        48 -48 -64 23 -47 hhcurveto
        -48 -43 -8 -17 -37 hvcurveto
        -41 -17 -26 -36 -51 vvcurveto
        return
      </CharString>
      <CharString index="61">
        23 -4 21 -35 -11 -14 -21 -13 -2 vhcurveto
        return
      </CharString>
      <CharString index="62">
        -71 -4 -125 13 -12 vhcurveto
        15 -13 171 3 37 2 rrcurveto
        37 1 47 13 39 vvcurveto
        23 -16 11 -31 -41 -121 -18 13 -17 vhcurveto
        -13 10 3 95 58 vvcurveto
        return
      </CharString>
      <CharString index="63">
        -107 callgsubr
        170 -379 -83 callgsubr
      </CharString>
      <CharString index="64">
        -170 29 146 -51 callgsubr
        return
      </CharString>
      <CharString index="65">
        rmoveto
        -1 70 2 51 4 64 -41 callsubr
        -10 -56 4 -411 6 -74 return
      </CharString>
      <CharString index="66">
        vhcurveto
        -87 1 -88 2 -88 vhcurveto
        -16 5 9 -8 12 hhcurveto
        23 27 22 25 hvcurveto
        -3 526 rmoveto
        9 22 30 5 37 hhcurveto
        75 69 -30 -57 -60 -148 -89 -86 -4 hvcurveto
        99 0 76 1 51 vhcurveto
        -79 -34 rmoveto
        0 0 0 0 vhcurveto
        return
      </CharString>
      <CharString index="67">
        630 -93 callgsubr
        return
      </CharString>
      <CharString index="68">
        rmoveto
        -28 11 -15 -1 -19 -54 rrcurveto
        9 -20 -32 7 -35 hhcurveto
        -70 -77 -33 -56 -40 hvcurveto
        -41 -55 -20 -70 -85 vvcurveto
        -130 36 -107 60 -65 vhcurveto
        -18 -42 -4 -11 30 -13 14 -6 18 -8 13 40 rrcurveto
        -16 27 33 -9 37 -55 callsubr
        113 109 vvcurveto
        115 -28 87 -56 57 vhcurveto
        27 62 -1 12 -24 9 rrcurveto
        -260 -531 rmoveto
        -38 61 -19 72 81 vvcurveto
        58 13 48 26 38 vhcurveto
        40 27 51 22 48 hhcurveto
        23 20 -3 -5 17 hvcurveto
        54 -47 rmoveto
        24 -35 12 -54 -73 vvcurveto
        -49 -5 -48 -11 -49 vhcurveto
        -64 -13 -50 -66 -58 hhcurveto
        -29 -25 7 14 -19 hvcurveto
        34 80 58 139 82 198 rrcurveto
        endchar
      </CharString>
      <CharString index="69">
        72 -22 13 -29 21 vhcurveto
        -43 31 -152 7 62 vvcurveto
        25 52 25 46 vhcurveto
        40 39 -32 25 27 callsubr
        12 18 36 -51 28 -81 return
      </CharString>
      <CharString index="70">
        29 62 64 61 22 return
      </CharString>
      <CharString index="71">
        -107 -68 -50 -69 hvcurveto
        -153 250 74 -116 vvcurveto
        -43 -30 -34 -59 -29 -33 15 22 -56 vhcurveto
        -22 9 -20 -25 -19 vvcurveto
        return
      </CharString>
      <CharString index="72">
        -30 51 283 rmoveto
        -20 -3 -12 -14 -17 vvcurveto
        -16 11 -14 21 -2 vhcurveto
        24 hlineto
        3 -64 3 -50 6 -37 rrcurveto
        -6 -5 -2 -7 -7 vvcurveto
        -8 4 -6 9 -7 vhcurveto
        9 -36 rlineto
        -17 4 10 -9 16 hhcurveto
        21 24 16 23 hvcurveto
        -2 16 16 -1 16 hhcurveto
        113 77 53 112 hvcurveto
        -3 75 -33 69 -52 50 rrcurveto
        67 -69 -93 39 -44 hhcurveto
        -24 -20 -7 -25 hvcurveto
        -30 -1 -50 -70 vvcurveto
        124 -66 rmoveto
        17 10 16 17 17 -5 16 -21 hvcurveto
        -51 hlineto
        71 1 22 1 14 vhcurveto
        118 -46 72 -96 -113 vvcurveto
        -49 -48 -17 -76 -28 -18 0 2 -10 vhcurveto
        -6 45 -4 48 -1 53 rrcurveto
        endchar
      </CharString>
      <CharString index="73">
        rmoveto
        -18 4 10 -9 15 hhcurveto
        31 24 22 17 8 -1 7 -3 6 hvcurveto
        -5 25 28 -2 30 hhcurveto
        29 29 4 9 29 hvcurveto
        97 30 49 74 117 vvcurveto
        10 callgsubr
        1 -3 -6 0 -9 hhcurveto
        -17 -25 -16 -21 -7 hvcurveto
        -3 -97 -2 -73 -48 vvcurveto
        -121 6 -109 13 -98 vhcurveto
        12 callgsubr
        65 544 14 callsubr
        -9 -1 -15 -2 -19 vhcurveto
        -53 -4 -87 -22 -92 hhcurveto
        -25 -21 2 5 -17 hvcurveto
        -13 102 -7 111 119 vvcurveto
        37 2 53 3 71 vhcurveto
        endchar
      </CharString>
      <CharString index="74">
        81 22 -60 -84 -70 -25 -100 -73 return
      </CharString>
      <CharString index="75">
        83 348 rmoveto
        -20 -10 10 21 29 72 60 44 24 12 -16 -33 -19 -3 -29 -5 -37 hvcurveto
        -5 -38 -3 -24 -9 vvcurveto
        -19 -1 -16 -28 -20 hhcurveto
        -21 -12 12 24 -4 hvcurveto
        1 39 12 64 3 13 -3 -3 -8 -3 -11 -4 -11 -4 -9 -3 -6 -3 rrcurveto
        350 39 rmoveto
        -13 -19 -23 -30 -32 -43 -123 -166 -67 -90 -10 -15 rrcurveto
        -15 -11 -11 -8 -11 hhcurveto
        -23 -17 17 16 7 2 7 3 5 hvcurveto
        52 67 73 94 44 58 15 23 rlinecurve
        67 104 44 56 21 9 rrcurveto
        3 5 6 1 7 hhcurveto
        14 13 -15 -21 -11 -4 -9 -9 -8 hvcurveto
        return
      </CharString>
      <CharString index="76">
        837 -95 callsubr
        return
      </CharString>
      <CharString index="77">
        798 -71 callgsubr
        return
      </CharString>
      <CharString index="78">
        -11 callsubr
        8 5 34 26 -21 24 rrcurveto
        return
      </CharString>
      <CharString index="79">
        rmoveto
        -20 -14 -11 -21 -8 hvcurveto
        -53 21 -104 -15 -49 -60 rrcurveto
        -32 -39 -16 -50 -59 vvcurveto
        -61 18 -90 48 -48 vhcurveto
        -13 -23 -5 -30 24 -10 13 -8 29 7 10 22 61 -26 53 11 51 44 rrcurveto
        57 51 29 78 73 vvcurveto
        76 -20 58 -39 42 vhcurveto
        8 10 4 12 11 vvcurveto
        24 -14 11 -18 vhcurveto
        -67 -97 rmoveto
        -59 -128 -52 -114 -10 -21 rrcurveto
        -23 36 -14 58 39 vvcurveto
        111 83 36 75 -17 vhcurveto
        51 -39 rmoveto
        32 -53 -9 -83 -14 -60 -17 -68 -64 -34 -54 29 49 101 55 120 22 48 rrcurveto
        endchar
      </CharString>
      <CharString index="80">
        -37 216 665 rmoveto
        -94 -4 -72 -46 4 -84 2 -65 47 -71 57 -30 -80 -63 -37 -71 2 -82 2 -90 65 -63 107 4 107 4 76 60 -3 100 -3 87 -35 49 -69 74 55 37 44 47 -1 75 rrcurveto
        -1 87 -79 48 -94 -3 rrcurveto
        4 -70 rmoveto
        41 3 50 -26 1 -41 1 -45 -26 -18 -65 -49 -33 25 -62 26 -2 52 -2 52 45 17 52 4 rrcurveto
        -1 -272 rmoveto
        64 -65 33 -44 2 -53 rrcurveto
        -41 -22 -40 -54 -3 vhcurveto
        -72 -2 -49 31 -2 52 -4 56 34 62 70 47 rrcurveto
        endchar
      </CharString>
</ttFont>
